<svg width="546" height="546" viewBox="0 0 546 546" fill="none" xmlns="http://www.w3.org/2000/svg">
<path d="M102.375 511.875H11.375C8.35816 511.875 5.46489 510.677 3.33166 508.543C1.19843 506.41 0 503.517 0 500.5V341.25C0 338.233 1.19843 335.34 3.33166 333.207C5.46489 331.073 8.35816 329.875 11.375 329.875H102.375C105.392 329.875 108.285 331.073 110.418 333.207C112.552 335.34 113.75 338.233 113.75 341.25V500.5C113.75 503.517 112.552 506.41 110.418 508.543C108.285 510.677 105.392 511.875 102.375 511.875ZM22.75 489.125H91V352.625H22.75V489.125Z" fill="#201602"/>
<path d="M307.125 546H304.622L99.8721 500.5L104.877 477.75L305.646 523.25L523.25 413.823V400.855L377.763 432.25L372.986 409.5L532.236 375.375C533.916 375.014 535.656 375.038 537.325 375.445C538.994 375.853 540.549 376.633 541.874 377.728C543.198 378.822 544.258 380.203 544.972 381.765C545.687 383.328 546.038 385.032 546 386.75V420.875C545.993 422.976 545.405 425.033 544.301 426.82C543.197 428.607 541.619 430.053 539.743 430.999L312.243 544.749C310.659 545.561 308.905 545.989 307.125 546Z" fill="#201602"/>
<path d="M273 466.375C271.984 466.549 270.945 466.549 269.929 466.375L190.304 443.625L196.446 420.875L273.91 443.625L364 433.387V409.5H284.375C282.594 409.489 280.841 409.061 279.256 408.249L190.645 364H102.375V341.25H193.375C195.156 341.261 196.909 341.689 198.494 342.501L287.105 386.75H375.375C378.392 386.75 381.285 387.948 383.418 390.082C385.552 392.215 386.75 395.108 386.75 398.125V443.625C386.767 446.437 385.742 449.156 383.872 451.256C382.003 453.357 379.421 454.691 376.626 455L274.251 466.375H273Z" fill="#201602"/>
<path d="M68.25 443.625H45.5V466.375H68.25V443.625Z" fill="#201602"/>
<path d="M329.875 295.75C317.808 295.75 306.235 290.956 297.702 282.423C289.169 273.89 284.375 262.317 284.375 250.25H307.125C307.125 254.75 308.459 259.148 310.959 262.889C313.459 266.63 317.012 269.546 321.169 271.268C325.326 272.99 329.9 273.441 334.313 272.563C338.726 271.685 342.78 269.518 345.962 266.337C349.143 263.155 351.31 259.101 352.188 254.688C353.066 250.275 352.615 245.701 350.893 241.544C349.171 237.387 346.255 233.834 342.514 231.334C338.773 228.834 334.375 227.5 329.875 227.5C320.876 227.5 312.079 224.831 304.597 219.832C297.114 214.832 291.282 207.726 287.839 199.412C284.395 191.098 283.494 181.95 285.249 173.123C287.005 164.297 291.338 156.19 297.702 149.827C304.065 143.463 312.172 139.13 320.998 137.374C329.825 135.619 338.973 136.52 347.287 139.963C355.601 143.407 362.707 149.239 367.707 156.722C372.706 164.204 375.375 173.001 375.375 182H352.625C352.625 177.5 351.291 173.102 348.791 169.361C346.291 165.62 342.738 162.704 338.581 160.982C334.424 159.26 329.85 158.809 325.437 159.687C321.024 160.565 316.97 162.732 313.788 165.913C310.607 169.095 308.44 173.149 307.562 177.562C306.684 181.975 307.135 186.549 308.857 190.706C310.579 194.863 313.495 198.416 317.236 200.916C320.977 203.416 325.376 204.75 329.875 204.75C341.942 204.75 353.515 209.544 362.048 218.077C370.581 226.61 375.375 238.183 375.375 250.25C375.375 262.317 370.581 273.89 362.048 282.423C353.515 290.956 341.942 295.75 329.875 295.75Z" fill="#201602"/>
<path d="M341.25 284.375H318.5V318.5H341.25V284.375Z" fill="#201602"/>
<path d="M341.25 113.75H318.5V147.875H341.25V113.75Z" fill="#201602"/>
<path d="M329.875 352.625C302.878 352.625 276.487 344.619 254.04 329.621C231.592 314.622 214.097 293.303 203.766 268.361C193.434 243.419 190.731 215.974 195.998 189.495C201.265 163.017 214.265 138.695 233.355 119.605C252.445 100.515 276.767 87.5147 303.245 82.2478C329.724 76.9809 357.169 79.6841 382.111 90.0154C407.053 100.347 428.372 117.842 443.371 140.29C458.369 162.737 466.375 189.128 466.375 216.125C466.375 252.327 451.994 287.046 426.395 312.645C400.796 338.244 366.077 352.625 329.875 352.625ZM329.875 102.375C307.377 102.375 285.385 109.046 266.679 121.545C247.973 134.044 233.393 151.81 224.784 172.595C216.174 193.38 213.922 216.251 218.311 238.317C222.7 260.382 233.533 280.65 249.442 296.558C265.35 312.467 285.618 323.3 307.684 327.689C329.749 332.078 352.62 329.826 373.405 321.216C394.19 312.607 411.956 298.027 424.455 279.321C436.954 260.615 443.625 238.623 443.625 216.125C443.625 185.957 431.641 157.024 410.308 135.692C388.976 114.359 360.043 102.375 329.875 102.375Z" fill="#201602"/>
<path d="M534.625 204.75H455V227.5H534.625V204.75Z" fill="#201602"/>
<path d="M204.75 204.75H125.125V227.5H204.75V204.75Z" fill="#201602"/>
<path d="M341.25 341.25H318.5V386.75H341.25V341.25Z" fill="#201602"/>
<path d="M341.25 11.375H318.5V91H341.25V11.375Z" fill="#201602"/>
<path d="M466.59 63.3731L410.286 119.676L426.373 135.763L482.676 79.4598L466.59 63.3731Z" fill="#201602"/>
<path d="M233.396 296.48L185.377 344.498L201.464 360.585L249.482 312.566L233.396 296.48Z" fill="#201602"/>
<path d="M474.678 372.304C473.181 372.312 471.697 372.025 470.311 371.459C468.925 370.893 467.665 370.059 466.602 369.005L409.727 312.699L425.88 296.546L473.882 344.549C497.872 317.518 513.806 284.305 519.878 248.678C525.95 213.05 521.916 176.434 508.234 142.983C494.552 109.532 471.769 80.5846 442.471 59.4244C413.172 38.2643 378.529 25.7383 342.473 23.2674C306.416 20.7965 270.389 28.4795 238.477 45.445C206.565 62.4105 180.047 87.9794 161.929 119.251C143.812 150.523 134.821 186.247 135.976 222.369C137.13 258.492 148.385 293.568 168.463 323.619L150.15 336.245C127.418 302.202 114.821 262.404 113.826 221.481C112.83 180.559 123.477 140.195 144.527 105.088C165.577 69.9799 196.164 41.5722 232.729 23.1703C269.295 4.76849 310.334 -2.87072 351.072 1.14173C391.809 5.15418 430.569 20.6533 462.842 45.8353C495.114 71.0173 519.572 104.847 533.367 143.386C547.163 181.926 549.731 223.591 540.771 263.533C531.81 303.475 511.691 340.051 482.755 369.005C480.575 371.084 477.69 372.262 474.678 372.304Z" fill="#201602"/>
<path d="M193.235 63.3241L177.148 79.4108L233.452 135.714L249.538 119.627L193.235 63.3241Z" fill="#201602"/>
</svg>
