<svg width="90" height="15" viewBox="0 0 90 15" fill="none" xmlns="http://www.w3.org/2000/svg">
<g clip-path="url(#clip0_540_67)">
<path d="M26.7277 0.817089L28.595 5.2369L33.3758 5.64761C33.7074 5.67624 33.8423 6.08995 33.5906 6.30777L29.9643 9.44947L31.051 14.1232C31.1264 14.448 30.7744 14.7035 30.4896 14.5309L26.381 12.0532L22.2724 14.5309C21.9868 14.7027 21.6356 14.4473 21.711 14.1232L22.7977 9.44947L19.1707 6.30699C18.9189 6.08923 19.0531 5.67547 19.3854 5.64684L24.1662 5.23612L26.0336 0.817089C26.1632 0.50962 26.598 0.50962 26.7277 0.817089Z" fill="#FABC05"/>
<path d="M45.3946 0.817089L47.262 5.2369L52.0427 5.64761C52.3743 5.67624 52.5092 6.08995 52.2575 6.30777L48.6312 9.44947L49.7179 14.1232C49.7933 14.448 49.4413 14.7035 49.1565 14.5309L45.0479 12.0532L40.9393 14.5309C40.6537 14.7027 40.3026 14.4473 40.3779 14.1232L41.4646 9.44947L37.8376 6.30699C37.5859 6.08923 37.72 5.67547 38.0523 5.64684L42.8331 5.23612L44.7005 0.817089C44.8301 0.50962 45.2649 0.50962 45.3946 0.817089Z" fill="#FABC05"/>
<path d="M64.0614 0.817089L65.9287 5.2369L70.7095 5.64761C71.0413 5.67624 71.1764 6.08995 70.9247 6.30777L67.2982 9.44947L68.3849 14.1232C68.4602 14.448 68.1081 14.7035 67.8236 14.5309L63.7153 12.0532L59.6064 14.5309C59.3208 14.7027 58.9696 14.4473 59.045 14.1232L60.1318 9.44947L56.5046 6.30699C56.2529 6.08923 56.3871 5.67547 56.7194 5.64684L61.5 5.23612L63.3674 0.817089C63.4971 0.50962 63.9323 0.50962 64.0614 0.817089Z" fill="#FABC05"/>
<path d="M82.7299 0.817089L84.5973 5.2369L89.3781 5.64761C89.7092 5.67624 89.8443 6.08995 89.5927 6.30777L85.9661 9.44947L87.0529 14.1232C87.1282 14.448 86.7767 14.7035 86.4916 14.5309L82.3833 12.0532L78.2743 14.5309C77.9886 14.7027 77.6377 14.4473 77.7131 14.1232L78.7998 9.44947L75.1726 6.30699C74.921 6.08923 75.0549 5.67547 75.3872 5.64684L80.168 5.23612L82.036 0.817089C82.1651 0.50962 82.6002 0.50962 82.7299 0.817089Z" fill="#FABC05"/>
<path d="M7.70711 0.817089L9.57453 5.2369L14.3552 5.64761C14.6868 5.67624 14.8217 6.08995 14.57 6.30777L10.9438 9.44947L12.0304 14.1232C12.1058 14.448 11.7538 14.7035 11.469 14.5309L7.36047 12.0532L3.25188 14.5309C2.96628 14.7027 2.6151 14.4473 2.69046 14.1232L3.77714 9.44947L0.150114 6.30699C-0.101585 6.08923 0.0325548 5.67547 0.364888 5.64684L5.14566 5.23612L7.01306 0.817089C7.14265 0.50962 7.57752 0.50962 7.70711 0.817089Z" fill="#FABC05"/>
</g>
<defs>
<clipPath id="clip0_540_67">
<rect width="90" height="15" fill="white"/>
</clipPath>
</defs>
</svg>
