<svg width="800" height="800" viewBox="0 0 800 800" fill="none" xmlns="http://www.w3.org/2000/svg">
<path d="M700.001 216.667V150C700.001 134.511 700.001 126.767 698.721 120.327C693.461 93.8813 672.787 73.208 646.341 67.9477C639.901 66.6667 632.157 66.6667 616.667 66.6667C601.177 66.6667 593.434 66.6667 586.994 67.9477C560.547 73.208 539.874 93.8813 534.614 120.327C533.334 126.767 533.334 134.511 533.334 150V216.667C533.334 232.155 533.334 239.899 534.614 246.339C539.874 272.785 560.547 293.459 586.994 298.719C593.434 300 601.177 300 616.667 300C632.157 300 639.901 300 646.341 298.719C672.787 293.459 693.461 272.785 698.721 246.339C700.001 239.899 700.001 232.155 700.001 216.667Z" stroke="white" stroke-width="50" stroke-linecap="round"/>
<path d="M266.667 650V583.333C266.667 567.843 266.667 560.1 265.386 553.66C260.125 527.213 239.452 506.54 213.006 501.28C206.566 500 198.822 500 183.333 500C167.845 500 160.101 500 153.661 501.28C127.215 506.54 106.541 527.213 101.281 553.66C100 560.1 100 567.843 100 583.333V650C100 665.49 100 673.233 101.281 679.673C106.541 706.12 127.215 726.793 153.661 732.053C160.101 733.333 167.845 733.333 183.333 733.333C198.822 733.333 206.566 733.333 213.006 732.053C239.452 726.793 260.125 706.12 265.386 679.673C266.667 673.233 266.667 665.49 266.667 650Z" stroke="white" stroke-width="50" stroke-linecap="round"/>
<path d="M533.333 616.667H266.666" stroke="white" stroke-width="50" stroke-linecap="round"/>
<path d="M533.333 183.333H266.666" stroke="white" stroke-width="50" stroke-linecap="round"/>
<path d="M400 616.667V508.333V466.667M400 183.333V291.667V333.333" stroke="white" stroke-width="50" stroke-linecap="round"/>
<path d="M100 150C100 134.511 100 126.767 101.281 120.327C106.541 93.8813 127.215 73.208 153.661 67.9477C160.101 66.6667 167.845 66.6667 183.333 66.6667C198.822 66.6667 206.566 66.6667 213.006 67.9477C239.452 73.208 260.125 93.8813 265.386 120.327C266.667 126.767 266.667 134.511 266.667 150V216.667C266.667 232.155 266.667 239.899 265.386 246.339C260.125 272.785 239.452 293.459 213.006 298.719C206.566 300 198.822 300 183.333 300C167.845 300 160.101 300 153.661 298.719C127.215 293.459 106.541 272.785 101.281 246.339" stroke="white" stroke-width="50" stroke-linecap="round"/>
<path d="M700.001 650C700.001 665.49 700.001 673.233 698.721 679.673C693.461 706.12 672.787 726.793 646.341 732.053C639.901 733.333 632.157 733.333 616.667 733.333C601.177 733.333 593.434 733.333 586.994 732.053C560.547 726.793 539.874 706.12 534.614 679.673C533.334 673.233 533.334 665.49 533.334 650V583.333C533.334 567.843 533.334 560.1 534.614 553.66C539.874 527.213 560.547 506.54 586.994 501.28C593.434 500 601.177 500 616.667 500C632.157 500 639.901 500 646.341 501.28C672.787 506.54 693.461 527.213 698.721 553.66" stroke="white" stroke-width="50" stroke-linecap="round"/>
</svg>
