<svg width="100" height="100" viewBox="0 0 100 100" fill="none" xmlns="http://www.w3.org/2000/svg">
<path d="M76.1905 100H23.8095V35L57.1429 0L63.0952 6.25C63.6508 6.83333 64.1079 7.625 64.4667 8.625C64.8254 9.625 65.0032 10.5833 65 11.5V13.25L59.7619 35H90.4762C93.0159 35 95.2381 36 97.1429 38C99.0476 40 100 42.3333 100 45V55C100 55.5833 99.9206 56.2083 99.7619 56.875C99.6032 57.5417 99.4444 58.1667 99.2857 58.75L85 94C84.2857 95.6667 83.0952 97.0833 81.4286 98.25C79.7619 99.4167 78.0159 100 76.1905 100ZM33.3333 90H76.1905L90.4762 55V45H47.619L54.0476 17.5L33.3333 39.25V90ZM23.8095 35V45H9.52381V90H23.8095V100H0V35H23.8095Z" fill="#1B1A1A"/>
</svg>
