<svg width="515" height="552" viewBox="0 0 515 552" fill="none" xmlns="http://www.w3.org/2000/svg">
<path d="M459.375 183.752H302.82L312.375 161.702C319.541 143.75 322.186 124.312 320.077 105.098C317.969 85.8841 311.171 67.4826 300.282 51.5121C289.393 35.5416 274.746 22.4915 257.631 13.5095C240.515 4.52763 221.454 -0.110875 202.125 0.00201223C198.445 -0.00155035 194.848 1.10001 191.802 3.164C188.755 5.22799 186.398 8.15931 185.036 11.5783L116.13 183.752H55.125C40.5049 183.752 26.4837 189.56 16.1457 199.898C5.8078 210.236 0 224.257 0 238.877V496.127C0 510.747 5.8078 524.768 16.1457 535.106C26.4837 545.444 40.5049 551.252 55.125 551.252H388.999C403.614 551.239 417.626 545.423 427.954 535.082L498.33 464.706C508.671 454.378 514.487 440.366 514.5 425.751V238.877C514.5 224.257 508.692 210.236 498.354 199.898C488.016 189.56 473.995 183.752 459.375 183.752ZM36.75 496.127V238.877C36.75 234.004 38.6859 229.33 42.1319 225.884C45.5779 222.438 50.2516 220.502 55.125 220.502H110.25V514.502H55.125C50.2516 514.502 45.5779 512.566 42.1319 509.12C38.6859 505.674 36.75 501 36.75 496.127ZM477.75 425.751C477.764 428.169 477.3 430.566 476.386 432.805C475.472 435.044 474.124 437.08 472.421 438.797L402.045 509.173C398.524 512.531 393.864 514.434 388.999 514.502H147V205.618L214.252 37.6708C225.378 39.219 236.048 43.1163 245.552 49.1039C255.056 55.0915 263.178 63.0325 269.377 72.3995C276.869 83.3708 281.527 96.0259 282.938 109.236C284.349 122.445 282.468 135.799 277.463 148.105L259.088 195.328C257.992 198.074 257.576 201.044 257.874 203.985C258.172 206.927 259.175 209.753 260.798 212.224C262.421 214.694 264.616 216.737 267.198 218.178C269.779 219.62 272.67 220.417 275.625 220.502H459.375C464.248 220.502 468.922 222.438 472.368 225.884C475.814 229.33 477.75 234.004 477.75 238.877V425.751Z" fill="#212121"/>
</svg>
