<svg width="1287" height="800" viewBox="0 0 1287 800" fill="none" xmlns="http://www.w3.org/2000/svg">
<path d="M702.006 0V42.1053H1111.49V126.316H702.006V715.789H935.998V800H351.017V715.789H585.009V421.053V126.316H175.523V42.1053H585.009V0H702.006ZM234.021 182.863L399.454 301.979C432.177 325.533 454.461 355.543 463.489 388.213C472.517 420.884 467.882 454.747 450.172 485.521C432.461 516.296 402.469 542.599 363.99 561.105C325.51 579.611 280.271 589.489 233.992 589.489C187.713 589.489 142.474 579.611 103.994 561.105C65.5149 542.599 35.5235 516.296 17.8128 485.521C0.102184 454.747 -4.53234 420.884 4.49531 388.213C13.523 355.543 35.8074 325.533 68.5305 301.979L234.138 182.863H234.021ZM1052.99 182.863L1218.43 301.979C1251.15 325.533 1273.43 355.543 1282.46 388.213C1291.49 420.884 1286.85 454.747 1269.14 485.521C1251.43 516.296 1221.44 542.599 1182.96 561.105C1144.48 579.611 1099.24 589.489 1052.96 589.489C1006.69 589.489 961.446 579.611 922.967 561.105C884.487 542.599 854.496 516.296 836.785 485.521C819.074 454.747 814.44 420.884 823.467 388.213C832.495 355.543 854.78 325.533 887.503 301.979L1052.99 182.863ZM234.021 301.979L151.305 361.516C134.939 373.292 123.793 388.297 119.276 404.633C114.759 420.969 117.074 437.902 125.928 453.291C134.782 468.68 149.778 481.833 169.018 491.087C188.259 500.342 210.88 505.281 234.021 505.281C257.163 505.281 279.784 500.342 299.025 491.087C318.265 481.833 333.261 468.68 342.115 453.291C350.969 437.902 353.284 420.969 348.767 404.633C344.25 388.297 333.103 373.292 316.738 361.516L234.021 301.979ZM1052.99 301.979L970.277 361.516C953.912 373.292 942.765 388.297 938.248 404.633C933.731 420.969 936.046 437.902 944.9 453.291C953.754 468.68 968.75 481.833 987.99 491.087C1007.23 500.342 1029.85 505.281 1052.99 505.281C1076.13 505.281 1098.76 500.342 1118 491.087C1137.24 481.833 1152.23 468.68 1161.09 453.291C1169.94 437.902 1172.26 420.969 1167.74 404.633C1163.22 388.297 1152.08 373.292 1135.71 361.516L1052.99 301.979Z" fill="white"/>
</svg>
