<svg width="100" height="110" viewBox="0 0 100 110" fill="none" xmlns="http://www.w3.org/2000/svg">
<path d="M38.5417 78.4722C40.7986 79.6538 42.8299 81.104 44.6354 82.8227C46.441 84.5414 48.0035 86.475 49.3229 88.6234C50.6424 90.7718 51.6319 93.0634 52.2917 95.4983C52.9514 97.9331 53.2986 100.475 53.3333 103.125H46.6667C46.6667 100.296 46.1458 97.6288 45.1042 95.1223C44.0625 92.6158 42.6389 90.4316 40.8333 88.5697C39.0278 86.7077 36.8924 85.2217 34.4271 84.1117C31.9618 83.0017 29.375 82.4646 26.6667 82.5004C23.8889 82.5004 21.3021 83.0375 18.9062 84.1117C16.5104 85.1859 14.3924 86.654 12.5521 88.516C10.7118 90.3779 9.27083 92.58 8.22917 95.1223C7.1875 97.6646 6.66667 100.332 6.66667 103.125H0C0 100.511 0.347222 97.9868 1.04167 95.552C1.73611 93.1171 2.72569 90.8255 4.01042 88.6771C5.29514 86.5287 6.84028 84.5951 8.64583 82.8764C10.4514 81.1577 12.5 79.6896 14.7917 78.4722C12.2222 76.5028 10.2257 74.0679 8.80208 71.1676C7.37847 68.2672 6.66667 65.17 6.66667 61.8757C6.66667 59.047 7.1875 56.3794 8.22917 53.8729C9.27083 51.3665 10.6944 49.1822 12.5 47.3203C14.3056 45.4583 16.4236 43.9724 18.8542 42.8624C21.2847 41.7523 23.8889 41.2152 26.6667 41.251C29.8611 41.251 32.8646 41.9851 35.6771 43.4532C38.4896 44.9212 40.8507 46.9801 42.7604 49.6298C44.0799 46.9443 45.7639 44.5453 47.8125 42.4327C49.8611 40.3201 52.1875 38.5834 54.7917 37.2228C52.2222 35.2534 50.2257 32.8186 48.8021 29.9182C47.3785 27.0179 46.6667 23.9206 46.6667 20.6264C46.6667 17.7976 47.1875 15.13 48.2292 12.6236C49.2708 10.1171 50.6944 7.93287 52.5 6.07092C54.3056 4.20897 56.4236 2.72299 58.8542 1.61298C61.2847 0.502973 63.8889 -0.0341283 66.6667 0.00167844C69.4097 0.00167844 71.9965 0.53878 74.4271 1.61298C76.8576 2.68718 78.9757 4.15526 80.7812 6.01721C82.5868 7.87916 84.0278 10.0813 85.1042 12.6236C86.1806 15.1658 86.7014 17.8334 86.6667 20.6264C86.6667 23.9206 85.9549 27.0179 84.5312 29.9182C83.1076 32.8186 81.1111 35.2534 78.5417 37.2228C80.7986 38.4044 82.8299 39.8546 84.6354 41.5733C86.441 43.292 88.0035 45.2256 89.3229 47.374C90.6424 49.5224 91.6319 51.814 92.2917 54.2489C92.9514 56.6838 93.2986 59.226 93.3333 61.8757H86.6667C86.6667 59.047 86.1458 56.3794 85.1042 53.8729C84.0625 51.3665 82.6389 49.1822 80.8333 47.3203C79.0278 45.4583 76.8924 43.9724 74.4271 42.8624C71.9618 41.7523 69.375 41.2152 66.6667 41.251C63.8889 41.251 61.3021 41.7882 58.9062 42.8624C56.5104 43.9366 54.3924 45.4046 52.5521 47.2666C50.7118 49.1285 49.2708 51.3306 48.2292 53.8729C47.1875 56.4152 46.6667 59.0828 46.6667 61.8757C46.6667 65.17 45.9549 68.2672 44.5312 71.1676C43.1076 74.0679 41.1111 76.5028 38.5417 78.4722ZM53.3333 20.6264C53.3333 22.5241 53.6806 24.2966 54.375 25.9437C55.0694 27.5908 56.0243 29.0589 57.2396 30.3479C58.4549 31.6369 59.8611 32.6216 61.4583 33.302C63.0556 33.9823 64.7917 34.3403 66.6667 34.3762C68.5069 34.3762 70.2257 34.0181 71.8229 33.302C73.4201 32.5858 74.8438 31.6011 76.0938 30.3479C77.3438 29.0947 78.2986 27.6445 78.9583 25.9974C79.6181 24.3503 79.9653 22.5599 80 20.6264C80 18.7286 79.6528 16.9562 78.9583 15.3091C78.2639 13.662 77.309 12.1939 76.0938 10.9048C74.8785 9.61579 73.4722 8.6311 71.875 7.95078C70.2778 7.27045 68.5417 6.91238 66.6667 6.87657C64.8264 6.87657 63.1076 7.23464 61.5104 7.95078C59.9132 8.66691 58.4896 9.6516 57.2396 10.9048C55.9896 12.1581 55.0347 13.6082 54.375 15.2554C53.7153 16.9025 53.3681 18.6928 53.3333 20.6264ZM13.3333 61.8757C13.3333 63.7735 13.6806 65.5459 14.375 67.193C15.0694 68.8401 16.0243 70.3082 17.2396 71.5973C18.4549 72.8863 19.8611 73.871 21.4583 74.5513C23.0556 75.2317 24.7917 75.5897 26.6667 75.6255C28.5069 75.6255 30.2257 75.2675 31.8229 74.5513C33.4201 73.8352 34.8438 72.8505 36.0938 71.5973C37.3438 70.344 38.2986 68.8939 38.9583 67.2467C39.6181 65.5996 39.9653 63.8093 40 61.8757C40 59.978 39.6528 58.2055 38.9583 56.5584C38.2639 54.9113 37.309 53.4432 36.0938 52.1542C34.8785 50.8652 33.4722 49.8805 31.875 49.2001C30.2778 48.5198 28.5417 48.1618 26.6667 48.1259C24.8264 48.1259 23.1076 48.484 21.5104 49.2001C19.9132 49.9163 18.4896 50.901 17.2396 52.1542C15.9896 53.4074 15.0347 54.8576 14.375 56.5047C13.7153 58.1518 13.3681 59.9422 13.3333 61.8757ZM91.6667 110L76.6667 97.9152L61.6667 110L67.7083 90.6644L53.3333 79.063H71.3021L76.6667 61.8757L82.0312 79.063H100L85.625 90.6644L91.6667 110Z" fill="#1B1A1A"/>
</svg>
