<svg width="800" height="800" viewBox="0 0 800 800" fill="none" xmlns="http://www.w3.org/2000/svg">
<path d="M784.751 125.932C814.791 199.949 800.476 288.303 741.556 348.496C676.685 414.769 578.642 425.137 502.431 381.201L447.333 442.674L486.644 482.994L510.137 458.994C522.134 446.706 541.617 446.706 553.614 458.994L744.125 655.605C756.153 667.862 756.153 687.766 744.125 700.022L657.17 788.856C645.173 801.144 625.69 801.144 613.693 788.856L423.182 592.244C411.154 579.988 411.154 560.084 423.182 547.828L444.639 525.907L407.176 487.538L143.713 781.592C119.688 806.136 80.7524 806.136 56.7584 781.592L35.0198 759.383C10.9946 734.839 10.9946 695.062 35.0198 670.55L335.163 413.745L135.819 209.549L72.8588 209.517L0 89.8353L58.6379 29.8342L178.451 104.748L179.234 167.725L380.896 374.544L439.565 324.367C382.211 244.494 388.194 131.98 458.86 59.7868C517.498 -0.118309 603.513 -14.9986 675.776 15.114L546.598 145.26L655.322 256.334L784.751 125.932ZM107.127 701.878C95.1299 689.622 75.6779 689.622 63.6497 701.878C51.6214 714.167 51.6214 734.039 63.6497 746.327C75.6779 758.583 95.1299 758.583 107.127 746.327C119.155 734.007 119.155 714.135 107.127 701.878Z" fill="white"/>
</svg>
