<svg width="800" height="800" viewBox="0 0 800 800" fill="none" xmlns="http://www.w3.org/2000/svg">
<path d="M100 266.667L190.729 342.273C196.719 347.267 204.27 350 212.068 350H587.93C595.73 350 603.28 347.267 609.27 342.273L700 266.667M216.667 466.667H217M583.333 466.667H583.667M272.022 150H527.98C551.903 150 573.993 162.819 585.86 183.591L682.433 352.59C693.943 372.737 700 395.537 700 418.743V616.667C700 635.077 685.077 650 666.667 650H633.333C614.923 650 600 635.077 600 616.667V583.333H200V616.667C200 635.077 185.076 650 166.667 650H133.333C114.924 650 100 635.077 100 616.667V418.743C100 395.537 106.055 372.737 117.568 352.59L214.139 183.591C226.008 162.819 248.098 150 272.022 150ZM233.333 466.667C233.333 475.87 225.871 483.333 216.667 483.333C207.462 483.333 200 475.87 200 466.667C200 457.463 207.462 450 216.667 450C225.871 450 233.333 457.463 233.333 466.667ZM600 466.667C600 475.87 592.537 483.333 583.333 483.333C574.13 483.333 566.667 475.87 566.667 466.667C566.667 457.463 574.13 450 583.333 450C592.537 450 600 457.463 600 466.667Z" stroke="white" stroke-width="66.6667" stroke-linecap="round" stroke-linejoin="round"/>
</svg>
