<svg width="433" height="441" viewBox="0 0 433 441" fill="none" xmlns="http://www.w3.org/2000/svg">
<g clip-path="url(#clip0_539_856)">
<path d="M216.5 441C336.07 441 433 342.279 433 220.5C433 98.7212 336.07 0 216.5 0C96.9303 0 0 98.7212 0 220.5C0 342.279 96.9303 441 216.5 441Z" fill="#191919"/>
<path d="M216.5 428.75C329.426 428.75 420.972 335.513 420.972 220.5C420.972 105.487 329.426 12.25 216.5 12.25C103.573 12.25 12.0273 105.487 12.0273 220.5C12.0273 335.513 103.573 428.75 216.5 428.75Z" fill="#313131"/>
<path d="M216.5 379.75C302.856 379.75 372.861 308.451 372.861 220.5C372.861 132.549 302.856 61.25 216.5 61.25C130.144 61.25 60.1387 132.549 60.1387 220.5C60.1387 308.451 130.144 379.75 216.5 379.75Z" fill="#AEB3B2"/>
<path d="M216.5 355.25C289.57 355.25 348.805 294.92 348.805 220.5C348.805 146.08 289.57 85.75 216.5 85.75C143.43 85.75 84.1943 146.08 84.1943 220.5C84.1943 294.92 143.43 355.25 216.5 355.25Z" fill="#313131"/>
<path d="M216.5 330.75C276.285 330.75 324.75 281.389 324.75 220.5C324.75 159.611 276.285 110.25 216.5 110.25C156.715 110.25 108.25 159.611 108.25 220.5C108.25 281.389 156.715 330.75 216.5 330.75Z" fill="#787878"/>
<path d="M216.5 294C256.356 294 288.666 261.093 288.666 220.5C288.666 179.907 256.356 147 216.5 147C176.643 147 144.333 179.907 144.333 220.5C144.333 261.093 176.643 294 216.5 294Z" fill="#313131"/>
<path d="M216.5 245C229.785 245 240.555 234.031 240.555 220.5C240.555 206.969 229.785 196 216.5 196C203.214 196 192.444 206.969 192.444 220.5C192.444 234.031 203.214 245 216.5 245Z" fill="#AEB3B2"/>
<path d="M216.5 232.75C223.143 232.75 228.528 227.265 228.528 220.5C228.528 213.735 223.143 208.25 216.5 208.25C209.858 208.25 204.473 213.735 204.473 220.5C204.473 227.265 209.858 232.75 216.5 232.75Z" fill="#E1E1E1"/>
<path d="M234.181 266.315C227.758 254.739 210.823 252.007 201.994 262.236C184.302 286.736 168.906 312.645 156.794 340.587C158.779 341.616 160.787 342.62 162.832 343.551C176.772 330.75 189.353 316.822 201.201 302.195H231.811C243.671 316.81 256.24 330.713 270.168 343.527C272.213 342.596 274.221 341.591 276.218 340.55C264.803 314.2 250.154 290.055 234.181 266.315ZM348.084 206.498C347.855 204.232 347.41 202.015 347.073 199.785C317.245 202.885 288.306 209.793 259.956 219.361C247.664 224.751 245.006 241.999 253.81 251.787C271.046 274.608 289.088 296.279 310.208 315.511C311.796 313.882 313.251 312.118 314.755 310.415C307.105 292.995 298.012 276.556 288.041 260.582L297.519 230.937C314.827 223.967 331.822 216.053 348.084 206.498ZM98.8682 159.115C123.345 173.607 149.132 184.375 175.75 194.016C187.417 199.602 203.065 191.455 204.135 178.054C204.316 147.649 201.814 117.465 195.487 87.6243C193.25 87.9918 191.013 88.298 188.812 88.7758C186.175 101.838 184.252 115.039 183.051 128.319C182.473 133.807 182.016 139.515 181.655 145.285L156.89 163.562C138.897 158.846 120.735 155.134 102.116 153.101C100.985 155.073 99.9026 157.07 98.8682 159.115ZM252.319 195.412C280.776 186.188 308.2 174.44 334.12 159.079C333.075 157.023 331.976 154.997 330.824 153.003C317.714 154.424 304.904 156.788 292.251 159.63C286.947 160.757 281.474 162.08 275.977 163.513L251.248 145.175C250.093 126.249 247.941 107.469 244.056 88.7513C241.891 88.2858 239.665 87.9795 237.464 87.6243C231.499 115.799 229.406 144.097 228.636 172.86C227.024 185.869 239.473 198.511 252.319 195.412ZM122.779 315.511C143.9 296.279 161.93 274.608 179.178 251.787C187.994 241.987 185.312 224.751 173.044 219.361C144.706 209.793 115.755 202.884 85.9264 199.798C85.5896 202.039 85.1445 204.244 84.916 206.51C101.178 216.066 118.173 223.979 135.481 230.937L144.959 260.582C134.988 276.556 125.907 292.995 118.245 310.415C119.748 312.118 121.192 313.882 122.779 315.511Z" fill="#AEB3B2"/>
<path d="M270.264 234.796C284.106 230.124 297.845 225.141 311.471 219.851C323.729 215.125 335.839 210.01 347.783 204.514C347.663 203.436 347.458 202.394 347.302 201.329C318.653 207.484 290.38 215.334 262.627 224.836C254.52 227.997 252.03 240.284 257.659 246.788C258.26 247.695 260.065 249.986 260.678 250.929C276.639 272.758 293.297 294.098 311.243 314.335C312.001 313.539 312.698 312.693 313.432 311.885C299.191 286.736 283.23 262.677 266.86 238.997C265.417 236.339 268.243 235.457 270.264 234.796ZM119.556 311.897C120.29 312.706 120.987 313.563 121.745 314.347C139.679 294.11 156.349 272.771 172.31 250.941C172.935 250.022 174.74 247.695 175.329 246.801C180.982 240.296 178.456 228.009 170.373 224.849C142.619 215.35 114.346 207.501 85.6979 201.341C85.5536 202.407 85.3491 203.448 85.2168 204.526C97.2085 209.989 109.284 215.196 121.541 219.863C135.167 225.151 148.906 230.134 162.748 234.808C164.769 235.457 167.583 236.351 166.14 239.01C149.77 262.689 133.797 286.748 119.556 311.897ZM231.27 272.709C230.609 271.815 228.997 269.353 228.335 268.508C224.005 261.023 211.749 259.663 206.3 266.523C188.858 290.468 172.794 315.422 158.189 341.26C159.14 341.738 160.09 342.216 161.052 342.669C169.862 332.813 178.366 322.678 186.551 312.277C195.698 300.708 204.597 288.937 213.24 276.972C214.467 275.221 216.175 272.758 218.208 274.988C235.287 298.177 252.824 321.097 271.924 342.669C272.898 342.204 273.872 341.726 274.835 341.236C261.496 317.63 246.714 294.906 231.27 272.709ZM99.5298 157.694C123.982 168.829 149.084 178.384 174.415 187.094C180.332 189.36 186.671 191.357 192.613 187.008C198.518 182.611 198.603 175.836 198.314 169.405C198.025 142.186 196.859 114.942 194.008 87.8325C192.95 88.0162 191.879 88.1142 190.833 88.3347C187.898 116.424 186.779 144.636 186.539 172.835C186.563 174.991 186.599 178.005 183.664 177.417C156.445 168.866 129.01 160.83 101.093 154.803C100.558 155.759 100.037 156.723 99.5298 157.694ZM234.686 169.417C234.71 170.532 234.59 173.497 234.638 174.575C233.82 183.223 242.949 191.651 251.32 189.373C279.276 180.437 306.698 169.851 333.446 157.67C332.951 156.719 332.442 155.775 331.919 154.84C319.083 157.539 306.336 160.652 293.694 164.174C279.618 168.056 265.626 172.251 251.729 176.755C249.721 177.441 246.918 178.409 246.557 175.383C246.124 146.363 245.15 117.269 242.143 88.347C241.109 88.1387 240.026 88.0407 238.98 87.857C236.165 114.966 234.999 142.198 234.686 169.417Z" fill="#E1E1E1"/>
</g>
<defs>
<clipPath id="clip0_539_856">
<rect width="433" height="441" fill="white"/>
</clipPath>
</defs>
</svg>
