<svg width="21" height="11" viewBox="0 0 21 11" fill="none" xmlns="http://www.w3.org/2000/svg">
<path d="M19.1542 10.4996H1.83245C1.47906 10.4996 1.14015 10.3942 0.890264 10.2067C0.640382 10.0191 0.5 9.76477 0.5 9.49954L0.5 5.2927H1.45992L1.67644 4.89935H2.16111L2.37708 5.29103H4.26582V4.9931L4.4346 5.29312H5.41506L5.58383 4.9881V5.29228H10.2768V4.64892H10.3656C10.4289 4.65059 10.4473 4.65476 10.4473 4.73393V5.29312H12.8751V5.14353C13.1233 5.23811 13.4158 5.29353 13.7262 5.29353L13.7789 5.29312H13.7761H14.7977L15.0164 4.90143H15.5011L15.7149 5.29312H17.6835V4.9206L17.9811 5.29312H19.5556V2.83301H17.9972V3.12344L17.779 2.83301H16.1768V3.12344L15.9763 2.83301H13.8128C13.485 2.82058 13.1584 2.87121 12.864 2.9801L12.8756 2.97635V2.83301H11.3833V2.97635C11.2027 2.8695 10.9745 2.81838 10.7454 2.83343H10.7487H5.29514L4.92927 3.46887L4.55341 2.83343H2.83566V3.12386L2.64635 2.83343H1.18066L0.501666 4.00015V1.50004C0.501666 1.23481 0.642048 0.98045 0.89193 0.792905C1.14181 0.605361 1.48072 0.5 1.83411 0.5H19.1559C19.5093 0.5 19.8482 0.605361 20.0981 0.792905C20.348 0.98045 20.4883 1.23481 20.4883 1.50004V5.86689H19.4485C19.4318 5.86606 19.4118 5.86606 19.3924 5.86606C19.1515 5.86606 18.9277 5.92023 18.7412 6.01315L18.7456 6.01106V5.86689H17.2078C16.9675 5.85693 16.7298 5.90817 16.5332 6.01231L16.5365 6.01065V5.86647H13.7906V6.01065C13.5658 5.9155 13.3119 5.86582 13.0539 5.86647H13.0322H13.0333H11.2217V6.01065C10.9851 5.89686 10.7042 5.84622 10.4245 5.86689L10.4295 5.86647H8.40251L7.93837 6.24316L7.50422 5.86647H4.47624V8.32824H7.44759L7.92561 7.94573L8.37586 8.32824H10.2074V7.75197H10.4628C10.7084 7.75917 10.9533 7.7284 11.1823 7.66155L11.1701 7.66488V8.32908H12.6802V7.6878H12.7529C12.8451 7.6878 12.8545 7.6903 12.8545 7.7603V8.32949H17.4437L17.4998 8.33033C17.7629 8.33033 18.0083 8.27116 18.2126 8.1699L18.2076 8.17199V8.32949H19.6633L19.7327 8.33033C20.0053 8.33033 20.2646 8.28824 20.5 8.21199L20.4872 8.21574V9.49996C20.4872 9.76519 20.3468 10.0196 20.097 10.2071C19.8471 10.3946 19.5082 10.5 19.1548 10.5L19.1542 10.4996ZM12.2172 7.98323H11.652V6.21857H12.9489C13.1832 6.20228 13.419 6.23185 13.6335 6.30441L13.6246 6.30191C13.7984 6.37358 13.9144 6.51025 13.9144 6.66692L13.9133 6.69484V6.69359L13.9138 6.70943C13.9138 6.91193 13.7512 7.08611 13.518 7.16194L13.5135 7.1632C13.6251 7.1932 13.7184 7.24445 13.7878 7.3107L13.7889 7.31153C13.8673 7.40892 13.9001 7.52316 13.8822 7.63613L13.8827 7.63363V7.98281H13.3187V7.76197C13.3454 7.64173 13.3132 7.5183 13.2282 7.41446L13.2298 7.41654C13.1712 7.38315 13.1042 7.35903 13.0328 7.34564C12.9615 7.33225 12.8872 7.32986 12.8146 7.33862L12.8179 7.3382H12.2172V7.98281V7.98323ZM12.2172 6.58317V6.97944H12.9001C12.9965 6.98612 13.0935 6.97317 13.181 6.94194L13.1777 6.94319C13.2134 6.92587 13.2428 6.90212 13.2631 6.8741C13.2835 6.84608 13.2942 6.81468 13.2942 6.78276L13.2937 6.77318C13.2964 6.74133 13.2871 6.70997 13.2668 6.68194C13.2464 6.65391 13.2159 6.63079 13.1788 6.61526L13.1777 6.61484C13.0934 6.58656 13.0008 6.57508 12.9089 6.5815H12.9112L12.2172 6.58317ZM7.20664 7.98281H4.98201V6.21857H7.24162L7.93282 6.79693L8.64735 6.21857H10.4423C11.0796 6.21857 11.3894 6.409 11.3894 6.79985C11.3894 7.19778 11.0691 7.39112 10.4123 7.39112H9.70997V7.9824H8.61792L7.92616 7.39945L7.2072 7.98281H7.20664ZM9.15034 6.40775L8.28759 7.10361L9.15034 7.82197V6.40775ZM5.54219 7.26403V7.61488H6.9235L7.56196 7.09736L6.94792 6.58317H5.54164V6.90402H6.77526V7.26362L5.54219 7.26403ZM9.70997 6.58359V7.03277H10.4356C10.6577 7.03277 10.7854 6.94777 10.7854 6.79943C10.7854 6.65776 10.6666 6.58317 10.4417 6.58317L9.70997 6.58359ZM19.7244 7.98365H18.6396V7.60446H19.72C19.8008 7.61283 19.8828 7.59696 19.9481 7.56029L19.9476 7.56071C19.9684 7.54619 19.9851 7.52859 19.9965 7.50901C20.0078 7.48944 20.0137 7.46831 20.0137 7.44696V7.44029C20.0137 7.4192 20.0076 7.39836 19.9958 7.37921C19.984 7.36007 19.9668 7.34309 19.9454 7.32945C19.8879 7.29829 19.8171 7.28432 19.7466 7.29028H19.7477L19.6439 7.28778C19.1365 7.27778 18.5618 7.26612 18.5618 6.74401C18.5618 6.48983 18.7739 6.21857 19.3674 6.21857H20.4872V6.59442H19.4629C19.3838 6.58777 19.3039 6.59971 19.2342 6.62859L19.2364 6.62776C19.209 6.6413 19.1869 6.66013 19.1726 6.68227C19.1582 6.70441 19.1521 6.72905 19.1548 6.75359V6.75318V6.75776C19.1548 6.78584 19.1666 6.8132 19.1885 6.83594C19.2105 6.85869 19.2414 6.87566 19.2769 6.88443L19.278 6.88485C19.3484 6.90114 19.4221 6.90791 19.4957 6.90485H19.494L19.7988 6.91068C20.0286 6.89348 20.2581 6.94482 20.4378 7.05361L20.4362 7.05277C20.4528 7.06277 20.4672 7.07361 20.48 7.08569L20.4806 7.08611L20.4872 7.7578C20.3939 7.83969 20.2751 7.90308 20.1414 7.94239C20.0077 7.9817 19.8631 7.99573 19.7205 7.98323L19.7244 7.98365ZM17.532 7.98365H16.4372V7.60446H17.5264C17.6079 7.61247 17.6904 7.59666 17.7568 7.56029L17.7557 7.56071C17.7764 7.54614 17.793 7.52852 17.8042 7.50895C17.8155 7.48938 17.8213 7.46828 17.8212 7.44696V7.44279C17.8212 7.42134 17.8151 7.40015 17.8033 7.38061C17.7916 7.36107 17.7744 7.34363 17.7529 7.32945C17.6945 7.29826 17.6227 7.28431 17.5514 7.29028H17.5525L17.4493 7.28778C16.9435 7.27778 16.3694 7.26612 16.3694 6.74401C16.3694 6.48983 16.5804 6.21857 17.1728 6.21857H18.2987V6.59442H17.2683C17.1897 6.58784 17.1103 6.59979 17.0412 6.62859L17.0434 6.62776C17.0143 6.64282 16.9911 6.66351 16.9763 6.68766C16.9615 6.7118 16.9557 6.73849 16.9594 6.76491C16.9632 6.79133 16.9763 6.8165 16.9976 6.83776C17.0188 6.85902 17.0473 6.87557 17.0801 6.88568L17.0812 6.8861C17.1525 6.90251 17.2271 6.90929 17.3016 6.9061H17.2999L17.6025 6.91193C17.8335 6.89523 18.064 6.94664 18.2454 7.05527L18.2437 7.05402C18.3047 7.1045 18.3511 7.16393 18.38 7.22855C18.4089 7.29317 18.4195 7.36158 18.4114 7.42946V7.42737C18.4131 7.7953 18.116 7.98281 17.5303 7.98281L17.532 7.98365ZM16.1007 7.98365H14.2242V6.21816H16.099V6.58275H14.7849V6.9036H16.0685V7.2632H14.7849V7.61405L16.1007 7.61571V7.9824V7.98365ZM17.1944 4.94769H16.0502L15.8314 4.55434H14.6644L14.4524 4.94769H13.795C13.4998 4.95937 13.2091 4.88956 12.9778 4.75143L12.9806 4.75268C12.8707 4.66164 12.7872 4.55441 12.7356 4.43783C12.684 4.32124 12.6653 4.19787 12.6808 4.07557L12.6802 4.0789C12.6659 3.95434 12.6855 3.82891 12.7378 3.71022C12.7901 3.59152 12.874 3.48205 12.9845 3.38845L12.9833 3.38929C13.0999 3.31278 13.2362 3.25509 13.3838 3.21982C13.5314 3.18456 13.687 3.17246 13.8411 3.18428L13.8367 3.18386H14.3807V3.56013H13.8478C13.7698 3.55259 13.6905 3.55805 13.6157 3.57613C13.5408 3.59421 13.4722 3.62445 13.4147 3.66472L13.4153 3.6643C13.2966 3.77839 13.239 3.92165 13.2537 4.06598V4.0639C13.236 4.21218 13.2915 4.36018 13.4097 4.47975L13.4081 4.47808C13.5184 4.54578 13.6597 4.57838 13.8017 4.56892H13.7995H14.0515L14.846 3.18136H15.6899L16.6409 4.8481V3.18136H17.4964L18.4836 4.40975V3.18136H19.061V4.94477H18.2593L17.1933 3.62055V4.94477L17.1944 4.94769ZM15.2518 3.48179L14.8649 4.18515H15.6405L15.2518 3.48179ZM9.81157 4.94685H9.24972V3.18261H10.5422C10.7781 3.16424 11.0163 3.19434 11.2312 3.2697L11.2229 3.2672C11.3093 3.30306 11.3813 3.35564 11.4315 3.41946C11.4817 3.48328 11.5082 3.55602 11.5082 3.63013L11.5071 3.6593V3.65805V3.67097C11.5071 3.7672 11.4702 3.8614 11.4007 3.94226C11.3311 4.02312 11.232 4.0872 11.1151 4.12682L11.1107 4.12807C11.2223 4.15974 11.3161 4.21057 11.3877 4.27557L11.3889 4.27641C11.4681 4.37415 11.5008 4.48918 11.4816 4.60267L11.4821 4.60017V4.94644H10.9153L10.9131 4.72393V4.69059C10.9332 4.58179 10.9011 4.47116 10.8226 4.3785L10.8242 4.38058C10.7654 4.34816 10.6986 4.3248 10.6278 4.31185C10.5569 4.29891 10.4832 4.29663 10.4112 4.30516L10.4145 4.30474H9.81213V4.94644L9.81157 4.94685ZM9.81157 3.54971V3.94139H10.4933C10.5896 3.94924 10.6869 3.93622 10.7737 3.90389L10.7709 3.90473C10.8065 3.8885 10.8359 3.86568 10.8563 3.83846C10.8767 3.81124 10.8875 3.78054 10.8875 3.7493L10.887 3.73764C10.8898 3.70597 10.8802 3.6748 10.8594 3.64718C10.8386 3.61956 10.8074 3.59712 10.7698 3.58263L10.7687 3.58221C10.6842 3.55501 10.5922 3.54357 10.5006 3.54888H10.5022L9.81157 3.54971ZM3.8622 4.94685H2.72074L2.50477 4.5535H1.33444L1.11681 4.94685H0.506107L1.51266 3.18261H2.3471L3.30258 4.85226V3.18261H4.21919L4.95425 4.37891L5.62991 3.18261H6.5654V4.94602H5.98801L5.9869 3.56596L5.17244 4.94644H4.67944L3.86276 3.56388V4.94644L3.8622 4.94685ZM1.91683 3.48179L1.53431 4.18515H2.30158L1.91683 3.48179ZM12.4032 4.94644H11.8302V3.18261H12.4037V4.94602L12.4032 4.94644ZM8.85776 4.94644H6.98457V3.18261H8.86109V3.54929H7.54641V3.86722H8.82945V4.22932H7.5453V4.58184H8.85998V4.94602L8.85776 4.94644Z" fill="#9A9796"/>
</svg>
