<svg width="36" height="26" viewBox="0 0 36 26" fill="none" xmlns="http://www.w3.org/2000/svg">
<path d="M22.5295 24.5559C22.5295 24.5559 22.2169 24.5655 21.9724 24.5559C21.3665 24.5559 20.7118 24.0974 20.7118 23.3553C20.7118 22.6229 21.3568 22.1836 21.9724 22.1836C21.982 22.1836 22.2849 22.174 22.5295 22.1836C23.1547 22.1836 23.7901 22.6229 23.7901 23.3553C23.7894 24.0967 23.1347 24.5559 22.5295 24.5559ZM23.1155 21.7244C22.2554 21.7051 21.3761 21.7244 21.3665 21.7244C20.3113 21.7244 19.4512 22.4568 19.4512 23.3546C19.4512 24.2628 20.3113 25.0144 21.3665 25.0144C21.3761 25.0144 22.2554 25.0337 23.1155 25.0144C24.1707 25.0144 25.0308 24.2724 25.0308 23.3546C25.0404 22.4664 24.1899 21.7443 23.1155 21.7244Z" fill="white"/>
<path d="M34.3531 24.9654H35.4275V23.4031C35.4275 22.4853 34.6066 21.7728 33.5617 21.7728H30.8358C30.787 21.7728 30.6895 21.7824 30.6895 21.8902V24.8481C30.6895 24.9263 30.7478 24.9654 30.8069 24.9654H31.9501V22.4956C31.9501 22.3886 32.0284 22.3295 32.1163 22.3295H33.3666C33.7183 22.3295 34.2267 22.6419 34.2267 23.3152V24.8384C34.226 24.8384 34.226 24.9654 34.3531 24.9654Z" fill="white"/>
<path d="M11.6308 22.3992H13.3111V21.8913C13.3111 21.8226 13.2623 21.7643 13.1936 21.7643H8.51396C8.43564 21.7643 8.39648 21.8226 8.39648 21.8913V22.3992H9.52037C9.9408 22.3992 10.2238 22.7603 10.2238 23.0925V24.8402C10.2238 24.8985 10.2726 24.9576 10.3509 24.9576H11.4844V22.5557C11.4645 22.4775 11.5428 22.3992 11.6308 22.3992Z" fill="white"/>
<path d="M6.45117 24.8432C6.45117 24.9118 6.51987 24.9606 6.57826 24.9606C6.58788 24.9606 7.71177 24.9606 7.71177 24.9606V21.8853C7.71177 21.8167 7.65338 21.7679 7.58468 21.7679H6.57826C6.50956 21.7679 6.45117 21.8263 6.45117 21.8853V24.8432Z" fill="white"/>
<path d="M15.2393 23.2711V22.6368C15.2393 22.4611 15.3664 22.3437 15.5422 22.3437H17.2129C17.4671 22.3437 17.6821 22.5585 17.6821 22.8125C17.6821 23.0761 17.4671 23.2814 17.2129 23.2814H15.2393V23.2711ZM17.6821 24.97H18.9324C18.9029 24.1401 18.0043 23.7982 18.0043 23.7982C18.5711 23.6713 18.9324 23.2711 18.9324 22.8022C18.9324 22.3046 18.444 21.7671 17.6622 21.7671H14.643C14.2816 21.7671 13.9883 22.0499 13.9883 22.4213V24.8423C13.9883 24.911 14.0371 24.9693 14.1058 24.9693H15.2393V23.8367H16.3137C17.2617 23.8374 17.6526 24.5211 17.6821 24.97Z" fill="white"/>
<mask id="mask0_583_1431" style="mask-type:luminance" maskUnits="userSpaceOnUse" x="0" y="0" width="36" height="26">
<path d="M35.4348 0.19751H0.261719V25.0533H35.4348V0.19751Z" fill="white"/>
</mask>
<g mask="url(#mask0_583_1431)">
<path d="M4.54533 22.8378C4.54533 22.8378 5.70769 22.8378 5.76677 22.8378C5.50297 22.1644 4.73081 21.6956 3.9298 21.6956C3.49014 21.6956 2.69874 21.6661 2.18076 21.6956C1.57485 21.7251 1.19427 21.8617 0.822613 22.1837C0.461265 22.496 0.255859 22.9161 0.255859 23.3554C0.255859 24.2732 1.06649 24.9857 2.15122 25.0248C2.89384 25.0543 2.97216 25.0543 3.93942 25.0248C4.83798 24.9953 5.48305 24.5951 5.76677 23.8826C5.70838 23.8826 4.54533 23.8826 4.54533 23.8826C4.49655 23.8826 4.46701 23.9018 4.43816 23.9409C4.21352 24.3219 3.8034 24.5464 3.34381 24.556C3.18718 24.556 2.97284 24.556 2.77706 24.556C2.14229 24.5464 1.51646 24.1071 1.51646 23.3554C1.51646 22.6134 2.16153 22.1644 2.78667 22.1644C2.85537 22.1644 3.10887 22.1548 3.33351 22.1644C3.78279 22.1644 4.22245 22.4088 4.43747 22.7795C4.44778 22.7987 4.47732 22.8378 4.54533 22.8378Z" fill="white"/>
</g>
<path d="M30.0239 24.3903C30.0239 24.3903 29.8673 24.3903 27.0637 24.3903C26.9662 24.3903 26.8975 24.3217 26.8975 24.2338V23.6284H29.4668V23.0717H26.8975V22.515C26.8975 22.515 26.8975 22.3489 27.0926 22.3489H30.0335V21.8999C30.0335 21.7729 29.8968 21.7729 29.8872 21.7729H25.7736C25.764 21.7729 25.6465 21.7729 25.6465 21.8999V24.321C25.6465 24.6429 25.891 24.9752 26.3012 24.9752H29.9064C30.004 24.9752 30.0335 24.8873 30.0335 24.8578V24.389" fill="white"/>
<path d="M29.101 20.6115C28.9835 20.5332 28.8372 20.5044 28.6614 20.5044C28.4951 20.5044 28.3392 20.5435 28.2217 20.6115C28.1042 20.6794 28.0163 20.7776 27.8796 20.7776C27.7429 20.7776 27.6646 20.6801 27.5375 20.6115C27.4104 20.5428 27.2737 20.5044 27.0978 20.5044C26.9316 20.5044 26.7852 20.5435 26.6581 20.6115C26.5407 20.6801 26.4727 20.7776 26.4727 20.8751C26.4727 20.9822 26.531 21.07 26.6581 21.1387C26.7756 21.2169 26.9219 21.2457 27.0978 21.2457C27.2641 21.2457 27.4104 21.2066 27.5278 21.1483C27.635 21.0796 27.7525 20.9725 27.8796 20.9725C28.0067 20.9725 28.1138 21.07 28.2217 21.1387C28.3295 21.2073 28.4855 21.2457 28.6614 21.2457C28.8372 21.2457 28.9835 21.2066 29.101 21.1387C29.2185 21.0604 29.2769 20.9725 29.2769 20.8751C29.2865 20.7776 29.2281 20.6794 29.101 20.6115Z" fill="white"/>
<path d="M17.843 5.15447C20.4713 5.15447 26.8121 10.5924 27.6035 11.2857C27.6523 11.3344 27.7306 11.3928 27.8673 11.3736C28.0624 11.3543 28.0727 11.0516 28.0727 11.0516C28.0727 11.0516 28.1215 10.3583 28.1215 9.66503C28.1215 8.7864 27.4373 8.02514 27.4373 8.02514C27.4373 8.02514 20.3346 0.20459 17.843 0.20459C15.3513 0.20459 8.24868 8.02445 8.24868 8.02445C8.24868 8.02445 7.56445 8.79601 7.56445 9.66435C7.56445 10.3576 7.61323 11.0509 7.61323 11.0509C7.61323 11.0509 7.62285 11.3537 7.81863 11.3729C7.95534 11.3921 8.03366 11.3241 8.08243 11.285C8.88413 10.5924 15.2249 5.15447 17.843 5.15447Z" fill="#231F20"/>
<path d="M17.843 12.3464C20.4713 12.3464 26.8121 17.7843 27.6035 18.4776C27.6523 18.5264 27.7306 18.5847 27.8673 18.5655C28.0624 18.5463 28.0727 18.2436 28.0727 18.2436C28.0727 18.2436 28.1215 17.5503 28.1215 16.857C28.1215 15.9783 27.4373 15.2171 27.4373 15.2171C27.4373 15.2171 20.3346 7.39722 17.843 7.39722C15.3513 7.39722 8.24868 15.2171 8.24868 15.2171C8.24868 15.2171 7.56445 15.9886 7.56445 16.857C7.56445 17.5503 7.61323 18.2436 7.61323 18.2436C7.61323 18.2436 7.62285 18.5463 7.81863 18.5655C7.95534 18.5847 8.03366 18.5168 8.08243 18.4776C8.88413 17.7843 15.2249 12.3464 17.843 12.3464Z" fill="#231F20"/>
<path d="M10.6383 6.8359C9.20187 8.01725 8.08828 9.12996 7.70701 9.52054C7.68778 9.99899 7.74617 11.0334 7.74617 11.0334C7.74617 11.0334 7.75579 11.4041 8.01959 11.17L8.28338 10.936C11.146 8.31928 14.0966 6.02522 16.4515 5.00037C16.6178 4.93173 16.8912 4.88299 16.7545 4.69765C16.6762 4.60018 16.3931 4.58027 16.2173 4.59057C13.7744 4.74708 10.7455 6.75764 10.6383 6.8359Z" fill="url(#paint0_linear_583_1431)"/>
<path d="M25.0555 6.8359C26.492 8.01725 27.6056 9.12996 27.9869 9.52054C28.0061 9.99899 27.9477 11.0334 27.9477 11.0334C27.9477 11.0334 27.9381 11.4041 27.6743 11.17L27.4105 10.936C24.5479 8.31928 21.6069 6.02522 19.2424 5.00037C19.0761 4.93173 18.8027 4.88299 18.9394 4.69765C19.0177 4.60018 19.3007 4.58027 19.4766 4.59057C21.9195 4.74708 24.9484 6.75764 25.0555 6.8359Z" fill="url(#paint1_linear_583_1431)"/>
<path d="M10.6383 14.0313C9.20187 15.2127 8.08828 16.3254 7.70701 16.716C7.68778 17.1944 7.74617 18.2289 7.74617 18.2289C7.74617 18.2289 7.75579 18.5996 8.01959 18.3655L8.28338 18.1314C11.146 15.5147 14.0966 13.2207 16.4515 12.1958C16.6178 12.1272 16.8912 12.0784 16.7545 11.8931C16.6762 11.7956 16.3931 11.7757 16.2173 11.786C13.7744 11.9418 10.7455 13.9531 10.6383 14.0313Z" fill="url(#paint2_linear_583_1431)"/>
<path d="M25.0555 14.0311C26.492 15.2124 27.6056 16.3252 27.9869 16.7157C28.0061 17.1942 27.9477 18.2286 27.9477 18.2286C27.9477 18.2286 27.9381 18.5993 27.6743 18.3652L27.4105 18.1312C24.5479 15.5145 21.6069 13.2204 19.2424 12.1956C19.0761 12.1269 18.8027 12.0782 18.9394 11.8928C19.0177 11.7954 19.3007 11.7755 19.4766 11.7858C21.9195 11.9416 24.9484 13.9528 25.0555 14.0311Z" fill="url(#paint3_linear_583_1431)"/>
<path d="M27.3456 8.1052C27.2576 8.00773 20.2526 0.324463 17.8488 0.324463C15.4451 0.324463 8.44003 8.00773 8.3521 8.1052C8.34248 8.11481 7.77573 8.76898 7.70703 9.52063C8.0883 9.13005 9.20189 8.01734 10.6384 6.83598C10.6384 6.83598 11.0684 6.47492 11.7231 5.97657C13.1692 4.89269 15.7192 3.18415 17.8488 3.18415C19.9785 3.18415 22.5285 4.88308 23.9746 5.97657C24.6293 6.46462 25.0593 6.83598 25.0593 6.83598C26.4958 8.01734 27.6094 9.13005 27.9906 9.52063C27.9219 8.76898 27.3552 8.11481 27.3456 8.1052Z" fill="url(#paint4_linear_583_1431)"/>
<path d="M27.3456 15.3005C27.2576 15.203 20.2526 7.51978 17.8488 7.51978C15.4451 7.51978 8.44003 15.203 8.3521 15.3005C8.34248 15.3101 7.77573 15.9643 7.70703 16.7159C8.0883 16.3254 9.20189 15.2127 10.6384 14.0313C10.6384 14.0313 11.0684 13.6702 11.7231 13.1719C13.1692 12.088 15.7192 10.3795 17.8488 10.3795C19.9785 10.3795 22.5285 12.0784 23.9746 13.1719C24.6293 13.6599 25.0593 14.0313 25.0593 14.0313C26.4958 15.2127 27.6094 16.3254 27.9906 16.7159C27.9219 15.9643 27.3552 15.3101 27.3456 15.3005Z" fill="url(#paint5_linear_583_1431)"/>
<path d="M27.4538 8.59357C23.516 4.08301 19.2272 0.617199 17.9962 0.558852C17.8203 0.549242 17.8203 0.724969 17.8203 0.724969C17.8203 2.20904 17.9082 2.47263 18.9243 2.86321C19.061 2.92156 22.8909 4.06379 27.4538 8.72056L27.5225 8.7892L27.4538 8.59357Z" fill="url(#paint6_linear_583_1431)"/>
<path d="M27.4538 15.7884C23.516 11.2778 19.2272 7.81202 17.9962 7.75368C17.8203 7.74407 17.8203 7.91979 17.8203 7.91979C17.8203 9.40386 17.9082 9.66746 18.9243 10.058C19.061 10.1164 22.8909 11.2586 27.4538 15.9154L27.5225 15.984L27.4538 15.7884Z" fill="url(#paint7_linear_583_1431)"/>
<defs>
<linearGradient id="paint0_linear_583_1431" x1="7.71588" y1="7.88902" x2="28.0742" y2="8.02618" gradientUnits="userSpaceOnUse">
<stop stop-color="#B2AAAE"/>
<stop offset="0.5" stop-color="#655B5F"/>
<stop offset="0.9944" stop-color="#D8D4D6"/>
<stop offset="1" stop-color="#D8D4D6"/>
</linearGradient>
<linearGradient id="paint1_linear_583_1431" x1="7.15584" y1="7.91832" x2="28.1695" y2="7.91832" gradientUnits="userSpaceOnUse">
<stop stop-color="#B2AAAE"/>
<stop offset="0.5" stop-color="#655B5F"/>
<stop offset="0.9944" stop-color="#D8D4D6"/>
<stop offset="1" stop-color="#D8D4D6"/>
</linearGradient>
<linearGradient id="paint2_linear_583_1431" x1="7.70631" y1="15.1056" x2="28.1775" y2="15.142" gradientUnits="userSpaceOnUse">
<stop stop-color="#B2AAAE"/>
<stop offset="0.5" stop-color="#655B5F"/>
<stop offset="0.9944" stop-color="#D8D4D6"/>
<stop offset="1" stop-color="#D8D4D6"/>
</linearGradient>
<linearGradient id="paint3_linear_583_1431" x1="7.31074" y1="15.113" x2="28.1695" y2="15.113" gradientUnits="userSpaceOnUse">
<stop stop-color="#B2AAAE"/>
<stop offset="0.5" stop-color="#655B5F"/>
<stop offset="0.9944" stop-color="#D8D4D6"/>
<stop offset="1" stop-color="#D8D4D6"/>
</linearGradient>
<linearGradient id="paint4_linear_583_1431" x1="7.70836" y1="5.10832" x2="27.9887" y2="4.86027" gradientUnits="userSpaceOnUse">
<stop stop-color="#655B5F"/>
<stop offset="0.5" stop-color="white"/>
<stop offset="1" stop-color="#655B5F"/>
</linearGradient>
<linearGradient id="paint5_linear_583_1431" x1="7.38741" y1="12.1178" x2="28.1686" y2="12.1178" gradientUnits="userSpaceOnUse">
<stop stop-color="#655B5F"/>
<stop offset="0.5" stop-color="white"/>
<stop offset="1" stop-color="#655B5F"/>
</linearGradient>
<linearGradient id="paint6_linear_583_1431" x1="17.7396" y1="4.67379" x2="27.6754" y2="4.67375" gradientUnits="userSpaceOnUse">
<stop stop-color="#F0EEEF"/>
<stop offset="0.2809" stop-color="#655B5F"/>
<stop offset="0.5899" stop-color="#8B8186"/>
<stop offset="1" stop-color="#655B5F"/>
</linearGradient>
<linearGradient id="paint7_linear_583_1431" x1="17.7801" y1="11.7753" x2="27.4791" y2="11.9573" gradientUnits="userSpaceOnUse">
<stop stop-color="#F0EEEF"/>
<stop offset="0.2809" stop-color="#655B5F"/>
<stop offset="0.5899" stop-color="#8B8186"/>
<stop offset="1" stop-color="#655B5F"/>
</linearGradient>
</defs>
</svg>
