<svg width="21" height="11" viewBox="0 0 21 11" fill="none" xmlns="http://www.w3.org/2000/svg">
<path d="M1.1236 8.51016C1.03484 8.3658 0.914185 8.13482 0.841642 7.96489C0.412751 6.96468 0.39222 5.92961 0.754454 4.936C1.15269 3.84628 1.91342 3.01201 2.89638 2.58725C4.13213 2.05305 5.49888 2.15836 6.68324 2.86428C7.43563 3.29785 7.96902 3.96727 8.37403 4.91372L8.4116 5.00577L8.48168 5.18863C8.49297 5.21812 8.50406 5.24678 8.51514 5.27428L1.1236 8.51016ZM3.59176 4.19288C2.7142 4.57173 2.26183 5.39864 2.35477 6.36819L6.07224 4.76111C5.43297 4.00638 4.60092 3.7563 3.59176 4.19288ZM7.97265 8.65459L6.53576 7.68957L6.5337 7.6917L6.45671 7.6396C6.23498 8.00119 5.88876 8.29403 5.45207 8.48424C4.62111 8.84721 3.85107 8.75392 3.2981 8.26674L3.24725 8.34442C3.2467 8.34353 3.24657 8.34284 3.24561 8.34284L2.30255 9.76012C2.53715 9.92387 2.7884 10.0621 3.05207 10.1726C4.09388 10.6072 5.15978 10.5871 6.20986 10.1284C6.96944 9.79772 7.56538 9.29356 7.97265 8.65452V8.65459ZM11.0987 0.5V8.37934L12.3182 8.8758L11.6252 10.5L10.2791 9.93692C9.97688 9.80556 9.77129 9.60435 9.61553 9.37736C9.46668 9.14597 9.35534 8.82837 9.35534 8.40079V0.5H11.0987ZM14.2581 6.37204C14.2587 5.70111 14.5537 5.0994 15.0204 4.69045L13.7692 3.28905C12.9206 4.04247 12.3861 5.14346 12.3852 6.37012C12.3838 7.59718 12.9175 8.69927 13.7652 9.45469L15.015 8.05192C14.5505 7.64138 14.2575 7.04146 14.2581 6.37204ZM16.4811 8.60846C16.2348 8.60778 15.9975 8.56687 15.7762 8.49291L15.1787 10.2775C15.5979 10.4186 16.0371 10.4907 16.4792 10.491C18.4603 10.4929 20.1146 9.08094 20.4979 7.2039L18.6613 6.82719C18.4524 7.84459 17.5555 8.60915 16.4811 8.60846ZM16.4866 2.25735C16.0451 2.25648 15.6063 2.32742 15.1874 2.46743L15.7797 4.25365C16.0072 4.17803 16.2452 4.13946 16.4848 4.1394C17.5618 4.14043 18.4592 4.90953 18.6632 5.92982L20.5 5.55558C20.122 3.6758 18.4694 2.25859 16.4866 2.25735Z" fill="#9A9796" fill-opacity="0.8"/>
</svg>
