<svg width="24" height="24" viewBox="0 0 24 24" fill="none" xmlns="http://www.w3.org/2000/svg">
<path d="M2.9538 12.2599C3.03983 13.4521 3.5234 14.2205 3.96712 15.1147C3.46363 12.9821 3.32463 11.0746 3.37081 9.12717C3.29792 9.03435 3.17884 9.08732 3.0593 9.21999C2.98052 9.90232 2.87457 11.1674 2.9538 12.2599Z" fill="url(#paint0_linear_583_1500)"/>
<path d="M7.90164 20.0626C8.75603 20.2678 9.9482 20.4602 11.4387 20.4602C12.9424 20.4602 15.7773 20.1423 16.8168 19.1951C17.6314 18.4535 17.9628 17.2015 18.3667 15.6118C19.3207 11.8565 19.069 9.56452 18.8634 6.88225C18.6583 4.20633 14.088 3.51086 11.4451 3.51086C9.13999 3.51086 4.1395 4.20633 3.93394 6.97507C3.73517 9.651 3.69532 12.3201 4.55651 15.6055C5.21258 18.1352 5.50372 19.4799 7.90164 20.0626Z" fill="url(#paint1_radial_583_1500)"/>
<path d="M11.5911 0C5.18613 0 0 5.18613 0 11.5911C0 17.9894 5.18613 23.1823 11.5911 23.1823C17.9894 23.1823 23.1823 17.9961 23.1823 11.5911C23.1823 5.18613 17.9894 0 11.5911 0ZM11.7102 22.5796C5.21918 22.5796 0.476776 18.1021 0.476776 11.8297C0.476776 4.4644 5.28529 0.477229 11.7102 0.477229C18.7378 0.477229 22.6919 5.55741 22.6919 11.8297C22.6919 18.1021 17.6647 22.5796 11.7102 22.5796Z" fill="url(#paint2_linear_583_1500)"/>
<path d="M9.16055 20.3407C9.14062 20.3407 9.12749 20.3275 9.1207 20.3076C8.66385 16.6582 8.06754 7.33234 8.24639 3.84142C8.24639 3.82149 8.26631 3.80157 8.28623 3.80836C8.30615 3.80836 8.32608 3.82828 8.31928 3.84821C8.14044 7.33234 8.73675 16.6514 9.1936 20.3008C9.20039 20.3144 9.18726 20.3343 9.16055 20.3407Z" fill="#6D0115"/>
<path d="M10.5575 20.4733C10.5376 20.4733 10.5177 20.4602 10.5177 20.4335C10.4448 18.2941 10.0939 7.43826 10.0273 3.5833C10.0273 3.56338 10.0405 3.54346 10.0672 3.54346C10.0871 3.54346 10.107 3.55659 10.107 3.5833C10.1731 7.4446 10.5308 18.3009 10.5974 20.4335C10.5974 20.4534 10.5775 20.4733 10.5575 20.4733Z" fill="#6D0115"/>
<path d="M10.1869 20.4466C10.167 20.4466 10.1471 20.4334 10.1471 20.4067C10.0611 18.2936 9.63726 7.53738 9.55078 3.62944C9.55078 3.60952 9.56391 3.5896 9.59063 3.5896C9.61055 3.5896 9.63047 3.60273 9.63047 3.62944C9.7165 7.53738 10.1403 18.294 10.2268 20.4067C10.22 20.4334 10.2069 20.4466 10.1869 20.4466Z" fill="#6D0115"/>
<path d="M11.2993 20.4932C11.2794 20.4932 11.2595 20.4733 11.2595 20.4533C11.2595 20.3275 11.0145 7.63698 10.8887 3.52349C10.8887 3.50356 10.9018 3.48364 10.9285 3.48364C10.9484 3.48364 10.9684 3.49677 10.9684 3.52349C11.0942 7.64332 11.3392 20.3275 11.3392 20.4533C11.3392 20.4801 11.3261 20.4932 11.2993 20.4932Z" fill="#6D0115"/>
<path d="M10.9752 20.4864C10.9553 20.4864 10.9354 20.4733 10.9354 20.4466C10.8625 18.3271 10.5048 7.54422 10.5179 3.53667C10.5179 3.51675 10.5379 3.49683 10.5578 3.49683C10.5777 3.50362 10.5976 3.51675 10.5976 3.53667C10.5845 7.54376 10.9422 18.3203 11.0151 20.4398C11.0146 20.4733 10.9947 20.4864 10.9752 20.4864Z" fill="#6D0115"/>
<path d="M8.76284 20.2745C8.74292 20.2745 8.72979 20.2614 8.723 20.2415C8.62384 19.2743 8.13348 14.3268 8.00082 11.9887C7.87494 9.77638 7.73594 5.64342 7.78892 3.94097C7.78892 3.92105 7.80884 3.90112 7.82876 3.90112C7.84868 3.90112 7.86861 3.92105 7.86861 3.94097C7.81563 5.64342 7.95463 9.76959 8.08051 11.9819C8.21317 14.32 8.70308 19.2612 8.80269 20.2283C8.80224 20.2546 8.78231 20.2745 8.76284 20.2745Z" fill="#6D0115"/>
<path d="M9.86255 20.4203C9.84263 20.4203 9.8295 20.4071 9.82271 20.3872C9.43196 16.5454 9.13403 5.80909 9.08105 3.69597C9.08105 3.67605 9.09419 3.65613 9.1209 3.65613C9.14082 3.65613 9.16074 3.66926 9.16074 3.69597C9.21372 5.80909 9.51844 16.539 9.9024 20.3804C9.9024 20.4003 9.88881 20.4203 9.86255 20.4203Z" fill="#6D0115"/>
<path d="M9.49747 20.3805C9.47755 20.3805 9.46442 20.3674 9.45762 20.3475C9.06008 16.5256 8.71597 5.86171 8.64941 3.76897C8.64941 3.74905 8.66254 3.72913 8.68926 3.72913C8.70918 3.72913 8.7291 3.74226 8.7291 3.76897C8.79521 5.86851 9.13977 16.526 9.53731 20.3411C9.53731 20.3606 9.52418 20.3805 9.49747 20.3805Z" fill="#6D0115"/>
<path d="M8.39144 20.2084C8.37152 20.2084 8.35839 20.1952 8.3516 20.1753C7.94093 16.7111 7.18569 10.2667 7.3582 4.06047C7.3582 4.04055 7.37133 4.02063 7.39804 4.02063C7.41797 4.02063 7.43789 4.04055 7.43789 4.06047C7.26583 10.2599 8.02741 16.7048 8.43129 20.169C8.43129 20.1885 8.41816 20.2084 8.39144 20.2084Z" fill="#6D0115"/>
<path d="M6.57679 19.5858C6.55687 19.5858 6.54374 19.5727 6.53695 19.5591C4.9074 12.4717 5.12609 6.59693 5.23204 4.96738C5.23204 4.94746 5.25196 4.93433 5.27189 4.93433C5.29181 4.93433 5.31173 4.95425 5.30494 4.97417C5.19899 6.60372 4.97396 12.4722 6.60985 19.5459C6.61664 19.5659 6.60306 19.5858 6.58313 19.5921L6.57679 19.5858Z" fill="#6D0115"/>
<path d="M5.63653 18.6916C5.6234 18.6916 5.60982 18.6848 5.60348 18.6717C5.1267 17.9694 4.8813 17.0159 4.56345 15.8038L4.51726 15.6182C3.69592 12.4854 3.676 9.89549 3.89469 6.97462C3.89469 6.95469 3.91461 6.93477 3.93454 6.94156C3.95446 6.94156 3.97438 6.96149 3.96759 6.98141C3.7489 9.89594 3.77561 12.479 4.59016 15.5987L4.63634 15.7843C4.92114 16.8837 5.15296 17.7779 5.5505 18.4471C4.06675 11.2009 4.21933 7.16071 4.35834 5.74985C4.35834 5.72993 4.37826 5.7168 4.39818 5.7168C4.4181 5.7168 4.43123 5.73672 4.43123 5.75664C4.29223 7.17429 4.13964 11.2674 5.66325 18.6396C5.67004 18.6595 5.65645 18.6726 5.64332 18.6794L5.63653 18.6916Z" fill="#6D0115"/>
<path d="M6.12017 19.2481C6.10025 19.2481 6.08712 19.235 6.08033 19.215C4.49062 12.0883 4.66268 6.78263 4.7555 5.33238C4.7555 5.31246 4.77542 5.29254 4.79534 5.29933C4.81527 5.29933 4.83519 5.31925 4.8284 5.33917C4.73558 6.78988 4.56352 12.082 6.15323 19.2024C6.16002 19.2223 6.14644 19.2422 6.12651 19.2485L6.12017 19.2481Z" fill="#6D0115"/>
<path d="M8.04782 20.1355C8.0279 20.1355 8.01477 20.1224 8.00798 20.1025C7.19343 15.4262 6.77597 7.69681 6.96161 4.17284C6.96161 4.15291 6.98153 4.13299 7.00145 4.13978C7.02137 4.13978 7.0413 4.15971 7.0345 4.17963C6.84887 7.70315 7.25954 15.4199 8.07454 20.0894C8.08722 20.1088 8.07408 20.1288 8.04782 20.1355Z" fill="#6D0115"/>
<path d="M7.67056 20.0359C7.65064 20.0359 7.63751 20.0228 7.63071 20.0028C6.69029 15.4325 6.35886 7.09367 6.53771 4.31859C6.53771 4.29867 6.55763 4.27874 6.57755 4.28554C6.59747 4.28554 6.61739 4.30546 6.6106 4.32538C6.43176 7.10046 6.76953 15.4262 7.70361 19.9902C7.7104 20.0101 7.69682 20.03 7.6769 20.0363H7.67056V20.0359Z" fill="#6D0115"/>
<path d="M7.33262 19.9299C7.3127 19.9299 7.29957 19.9168 7.29277 19.8969C5.86199 11.8229 6.02092 5.66287 6.06755 4.51055C6.06755 4.49063 6.08748 4.4707 6.1074 4.4707C6.12732 4.4707 6.14724 4.49063 6.14724 4.51055C6.10106 5.66287 5.93534 11.8161 7.36612 19.8837C7.37246 19.9037 7.35254 19.9236 7.33262 19.9299Z" fill="#6D0115"/>
<path d="M6.97492 19.7909C6.955 19.7909 6.94187 19.7778 6.93508 19.7579C5.43819 13.0482 5.59033 6.05363 5.63696 4.72246C5.63696 4.70254 5.65689 4.68262 5.67681 4.68262C5.69673 4.68262 5.71665 4.70254 5.71665 4.72246C5.67047 6.05363 5.52467 13.035 7.01477 19.738C7.02156 19.7579 7.00798 19.7778 6.98805 19.7841L6.97492 19.7909Z" fill="#6D0115"/>
<path d="M12.1014 20.4801C12.0815 20.4801 12.0616 20.4602 12.0616 20.4402C12.0484 16.9031 11.9094 6.78942 11.8564 3.52398C11.8564 3.50405 11.8696 3.48413 11.8963 3.48413C11.9162 3.48413 11.9361 3.50405 11.9361 3.52398C11.9823 6.78942 12.1281 16.9036 12.1412 20.4402C12.1412 20.4602 12.1281 20.4801 12.1014 20.4801Z" fill="#6D0115"/>
<path d="M11.6773 20.4932C11.6574 20.4932 11.6375 20.4733 11.6375 20.4534C11.6244 17.5058 11.4256 5.82186 11.3857 3.51043C11.3857 3.49729 11.3925 3.4905 11.3989 3.48371C11.4057 3.47692 11.4188 3.47058 11.4256 3.47058H11.4455C11.4654 3.47058 11.4854 3.4905 11.4854 3.51043C11.4854 3.52356 11.4786 3.53714 11.4654 3.54348C11.5053 5.9346 11.704 17.5189 11.7172 20.4534C11.7104 20.4733 11.6973 20.4932 11.6773 20.4932Z" fill="#6D0115"/>
<path d="M16.0086 19.718C15.9819 19.7113 15.9688 19.6913 15.9688 19.6719C17.3067 11.9556 16.9028 6.09348 16.7439 4.4843C16.7439 4.46438 16.757 4.44446 16.777 4.44446C16.7969 4.44446 16.8168 4.45759 16.8168 4.47751C16.9757 6.09348 17.3796 11.9619 16.0416 19.6918C16.0484 19.7049 16.0285 19.718 16.0086 19.718Z" fill="#6D0115"/>
<path d="M15.6453 19.8639H15.6385C15.6186 19.8571 15.6055 19.8372 15.6055 19.8177C16.4866 15.2474 16.5595 7.18021 16.3471 4.31231C16.3471 4.29238 16.3603 4.27246 16.3802 4.27246C16.4001 4.27246 16.42 4.28559 16.42 4.30551C16.6319 7.17341 16.5658 15.2542 15.6784 19.8308C15.6784 19.8508 15.6652 19.8639 15.6453 19.8639Z" fill="#6D0115"/>
<path d="M16.3007 19.5791H16.2939C16.274 19.5723 16.2609 19.5524 16.2672 19.5329C17.8171 13.0419 17.3933 6.55761 17.2276 4.72295C17.2276 4.70303 17.2407 4.68311 17.2606 4.68311C17.2806 4.68311 17.3005 4.69624 17.3005 4.71616C17.4662 6.55082 17.8832 13.0486 16.3333 19.546C16.3338 19.5723 16.3207 19.5791 16.3007 19.5791Z" fill="#6D0115"/>
<path d="M17.2207 18.7645H17.2139C17.1939 18.7577 17.1808 18.7378 17.1872 18.7184C18.6908 12.1146 18.3263 7.19333 18.1013 5.37859C18.1013 5.35867 18.1144 5.33875 18.1344 5.33875C18.1543 5.33875 18.1742 5.35188 18.1742 5.3718C18.3992 7.18653 18.7705 12.1277 17.2601 18.7378C17.2537 18.751 17.2406 18.7645 17.2207 18.7645Z" fill="#6D0115"/>
<path d="M16.7705 19.268H16.7637C16.7438 19.2613 16.7306 19.2413 16.737 19.2219C18.3199 12.327 17.8562 6.60428 17.6774 5.01458C17.6774 4.99465 17.6905 4.97473 17.7104 4.97473C17.7304 4.97473 17.7503 4.98786 17.7503 5.00778C17.9291 6.60383 18.3928 12.3333 16.8099 19.2418C16.8035 19.2545 16.7899 19.268 16.7705 19.268Z" fill="#6D0115"/>
<path d="M15.2801 19.9829H15.2733C15.2534 19.9761 15.2402 19.9562 15.2402 19.9367C16.0684 15.5851 16.1145 7.94807 15.8895 4.15288C15.8895 4.13296 15.9026 4.11304 15.9226 4.11304C15.9425 4.11304 15.9624 4.12617 15.9624 4.14609C16.1942 7.94128 16.1413 15.5914 15.3131 19.9499C15.3131 19.9698 15.3 19.9829 15.2801 19.9829Z" fill="#6D0115"/>
<path d="M14.9627 20.0695C14.936 20.0695 14.9229 20.0495 14.9229 20.0233C15.075 18.8642 15.8171 12.6317 15.4725 4.02752C15.4725 4.00759 15.4857 3.98767 15.5124 3.98767C15.5323 3.98767 15.5522 4.0008 15.5522 4.02752C15.8968 12.638 15.1547 18.8773 15.0025 20.0364C14.9957 20.0559 14.9826 20.0695 14.9627 20.0695Z" fill="#6D0115"/>
<path d="M14.5516 20.1685C14.5248 20.1685 14.5117 20.1486 14.5117 20.1287C15.406 11.717 15.161 7.20638 14.9822 3.90789C14.9822 3.88796 14.9953 3.86804 15.0152 3.86804C15.0351 3.86804 15.0551 3.88117 15.0551 3.90109C15.2339 7.19959 15.4789 11.717 14.5846 20.1287C14.5846 20.1554 14.5647 20.1685 14.5516 20.1685Z" fill="#6D0115"/>
<path d="M12.3994 20.4602C12.3727 20.4602 12.3596 20.4403 12.3596 20.4204C12.6512 16.0687 12.3596 5.59686 12.2998 3.54351C12.2998 3.52358 12.3129 3.50366 12.3396 3.50366C12.3596 3.50366 12.3795 3.51679 12.3795 3.54351C12.4393 5.59686 12.7241 16.0751 12.4393 20.4267C12.4388 20.4466 12.4193 20.4602 12.3994 20.4602Z" fill="#6D0115"/>
<path d="M12.7566 20.4334C12.7367 20.4334 12.7168 20.4135 12.7168 20.3936C12.8495 17.4329 12.9685 12.134 12.7766 3.66249V3.57647C12.7766 3.55654 12.7897 3.53662 12.8164 3.53662C12.8431 3.53662 12.8563 3.54975 12.8563 3.57647V3.66249C13.0482 12.134 12.9292 17.4392 12.7965 20.3999C12.7897 20.4135 12.7766 20.4334 12.7566 20.4334Z" fill="#6D0115"/>
<path d="M17.8432 17.4926H17.8301C17.8102 17.4858 17.797 17.4659 17.8034 17.4464C19.0286 11.2334 18.8036 7.60393 18.5586 5.9943C18.5586 5.97438 18.5654 5.96125 18.5853 5.95446C18.6052 5.94767 18.6252 5.95446 18.6315 5.97438C18.7836 6.25918 18.8701 6.5639 18.8964 6.88854L18.9294 7.32547C19.1282 9.87552 19.3003 12.0747 18.3997 15.6312C18.2208 16.3466 18.0619 16.9362 17.8763 17.4727C17.8699 17.4795 17.8568 17.4926 17.8432 17.4926ZM18.6713 6.23926C18.89 7.90186 19.0358 11.2864 18.0026 16.8234C18.1085 16.4589 18.2145 16.055 18.3272 15.6045C19.2278 12.0611 19.0558 9.86873 18.857 7.32502L18.8239 6.88809C18.804 6.66306 18.7506 6.44482 18.6713 6.23926Z" fill="#6D0115"/>
<path d="M14.2068 20.2347C14.1801 20.2347 14.167 20.2148 14.167 20.1948C15.0083 12.24 14.6574 5.15942 14.5709 3.82146C14.5709 3.80154 14.584 3.78162 14.6039 3.78162C14.6238 3.78162 14.6438 3.79475 14.6438 3.81467C14.7235 5.15263 15.0807 12.24 14.2331 20.2012C14.2467 20.2216 14.2268 20.2347 14.2068 20.2347Z" fill="#6D0115"/>
<path d="M13.1209 20.3936C13.0942 20.3936 13.0811 20.3737 13.0811 20.3538C13.3989 15.068 13.4256 9.55725 13.1671 3.98037C13.1603 3.82824 13.154 3.70871 13.1472 3.60955C13.1472 3.58962 13.1603 3.5697 13.187 3.5697C13.2069 3.5697 13.2268 3.58283 13.2268 3.60955C13.2336 3.70237 13.2336 3.82824 13.2468 3.98037C13.5053 9.56404 13.4718 15.0748 13.1607 20.3669C13.1607 20.3805 13.1408 20.3936 13.1209 20.3936Z" fill="#6D0115"/>
<path d="M13.8436 20.3013C13.8168 20.3013 13.8037 20.2813 13.8037 20.2614C14.5259 11.4789 14.2013 4.96112 14.1284 3.74224C14.1284 3.72232 14.1415 3.70239 14.1614 3.70239C14.1813 3.70239 14.2013 3.71552 14.2013 3.73545C14.2741 4.95433 14.5988 11.4784 13.8766 20.2678C13.8766 20.2813 13.8635 20.3013 13.8436 20.3013Z" fill="#6D0115"/>
<path d="M13.4988 20.3475C13.4789 20.3475 13.459 20.3275 13.459 20.3076C13.545 18.4929 13.9756 9.15342 13.684 3.66936C13.684 3.64944 13.6971 3.62952 13.7171 3.62952C13.737 3.62952 13.7569 3.64265 13.7569 3.66257C14.0548 9.15342 13.6242 18.4924 13.5319 20.3076C13.5319 20.3343 13.5188 20.3475 13.4988 20.3475Z" fill="#6D0115"/>
<path d="M20.202 4.53048L20.1889 4.21263C18.5793 2.23897 16.2212 0.894214 13.2012 0.563232C14.91 0.907344 18.1623 1.8944 20.202 4.53048Z" fill="url(#paint3_linear_583_1500)"/>
<path d="M13.1935 0.562843C12.7167 0.509868 12.22 0.483154 11.7097 0.483154C8.39812 0.483154 5.5103 1.54311 3.49 3.58288L2.81445 4.81489C3.24505 4.09316 5.35137 1.23205 11.6038 1.34479C18.4657 1.47066 20.2211 5.04716 20.2211 5.04716L20.1944 4.52375C18.1614 1.89447 14.9091 0.907408 13.1935 0.562843Z" fill="url(#paint4_linear_583_1500)"/>
<path d="M22.6921 11.8297C22.6921 8.89573 21.8246 6.21981 20.1819 4.2063C20.1819 4.2063 22.3281 7.18015 22.4404 10.9821C22.4802 12.3201 22.2484 13.6513 21.8576 14.9299C21.394 16.4598 20.5129 18.3674 18.7842 20.1228C21.1622 18.208 22.6921 15.2935 22.6921 11.8297Z" fill="url(#paint5_linear_583_1500)"/>
<path d="M22.4411 10.9816C22.3283 7.17966 20.1826 4.20581 20.1826 4.20581C20.1826 4.20581 22.4479 8.02092 22.3487 12.7171C22.4275 12.1475 22.4605 11.5644 22.4411 10.9816Z" fill="#E9E8E8"/>
<path d="M21.0497 6.03418C20.5928 4.89498 20.1885 4.21265 20.1885 4.21265L20.2283 5.05391L21.2747 7.68999C21.2747 7.68999 21.2747 7.53106 21.2747 7.27253C21.2679 7.07376 21.1158 6.59698 21.0497 6.03418Z" fill="#E9E8E8"/>
<path d="M21.0495 6.03418C21.1224 6.59698 21.2745 7.07421 21.2745 7.27298C21.2745 7.27298 21.8708 8.31935 21.8708 9.15428C21.8708 9.9892 22.0959 10.638 22.0959 11.7442C22.0959 12.8571 22.2878 15.1554 19.7115 18.8578C19.4729 19.2023 19.228 19.5664 19.0029 19.9041C20.5926 18.2085 21.4203 16.4001 21.8645 14.9299C22.0832 14.2077 22.2552 13.4729 22.3549 12.7244C22.4069 10.0082 21.6721 7.59038 21.0495 6.03418Z" fill="url(#paint6_linear_583_1500)"/>
<path d="M18.7644 20.1419C17.5854 20.8772 14.7044 22.447 11.5512 22.447C8.15991 22.447 3.55017 21.0891 1.78796 16.2145C1.13913 14.4061 0.887382 13.1541 0.887382 11.0677C0.887382 8.11381 2.13931 5.23232 3.49041 3.59644L3.47048 3.61636C3.31835 3.77528 2.17871 5.02042 1.38408 7.27255C0.311447 10.2994 -0.106014 14.9757 3.66925 19.5859C5.66284 21.4803 8.46463 22.5928 11.7034 22.5928C14.3729 22.5796 16.8433 21.6854 18.7644 20.1419Z" fill="#E9E8E8"/>
<path d="M1.39072 7.25946C2.18535 5.01413 3.33133 3.7622 3.47713 3.60327C1.59583 5.51083 0.476562 8.27957 0.476562 11.8298C0.476562 14.9694 1.66873 17.6652 3.6759 19.566C-0.0993717 14.9558 0.317637 10.2863 1.39072 7.25946Z" fill="#BDBBBC"/>
<path d="M1.4834 15.3003C1.57622 15.5919 1.67538 15.8898 1.78812 16.2077C2.13268 17.168 2.59633 17.9961 3.13287 18.6979L3.33798 18.7776C2.52977 17.5194 1.8343 16.0619 1.4834 15.3003Z" fill="url(#paint7_linear_583_1500)"/>
<path d="M3.91452 19.3074C2.57656 17.2277 1.21234 15.1545 1.21234 11.3724C1.21234 7.59034 2.81517 4.81526 2.81517 4.81526L3.49072 3.58325C2.13284 5.21914 0.887695 8.10063 0.887695 11.0546C0.887695 12.7765 1.05975 13.9292 1.484 15.2935C1.83491 16.055 2.53717 17.5125 3.33859 18.7708L3.13348 18.6911C3.28561 18.8899 3.4382 19.0751 3.60391 19.2539L3.91452 19.3074Z" fill="url(#paint8_linear_583_1500)"/>
<path d="M18.7649 20.1419C18.7717 20.1351 18.7781 20.1287 18.7849 20.1287C18.8578 20.0558 18.9307 19.9829 18.9968 19.9037C19.0565 19.8109 19.1226 19.7181 19.1887 19.6189C18.5132 20.2084 17.427 20.8509 16.8506 21.1688C17.6719 20.7911 18.3343 20.4072 18.7649 20.1419Z" fill="url(#paint9_linear_583_1500)"/>
<path d="M17.8632 20.3936C17.8564 20.4004 17.8501 20.4004 17.8433 20.4068C16.7304 21.1353 14.4986 21.9698 11.2595 21.9698C7.80883 21.9698 5.55671 20.7776 4.86758 20.1949C4.5366 19.9101 4.28486 19.8109 4.11914 19.7774C6.28523 21.7841 9.20611 22.4334 11.5506 22.4334C13.5442 22.4334 15.4318 21.8041 16.8495 21.1552C17.4191 20.8374 18.5121 20.2012 19.1876 19.6054C19.3597 19.3536 19.5322 19.0955 19.7042 18.8438C19.7174 18.8239 19.731 18.8039 19.7504 18.7777L19.9225 18.1483C19.9234 18.1682 18.8503 19.738 17.8632 20.3936Z" fill="url(#paint10_linear_583_1500)"/>
<path d="M22.0896 12.4387C21.2814 13.366 20.9106 14.6578 20.5397 15.8631C20.1422 17.1481 20.1422 17.7706 19.9172 18.1682L19.7451 18.7975C21.8379 15.7707 22.0765 13.6907 22.0896 12.4387Z" fill="url(#paint11_linear_583_1500)"/>
<path d="M21.7719 10.399C21.9109 10.4321 21.7058 10.0214 21.8778 9.51791C21.871 9.39883 21.8647 9.27929 21.8647 9.15342C21.8647 8.31895 21.2684 7.27213 21.2684 7.27213C21.2684 7.53066 21.2684 7.68959 21.2684 7.68959L21.0234 7.06702C21.0764 7.33868 21.1493 7.69638 21.2222 8.15323C21.4011 9.25982 21.5468 10.346 21.7719 10.399Z" fill="url(#paint12_linear_583_1500)"/>
<path d="M21.5464 9.96154C21.4336 9.53095 21.3345 8.84227 21.2217 8.1468C21.1488 7.68995 21.076 7.33225 21.023 7.06059L20.6123 6.02734C20.8242 6.88853 21.0692 7.74292 21.2217 8.58419C21.4205 9.73651 21.5464 9.96154 21.5464 9.96154Z" fill="#E9E8E8"/>
<path d="M17.2872 2.70903C18.3802 3.19939 19.1486 3.8283 19.7114 4.53056C20.175 5.10695 20.5726 6.16645 20.8637 7.03443C20.7777 6.70344 20.6917 6.37201 20.6052 6.03424L20.2212 5.06076C20.2212 5.06076 18.4658 1.47747 11.6039 1.35839C9.37854 1.31855 7.62312 1.74914 6.28516 2.31874C7.46419 1.98775 9.50396 1.49739 11.1267 1.49739C13.2136 1.48381 15.0152 1.68892 17.2872 2.70903Z" fill="#E9E8E8"/>
<path d="M8.25255 2.23854L8.25934 2.11267C5.37151 2.70219 3.72883 4.04015 3.37793 5.034C3.37793 5.034 3.4309 5.00728 3.5038 5.00095C3.58983 4.88187 3.7157 4.71615 3.85471 4.52417C4.13271 4.12663 5.51731 2.75516 8.25255 2.23854Z" fill="url(#paint13_linear_583_1500)"/>
<path d="M20.2146 6.26604C20.1349 6.04735 19.8238 5.06075 19.2411 4.38475C18.6584 3.70241 16.3071 1.80798 11.432 1.80798C10.2462 1.80798 9.18669 1.92073 8.2594 2.1127L8.25261 2.23858C5.52371 2.7552 4.13956 4.133 3.84797 4.52375C3.70897 4.71573 3.58944 4.88145 3.49707 5.00053C3.53691 5.00053 3.5831 5.00732 3.63607 5.02724C3.78821 5.08701 3.76874 5.09335 3.88782 5.14632C4.0069 5.1993 4.03995 5.23914 4.38452 4.86152C4.72229 4.48391 6.59 2.90099 11.4451 2.90099C14.4127 2.90099 17.1479 3.47738 18.6249 4.87465C18.9097 5.24548 19.3665 5.62989 19.6712 8.74953C19.6513 8.27276 19.625 7.90193 19.6051 7.71629C19.6051 7.7095 19.4793 7.02762 19.4793 6.52413C19.4793 6.35841 19.4992 6.24612 19.6314 6.31223C19.7704 6.37833 19.8501 6.33215 19.9624 6.38512C20.0615 6.43131 20.2472 6.47794 20.234 6.33894C20.2282 6.31902 20.2214 6.2923 20.2146 6.26604Z" fill="url(#paint14_linear_583_1500)"/>
<path d="M19.9303 16.804C19.9235 16.8171 19.7976 16.9959 19.6387 17.3274C19.7383 17.1816 19.8379 17.0027 19.9303 16.804Z" fill="url(#paint15_linear_583_1500)"/>
<path d="M22.0888 11.7432C22.0888 10.8028 21.9299 10.1934 21.8769 9.51781C21.7048 10.0213 21.91 10.432 21.771 10.3989C21.6849 10.379 21.612 10.2133 21.5459 9.96198C21.5459 9.96198 21.42 9.74329 21.2213 8.62402C21.2412 9.20675 21.2675 10.3265 21.2145 11.3597C21.1285 13.0816 20.572 15.4596 19.9295 16.8044C19.8367 17.0031 19.7375 17.182 19.6379 17.3278C19.512 17.5927 19.426 18.3941 19.0615 19.2621C19.5582 18.6925 19.9159 18.1627 19.9159 18.1627C20.1409 17.7652 20.1409 17.1426 20.5385 15.8576C20.9093 14.6587 21.2801 13.3605 22.0883 12.4333C22.0956 12.1675 22.0888 11.942 22.0888 11.7432Z" fill="url(#paint16_linear_583_1500)"/>
<path d="M20.7708 7.61031C20.5851 6.75591 20.347 6.4444 20.2274 6.33211C20.2406 6.47112 20.0554 6.43127 19.9558 6.3783C19.843 6.32532 19.7638 6.3715 19.6248 6.3054C19.4858 6.23929 19.4727 6.34524 19.4727 6.5173C19.4727 7.02079 19.5985 7.70313 19.5985 7.70947C19.5985 7.70947 19.7905 7.34498 19.9232 8.17311C20.016 8.76263 20.1351 9.16651 20.1419 9.61023C20.4004 9.86198 20.9433 10.5375 20.9034 11.6767C20.8767 12.4781 20.7708 13.3262 20.6784 13.9352C20.7445 13.6504 20.8111 13.3524 20.8772 13.0541C21.2213 11.439 21.0293 8.81606 20.7708 7.61031Z" fill="url(#paint17_linear_583_1500)"/>
<path d="M20.9703 8.96143C21.0962 10.2532 21.1225 11.909 20.8775 13.0545C20.8114 13.3525 20.7516 13.6441 20.6787 13.9357C20.3872 15.1939 20.063 16.3336 19.6455 17.327C19.8044 16.9892 19.9235 16.8171 19.9371 16.8036C20.5796 15.4588 21.1361 13.0745 21.2221 11.3589C21.2488 10.8821 21.2551 10.3854 21.2551 9.9349L20.9703 8.96143Z" fill="url(#paint18_linear_583_1500)"/>
<path d="M18.4066 19.1752C18.2545 19.4931 17.9031 19.9635 17.0886 20.4403C15.6845 21.2548 14.2338 21.7452 11.432 21.7452C8.63024 21.7452 4.73544 21.0692 3.51022 17.9301C2.285 14.791 1.83448 13.9891 1.83448 9.94894C1.83448 7.69681 2.29813 5.71636 3.52335 4.28603L4.51041 3.27905C3.42419 4.0207 2.89444 4.71617 2.82154 4.81578L2.81475 4.82891C2.81475 4.82891 1.21191 7.60399 1.21191 11.3861C1.21191 15.1681 2.58293 17.2477 3.9141 19.321L3.60259 19.2748C3.7683 19.4605 3.94036 19.6325 4.11921 19.7982C4.29126 19.8313 4.53667 19.9309 4.86765 20.2157C5.55633 20.7984 7.80845 21.9906 11.2595 21.9906C14.4919 21.9906 16.7305 21.1493 17.8434 20.4276C18.2672 20.1496 18.7046 19.7054 19.0686 19.2816C19.2207 18.9108 19.3271 18.5531 19.4064 18.2484C18.6978 19.1286 18.4066 19.1752 18.4066 19.1752Z" fill="#2E2B2C"/>
<path d="M19.9101 15.3071C19.9101 15.3071 19.864 15.4529 19.0558 16.7049C18.6319 17.3673 18.4065 17.5262 18.2942 17.5262C18.0492 18.2416 17.7508 18.8642 17.3008 19.3477C17.3737 19.4668 17.5195 19.5995 17.7776 19.5995C18.0225 19.5995 18.2014 19.4804 18.4069 19.1757C18.5989 18.8909 18.8176 18.4404 19.1291 17.7716C19.7648 16.4065 19.9101 15.3071 19.9101 15.3071Z" fill="url(#paint19_linear_583_1500)"/>
<path d="M18.7979 15.7241C18.6322 16.3666 18.4801 16.976 18.2881 17.5325C18.4072 17.5325 18.6259 17.3735 19.0497 16.7111C19.8511 15.4528 19.9041 15.3134 19.9041 15.3134C19.9041 15.3134 19.7583 16.4064 19.1226 17.7774C18.811 18.4462 18.5991 18.8903 18.4004 19.1815C18.4004 19.1815 18.692 19.1353 19.3938 18.2343C19.4997 17.8168 19.5595 17.4858 19.6324 17.3337C20.0498 16.3403 20.374 15.2011 20.6656 13.9424C20.7584 13.3329 20.8644 12.4853 20.8907 11.6839C20.9305 10.5447 20.3872 9.86918 20.1291 9.61743C20.1291 9.78949 20.116 9.97513 20.0761 10.1802C19.924 10.9024 19.7315 11.5644 19.6392 12.3794C19.54 13.1939 19.3743 13.6974 19.3743 13.6974L19.2222 13.7173C19.1226 14.3399 18.9831 15.0087 18.7979 15.7241Z" fill="url(#paint20_linear_583_1500)"/>
<path d="M5.26581 20.0097C4.30547 19.3604 3.29849 17.2939 3.05354 16.3535C2.93445 15.8966 2.70263 15.5059 2.49707 15.2211C2.74882 15.9962 3.08659 16.8108 3.51718 17.9233C4.7424 21.0628 8.6372 21.7384 11.439 21.7384C13.6775 21.7384 15.0553 21.4269 16.2344 20.884C15.2804 21.1819 13.5123 21.6256 11.4852 21.6256C8.43843 21.6256 6.22616 20.6653 5.26581 20.0097Z" fill="url(#paint21_linear_583_1500)"/>
<path d="M21.2285 8.6236C21.2285 8.61047 21.2217 8.59688 21.2217 8.59054C21.1289 8.07392 21.003 7.5573 20.8708 7.03389C20.5792 6.16637 20.1821 5.10641 19.7185 4.53002C19.1557 3.82776 18.3873 3.19885 17.2943 2.7085C15.0223 1.68839 13.2207 1.48328 11.1411 1.48328C9.5183 1.48328 7.47807 1.97997 6.29949 2.30462C5.59723 2.60255 5.00771 2.94032 4.53094 3.27175L3.54343 4.27873C3.53664 4.28552 3.5303 4.29865 3.51671 4.31178C3.31794 4.66948 3.01322 5.23908 2.81445 5.76249C3.10604 5.19289 3.37726 5.03397 3.37726 5.03397C3.84769 3.71593 6.55667 1.80837 11.4313 1.80837C16.3059 1.80837 18.6576 3.70914 19.2404 4.38513C19.8231 5.06068 20.1346 6.04774 20.2138 6.26643C20.227 6.29314 20.227 6.31261 20.227 6.33254C20.3528 6.43849 20.5915 6.75 20.7703 7.61073C20.8432 7.96163 20.9161 8.43207 20.9691 8.96182L21.2471 9.9353C21.248 9.40554 21.2349 8.93511 21.2285 8.6236Z" fill="url(#paint22_linear_583_1500)"/>
<path d="M4.5169 3.27227C4.99368 2.94129 5.58319 2.60352 6.28545 2.30514C7.62342 1.73554 9.37884 1.30495 11.6042 1.34479C5.35137 1.23205 3.24505 4.09316 2.81445 4.81534L2.82124 4.80221C2.90048 4.70939 3.43068 4.01392 4.5169 3.27227Z" fill="url(#paint23_linear_583_1500)"/>
<path d="M17.2941 19.354C17.2343 19.4138 17.175 19.4731 17.1152 19.5328C15.9099 20.6258 12.8695 20.9106 11.4324 20.9106C10.3792 20.9106 9.37905 20.8178 8.43863 20.639C5.35883 20.308 4.92824 18.5526 4.8155 18.2411C4.69641 17.9101 4.63665 18.0622 4.57054 17.9961C4.50444 17.93 4.51757 17.9631 4.25269 17.7774C3.98782 17.5918 4.07384 17.6977 3.8882 17.5786C3.70257 17.4659 3.72928 17.5786 3.78225 17.8173C3.81531 17.9563 4.06026 18.486 4.25269 18.8903C4.57054 19.3671 4.91511 19.7778 5.25967 20.0096C6.22002 20.6652 8.43229 21.6256 11.4858 21.6256C13.5125 21.6256 15.2747 21.1819 16.235 20.8839C16.5266 20.7513 16.8114 20.5991 17.0894 20.4402C17.1356 20.4135 17.1754 20.3872 17.2221 20.3605C17.4077 20.0757 17.5599 19.7909 17.6527 19.5922C17.4666 19.5528 17.3602 19.4464 17.2941 19.354Z" fill="url(#paint24_linear_583_1500)"/>
<path d="M18.4065 19.1752C18.2014 19.4799 18.0158 19.599 17.7772 19.599C17.731 19.599 17.6911 19.5922 17.6513 19.5858C17.5521 19.7846 17.3996 20.0762 17.2207 20.3542C17.9429 19.91 18.2675 19.4731 18.4065 19.1752Z" fill="url(#paint25_linear_583_1500)"/>
<path d="M4.02734 5.17973C3.97436 5.19286 3.94131 5.17294 3.88833 5.14668C3.76925 5.08691 3.78917 5.08691 3.63659 5.0276C3.48445 4.96783 3.37171 5.03439 3.37171 5.03439C3.37171 5.03439 2.68937 5.412 2.3516 7.19369C2.01383 8.97537 2.07993 9.78992 2.25878 10.6312C2.43763 11.4657 2.62961 10.1943 2.79532 9.6971C2.93433 9.28643 3.22592 8.96179 3.36492 9.1343C3.37805 8.64394 3.39797 8.14724 3.43103 7.6442C3.35858 6.68975 3.79551 5.64337 4.02734 5.17973Z" fill="url(#paint26_linear_583_1500)"/>
<path d="M19.6647 8.74954C19.36 5.6299 18.9032 5.24549 18.6184 4.87466C17.1477 3.47694 14.4125 2.901 11.4387 2.901C6.58351 2.901 4.72259 4.49071 4.37803 4.86153C4.18605 5.08023 4.08644 5.15946 4.02033 5.17304C3.78851 5.64348 3.35158 6.68306 3.42402 7.63028C3.43715 7.40524 3.45074 7.17342 3.4702 6.9416C3.70203 3.86814 8.77541 3.06038 11.4319 3.06038C12.2401 3.06038 14.3197 3.12648 16.1942 3.76264C18.6252 4.58398 19.221 5.89523 19.2939 6.84244L19.327 7.27937C19.4859 9.26662 19.6317 11.1606 19.2142 13.7043L19.3664 13.6844C19.3664 13.6844 19.6779 10.4787 19.6779 9.65737C19.6847 9.33906 19.6779 9.028 19.6647 8.74954Z" fill="#2E2B2C"/>
<path d="M4.16588 15.9228L4.11291 15.7308C4.05993 15.5257 4.00696 15.3202 3.96077 15.1214C3.51705 14.2272 3.03348 13.4588 2.94746 12.2666C2.86777 11.1736 2.97417 9.90856 3.05341 9.22623C2.95425 9.33897 2.86143 9.51103 2.79487 9.69666C2.62281 10.1934 2.43717 11.4716 2.25833 10.6307C2.07948 9.79628 2.00658 8.97493 2.35115 7.19325C2.47702 6.54397 2.64274 6.08711 2.808 5.76247C3.00677 5.23906 3.31149 4.66946 3.51026 4.31177C2.30496 5.74255 1.84766 7.70942 1.84766 9.94841C1.84766 12.5582 2.0333 13.8165 2.49694 15.2274C2.70205 15.5122 2.93387 15.9029 3.05341 16.3598C3.15256 16.7242 3.35813 17.2671 3.64292 17.8236C3.44415 17.2803 3.15256 16.4259 3.08646 16.0089C2.9873 15.3732 2.95379 15.1277 3.10638 15.2206C3.25897 15.3134 3.32507 15.2604 3.44415 15.4723C3.56323 15.6842 3.62979 15.7503 3.71582 15.8368C3.80864 15.9296 3.92093 16.0487 3.9807 16.1085C4.04046 16.1682 4.1197 16.2212 4.2587 16.7048C4.37778 17.1286 4.66258 18.0228 4.88127 18.2017C4.59648 17.5655 4.39771 16.8039 4.16588 15.9228Z" fill="#A7A6A6"/>
<path d="M4.25268 16.7043C4.11367 16.2207 4.03398 16.1678 3.97467 16.108C3.9149 16.0482 3.79582 15.9224 3.70979 15.8363C3.61697 15.7435 3.55766 15.6842 3.43813 15.4719C3.31905 15.26 3.25249 15.3129 3.10035 15.2201C2.94822 15.1273 2.98127 15.3659 3.08043 16.0084C3.14654 16.4259 3.44492 17.2866 3.6369 17.8231C3.81574 18.1876 4.02764 18.5584 4.25268 18.8962C4.0607 18.4923 3.81574 17.9689 3.78224 17.8231C3.72247 17.5845 3.70255 17.4722 3.88819 17.5845C4.07383 17.6973 3.98735 17.5976 4.25268 17.7833C4.51755 17.9689 4.50442 17.9422 4.57053 18.002C4.61037 18.0418 4.65022 17.9952 4.70953 18.0482L4.71632 17.9685C4.53068 17.6253 4.34504 17.0222 4.25268 16.7043Z" fill="url(#paint27_linear_583_1500)"/>
<path d="M7.79603 20.4996C6.13343 20.0957 5.37864 19.3405 4.88149 18.2013C4.82852 18.1615 4.77554 18.0754 4.71578 17.9695L4.70898 18.0492C4.7357 18.0759 4.76875 18.1352 4.81493 18.2411C4.92768 18.5459 5.35827 20.3076 8.43807 20.6391C8.21983 20.5924 8.00114 20.5526 7.79603 20.4996Z" fill="url(#paint28_linear_583_1500)"/>
<path d="M4.88151 18.2279L4.87471 18.2211C4.37122 17.0951 3.94742 15.744 3.63591 14.32C3.31806 12.8362 3.15234 11.3394 3.15234 9.99505C3.15234 8.24642 3.3244 7.38524 3.47019 6.97456L3.48332 6.96777L3.49012 6.9809C3.34432 7.39157 3.17227 8.25276 3.17227 9.9946C3.17227 12.6506 3.84781 15.8762 4.89418 18.2143L4.88151 18.2279Z" fill="#231F20"/>
<path d="M11.4319 20.4665C10.1668 20.4665 8.98097 20.3338 7.89475 20.0689C5.5566 19.4993 5.21204 18.1876 4.58947 15.8101L4.53649 15.6181C3.71561 12.4917 3.69568 9.90225 3.91392 6.98137C3.96011 6.33208 4.27841 5.75615 4.85434 5.26579C5.35104 4.84199 6.03338 4.48429 6.88777 4.1995C8.43084 3.68967 10.246 3.50403 11.4314 3.50403C12.2197 3.50403 14.24 3.57013 16.0547 4.18637C16.8693 4.46437 17.5118 4.80894 17.9822 5.21961C18.5188 5.69004 18.8103 6.25285 18.8633 6.88221C18.8764 7.02801 18.8832 7.1738 18.8964 7.31914C19.0951 9.8624 19.2672 12.0615 18.3666 15.6118C17.9827 17.1286 17.6512 18.4398 16.8168 19.1951C15.7966 20.1287 13.0415 20.4665 11.4319 20.4665ZM11.4387 3.5235C10.2528 3.5235 8.43809 3.70914 6.90136 4.21897C5.05357 4.83475 4.02666 5.78875 3.94064 6.98092C3.72194 9.90179 3.74866 12.4849 4.56321 15.6113L4.61618 15.8033C5.23196 18.1745 5.57653 19.4794 7.90155 20.049C8.98097 20.3139 10.1736 20.4466 11.4319 20.4466C13.0347 20.4466 15.7835 20.1088 16.8036 19.1883C17.6318 18.4331 17.9627 17.1286 18.3467 15.6118C19.2473 12.0683 19.0752 9.86919 18.8764 7.32593C18.8633 7.18014 18.8565 7.03434 18.8434 6.889C18.7506 5.70997 17.8169 4.8026 16.0547 4.20629C14.2468 3.59006 12.2265 3.5235 11.4387 3.5235Z" fill="#891731"/>
<path d="M19.0028 5.80237C18.857 5.52436 18.6519 5.23956 18.3535 4.9679C18.3997 5.04758 18.4463 5.12682 18.4862 5.21285C18.7049 5.41796 18.8706 5.61673 19.0028 5.80237Z" fill="#231F20"/>
<path d="M17.9098 17.2477C17.645 18.069 17.3203 18.7315 16.8105 19.1951C15.7705 20.1355 12.9356 20.4602 11.4324 20.4602C9.9423 20.4602 8.74968 20.2682 7.89528 20.0626C5.49737 19.4799 5.20623 18.1351 4.55061 15.6182C3.68942 12.3265 3.72927 9.66366 3.92804 6.98774C4.13315 4.219 9.13409 3.52353 11.4392 3.52353C12.711 3.52353 14.433 3.68245 15.8968 4.15289C14.9826 3.7952 13.5718 3.4375 11.5651 3.4375C8.51831 3.4375 6.76968 3.96725 5.67033 4.51059C5.06089 4.80851 4.42519 5.173 4.08741 5.79557C3.61064 6.66989 3.46484 8.01464 3.46484 9.29963C3.46484 11.0351 3.76277 13.1677 3.76277 13.1677C4.09375 14.8104 4.35908 16.1284 4.76975 17.2608C5.18042 18.3932 5.4453 19.5392 7.14095 20.0296C8.83661 20.5199 9.66429 20.639 11.7045 20.639C13.546 20.639 15.6586 20.1487 16.7249 19.4532C16.844 19.3735 16.95 19.2875 17.0428 19.1883C17.1619 19.0624 17.2615 18.9166 17.3543 18.7577C17.5454 18.4068 17.7772 17.9033 17.9098 17.2477Z" fill="url(#paint29_linear_583_1500)"/>
<path d="M16.6514 4.05379C17.4727 4.3653 18.0622 4.7891 18.4928 5.20611C18.453 5.12642 18.4068 5.04039 18.3601 4.96115C17.8897 4.51743 17.201 4.09997 16.2076 3.7622C14.3331 3.12649 12.2535 3.05994 11.4453 3.05994C9.72338 3.05994 6.97456 3.4045 5.19922 4.48393C7.65011 3.42397 9.95475 3.19215 10.9287 3.19215C12.4324 3.19939 14.4658 3.23245 16.6514 4.05379Z" fill="#BDBBBC"/>
<path d="M19.3402 7.28567L19.3071 6.84874C19.2804 6.53088 19.1944 6.1664 19.0024 5.79557C18.8697 5.60993 18.7045 5.41162 18.4926 5.20605C18.9893 6.18632 19.0359 7.31238 19.1351 8.13372C19.2609 9.19368 19.38 11.0745 19.2609 12.1675C19.1351 13.2605 18.7642 14.8833 18.1679 17.0159C17.8034 18.3208 17.3398 18.9103 17.0419 19.1684C16.9491 19.2676 16.8499 19.354 16.724 19.4333C15.6641 20.1219 13.5514 20.6191 11.7036 20.6191C9.66339 20.6191 8.83571 20.4932 7.14005 20.0097C5.4444 19.5193 5.17952 18.3738 4.76885 17.2409C4.35818 16.1085 4.0933 14.7968 3.76187 13.1478C3.76187 13.1478 3.46394 11.0152 3.46394 9.2797C3.46394 8.92201 3.47707 8.56431 3.50379 8.20662L3.4241 7.73618C3.26517 10.3854 3.35799 12.8164 4.11277 15.7173L4.16575 15.9093C4.39757 16.8035 4.59634 17.5651 4.88114 18.2076C5.37784 19.3337 6.13307 20.0889 7.78888 20.4928C8.90815 20.7644 10.1338 20.9034 11.4319 20.9034C12.8691 20.9034 15.9095 20.6118 17.1148 19.5256C17.1745 19.4659 17.2338 19.4066 17.2936 19.3468C17.7441 18.8632 18.0489 18.2406 18.287 17.5253C18.479 16.9688 18.6316 16.3661 18.7968 15.7169C18.9825 15.0015 19.1147 14.3327 19.2206 13.7034C19.6449 11.1737 19.4996 9.27291 19.3402 7.28567Z" fill="#A7A6A6"/>
<path d="M4.08665 5.78875C4.42442 5.17297 5.06013 4.80848 5.66957 4.50376C6.76891 3.96043 8.51121 3.43068 11.5643 3.43068C13.571 3.43068 14.9819 3.78158 15.896 4.14607C17.4726 4.64956 18.7508 5.50395 18.8567 6.88809C19.0619 9.56402 19.3136 11.8623 18.36 15.6177C18.2079 16.214 18.0685 16.7569 17.9095 17.2472C17.7769 17.9028 17.545 18.4131 17.3467 18.7441C17.2539 18.903 17.1548 19.0488 17.0352 19.1747C17.3399 18.9098 17.8036 18.3203 18.1613 17.0222C18.7576 14.8896 19.1284 13.26 19.2543 12.1738C19.3802 11.0808 19.2543 9.19998 19.1284 8.14003C19.0293 7.31869 18.9826 6.19263 18.4859 5.21236C18.0621 4.7949 17.4658 4.36476 16.6445 4.06004C14.4521 3.23191 12.4187 3.19885 10.915 3.19885C9.94153 3.19885 7.63644 3.43068 5.18555 4.49063C4.2252 5.07336 3.54966 5.87477 3.46997 6.94786C3.46997 6.95465 3.46997 6.96099 3.46997 6.96778C3.45004 7.23266 3.43012 7.49119 3.41699 7.74928L3.49668 8.21972C3.57003 7.29922 3.74209 6.41811 4.08665 5.78875Z" fill="url(#paint30_linear_583_1500)"/>
<path d="M11.4325 20.9171C10.1344 20.9171 8.9092 20.7781 7.78948 20.5064C5.18645 19.8707 4.79571 18.3869 4.15321 15.9229L4.10024 15.7309C3.26577 12.5384 3.24584 9.91545 3.46454 6.94839C3.69636 3.86859 8.77654 3.05359 11.4393 3.05359C12.2475 3.05359 14.3271 3.11969 16.2084 3.76219C18.6458 4.59032 19.2421 5.90157 19.315 6.85557L19.348 7.2925C19.54 9.76966 19.7256 12.1146 18.8047 15.7309C18.4008 17.3206 18.0562 18.6917 17.1158 19.5393C15.9164 20.6323 12.8764 20.9171 11.4325 20.9171ZM3.47767 6.94794H3.4908C3.2721 9.90866 3.29203 12.5384 4.1265 15.7241L4.17947 15.9161C4.82197 18.3734 5.20592 19.8571 7.79582 20.4865C8.91509 20.7581 10.134 20.8971 11.4321 20.8971C12.8692 20.8971 15.9028 20.6123 17.1086 19.5193C18.0359 18.6781 18.3868 17.3071 18.7911 15.7241C19.7116 12.1078 19.5264 9.76286 19.3344 7.2925L19.3014 6.85557C19.2285 5.90836 18.6326 4.60345 16.208 3.78211C14.3335 3.14641 12.2539 3.07985 11.4457 3.07985C8.79646 3.07985 3.72262 3.88806 3.49759 6.95473L3.47767 6.94794Z" fill="#231F20"/>
<path d="M17.6113 6.48425L20.2873 5.12682L19.4659 7.81587L20.5127 5.19293L21.2874 7.62344L20.6717 5.15987L22.1355 5.62986L20.7378 5.00095L21.493 4.55043L20.625 4.84157L21.0425 3.90794L20.433 4.74241L19.5325 3.09973L20.1415 4.66318L19.4795 4.16603L20.0622 4.74241L18.2276 4.21266L19.9825 4.8221L19.0158 4.98737H19.9033L19.2078 5.14629L19.9631 5.06706L17.6113 6.48425Z" fill="white"/>
<path d="M8.14064 12.81V11.7038H7.19343L7.19977 8.91517H8.43857L8.43178 7.7959H5.85547L6.08729 16.3602H7.21969L7.19343 12.81H8.14064Z" fill="#1A1A1A"/>
<path d="M8.875 7.7959L9.02079 16.3602H10.193L10.213 7.7959H8.875Z" fill="#1A1A1A"/>
<path d="M16.387 16.3602L16.6256 8.87532H17.5461L17.5393 7.7959H14.3604V8.87532H15.2809L15.2546 16.3602H16.387Z" fill="#1A1A1A"/>
<path d="M11.9751 11.7568L11.9882 8.84906H12.6438C12.9418 9.49835 13.1274 10.3527 13.2795 11.7568H11.9751ZM10.9355 16.3602H11.0478H11.8891H12.0149L12.0281 12.8168H13.3262C13.4253 13.4393 13.452 15.3736 13.4588 16.3602H13.5648H14.4124H14.5052C14.6044 11.9886 14.2933 9.51827 13.4453 7.7959H10.8291L10.9355 16.3602Z" fill="#1A1A1A"/>
<path d="M8.27927 11.5449H7.33206V8.76303H8.5772L8.57041 7.64331H5.9873L6.21913 16.2076H7.35198L7.33206 12.6574H8.27927V11.5449Z" fill="url(#paint31_radial_583_1500)"/>
<path d="M10.3594 7.64331H9.02148L9.16049 16.2076H10.3332L10.3594 7.64331Z" fill="url(#paint32_radial_583_1500)"/>
<path d="M15.4127 16.2076H16.5451L16.7901 8.72319H17.7043L17.6979 7.64331H14.5117V8.72319H15.439L15.4127 16.2076Z" fill="url(#paint33_radial_583_1500)"/>
<path d="M12.1279 11.6042L12.141 8.69647H12.7967C13.0946 9.34576 13.287 10.2002 13.4324 11.6042H12.1279ZM11.0815 16.2076H11.1943H12.0419H12.1678L12.1809 12.6642H13.479C13.5782 13.2867 13.6049 15.221 13.6117 16.2076H13.7176H14.5652H14.658C14.7572 11.836 14.4461 9.36568 13.5981 7.64331H10.9756L11.0815 16.2076Z" fill="url(#paint34_radial_583_1500)"/>
<defs>
<linearGradient id="paint0_linear_583_1500" x1="3.35451" y1="12.0977" x2="2.75876" y2="12.0977" gradientUnits="userSpaceOnUse">
<stop stop-color="#E9E8E8"/>
<stop offset="0.00561798" stop-color="#E9E8E8"/>
<stop offset="0.2933" stop-color="#BFBEBF"/>
<stop offset="0.5994" stop-color="#9A9999"/>
<stop offset="0.8459" stop-color="#838182"/>
<stop offset="1" stop-color="#7B7979"/>
</linearGradient>
<radialGradient id="paint1_radial_583_1500" cx="0" cy="0" r="1" gradientUnits="userSpaceOnUse" gradientTransform="translate(11.4351 11.985) scale(8.05863 8.05863)">
<stop stop-color="#E60A47"/>
<stop offset="1" stop-color="#7C0626"/>
</radialGradient>
<linearGradient id="paint2_linear_583_1500" x1="11.592" y1="-0.0534054" x2="11.592" y2="23.2533" gradientUnits="userSpaceOnUse">
<stop stop-color="#656363"/>
<stop offset="0.00561798" stop-color="#656363"/>
<stop offset="0.5" stop-color="#A7A6A6"/>
<stop offset="1" stop-color="#656363"/>
</linearGradient>
<linearGradient id="paint3_linear_583_1500" x1="18.6105" y1="3.80755" x2="13.7655" y2="-0.119977" gradientUnits="userSpaceOnUse">
<stop stop-color="#DEDEDE"/>
<stop offset="0.00561798" stop-color="#DEDEDE"/>
<stop offset="0.1616" stop-color="#D2D1D1"/>
<stop offset="1" stop-color="#918F8F"/>
</linearGradient>
<linearGradient id="paint4_linear_583_1500" x1="4.13733" y1="2.76586" x2="12.6571" y2="2.76586" gradientUnits="userSpaceOnUse">
<stop stop-color="#DEDEDE"/>
<stop offset="0.00561798" stop-color="#DEDEDE"/>
<stop offset="0.1834" stop-color="#9B999A"/>
<stop offset="0.3652" stop-color="#5A5758"/>
<stop offset="1" stop-color="#DEDEDE"/>
</linearGradient>
<linearGradient id="paint5_linear_583_1500" x1="20.7383" y1="15.9779" x2="20.7383" y2="12.2651" gradientUnits="userSpaceOnUse">
<stop stop-color="#A7A6A6"/>
<stop offset="0.00561798" stop-color="#A7A6A6"/>
<stop offset="0.225" stop-color="#9A9999"/>
<stop offset="0.7013" stop-color="#838182"/>
<stop offset="1" stop-color="#7B7979"/>
</linearGradient>
<linearGradient id="paint6_linear_583_1500" x1="20.6797" y1="19.9034" x2="20.6797" y2="6.86654" gradientUnits="userSpaceOnUse">
<stop stop-color="#A7A6A6"/>
<stop offset="0.00561798" stop-color="#A7A6A6"/>
<stop offset="0.1011" stop-color="#9A9999"/>
<stop offset="0.3083" stop-color="#838182"/>
<stop offset="0.4382" stop-color="#7B7979"/>
<stop offset="0.7224" stop-color="#797777"/>
<stop offset="0.8339" stop-color="#727070"/>
<stop offset="0.915" stop-color="#666464"/>
<stop offset="0.981" stop-color="#555353"/>
<stop offset="1" stop-color="#4F4C4D"/>
</linearGradient>
<linearGradient id="paint7_linear_583_1500" x1="2.35376" y1="17.0674" x2="2.26792" y2="17.1102" gradientUnits="userSpaceOnUse">
<stop stop-color="#A7A6A6"/>
<stop offset="0.00561798" stop-color="#A7A6A6"/>
<stop offset="0.1011" stop-color="#9A9999"/>
<stop offset="0.3083" stop-color="#838182"/>
<stop offset="0.4382" stop-color="#7B7979"/>
<stop offset="0.7224" stop-color="#797777"/>
<stop offset="0.8339" stop-color="#727070"/>
<stop offset="0.915" stop-color="#666464"/>
<stop offset="0.981" stop-color="#555353"/>
<stop offset="1" stop-color="#4F4C4D"/>
</linearGradient>
<linearGradient id="paint8_linear_583_1500" x1="1.89521" y1="5.89873" x2="3.66575" y2="18.2925" gradientUnits="userSpaceOnUse">
<stop stop-color="#A7A6A6"/>
<stop offset="0.00561798" stop-color="#A7A6A6"/>
<stop offset="0.1011" stop-color="#9A9999"/>
<stop offset="0.3083" stop-color="#838182"/>
<stop offset="0.4382" stop-color="#7B7979"/>
<stop offset="0.7224" stop-color="#797777"/>
<stop offset="0.8339" stop-color="#727070"/>
<stop offset="0.915" stop-color="#666464"/>
<stop offset="0.981" stop-color="#555353"/>
<stop offset="1" stop-color="#4F4C4D"/>
</linearGradient>
<linearGradient id="paint9_linear_583_1500" x1="17.9913" y1="20.3567" x2="18.2264" y2="20.6636" gradientUnits="userSpaceOnUse">
<stop stop-color="#231F20"/>
<stop offset="0.00561798" stop-color="#231F20"/>
<stop offset="0.0778" stop-color="#373334"/>
<stop offset="0.2339" stop-color="#5C595A"/>
<stop offset="0.3596" stop-color="#737071"/>
<stop offset="0.4382" stop-color="#7B7979"/>
<stop offset="0.7224" stop-color="#797777"/>
<stop offset="0.8339" stop-color="#727070"/>
<stop offset="0.915" stop-color="#666464"/>
<stop offset="0.981" stop-color="#555353"/>
<stop offset="1" stop-color="#4F4C4D"/>
</linearGradient>
<linearGradient id="paint10_linear_583_1500" x1="11.7597" y1="21.1929" x2="12.6289" y2="13.7895" gradientUnits="userSpaceOnUse">
<stop stop-color="#A7A6A6"/>
<stop offset="0.00561798" stop-color="#A7A6A6"/>
<stop offset="0.1011" stop-color="#9A9999"/>
<stop offset="0.3083" stop-color="#838182"/>
<stop offset="0.4382" stop-color="#7B7979"/>
<stop offset="0.7224" stop-color="#797777"/>
<stop offset="0.8339" stop-color="#727070"/>
<stop offset="0.915" stop-color="#666464"/>
<stop offset="0.981" stop-color="#555353"/>
<stop offset="1" stop-color="#4F4C4D"/>
</linearGradient>
<linearGradient id="paint11_linear_583_1500" x1="20.4975" y1="15.4183" x2="22.0708" y2="16.1674" gradientUnits="userSpaceOnUse">
<stop stop-color="#393637"/>
<stop offset="0.00561798" stop-color="#393637"/>
<stop offset="0.1376" stop-color="#5B5959"/>
<stop offset="0.2536" stop-color="#737071"/>
<stop offset="0.3258" stop-color="#7B7979"/>
<stop offset="0.4102" stop-color="#747272"/>
<stop offset="0.7823" stop-color="#595657"/>
<stop offset="1" stop-color="#4F4C4D"/>
</linearGradient>
<linearGradient id="paint12_linear_583_1500" x1="22.0439" y1="8.62931" x2="21.2606" y2="8.75805" gradientUnits="userSpaceOnUse">
<stop stop-color="#393637"/>
<stop offset="0.00561798" stop-color="#393637"/>
<stop offset="0.1156" stop-color="#423F40"/>
<stop offset="0.296" stop-color="#5B5858"/>
<stop offset="0.5243" stop-color="#828080"/>
<stop offset="0.7887" stop-color="#B8B7B7"/>
<stop offset="1" stop-color="#E9E8E8"/>
</linearGradient>
<linearGradient id="paint13_linear_583_1500" x1="7.63882" y1="2.98272" x2="5.66924" y2="3.59075" gradientUnits="userSpaceOnUse">
<stop stop-color="#918F8F"/>
<stop offset="0.00561798" stop-color="#918F8F"/>
<stop offset="1" stop-color="#918F8F"/>
</linearGradient>
<linearGradient id="paint14_linear_583_1500" x1="3.49696" y1="5.27957" x2="20.2349" y2="5.27957" gradientUnits="userSpaceOnUse">
<stop stop-color="white"/>
<stop offset="0.00561798" stop-color="white"/>
<stop offset="0.0605" stop-color="#E6E6E6"/>
<stop offset="0.1613" stop-color="#BEBDBD"/>
<stop offset="0.2685" stop-color="#9C9A9A"/>
<stop offset="0.3814" stop-color="#807E7E"/>
<stop offset="0.5019" stop-color="#6A6868"/>
<stop offset="0.6336" stop-color="#5B5859"/>
<stop offset="0.7848" stop-color="#524F50"/>
<stop offset="1" stop-color="#4F4C4D"/>
</linearGradient>
<linearGradient id="paint15_linear_583_1500" x1="19.9258" y1="17.1553" x2="20.0627" y2="17.2425" gradientUnits="userSpaceOnUse">
<stop stop-color="#BDBBBC"/>
<stop offset="0.00561798" stop-color="#BDBBBC"/>
<stop offset="0.1642" stop-color="#C5C5C5"/>
<stop offset="0.4233" stop-color="#DEDDDD"/>
<stop offset="0.5225" stop-color="#E9E8E8"/>
<stop offset="1" stop-color="#918F8F"/>
</linearGradient>
<linearGradient id="paint16_linear_583_1500" x1="21.2555" y1="11.7601" x2="18.7444" y2="17.7694" gradientUnits="userSpaceOnUse">
<stop stop-color="#2E2B2C"/>
<stop offset="0.00561798" stop-color="#2E2B2C"/>
<stop offset="0.5225" stop-color="#918F8F"/>
<stop offset="1" stop-color="#393637"/>
</linearGradient>
<linearGradient id="paint17_linear_583_1500" x1="20.2727" y1="8.96839" x2="20.3585" y2="14.6554" gradientUnits="userSpaceOnUse">
<stop stop-color="#393637"/>
<stop offset="0.00561798" stop-color="#393637"/>
<stop offset="0.1013" stop-color="#423F40"/>
<stop offset="0.2582" stop-color="#5B5858"/>
<stop offset="0.4556" stop-color="#828080"/>
<stop offset="0.5225" stop-color="#918F8F"/>
<stop offset="1" stop-color="#393637"/>
</linearGradient>
<linearGradient id="paint18_linear_583_1500" x1="20.7942" y1="11.9764" x2="19.9142" y2="15.9252" gradientUnits="userSpaceOnUse">
<stop stop-color="#BDBBBC"/>
<stop offset="0.00561798" stop-color="#BDBBBC"/>
<stop offset="0.1642" stop-color="#C5C5C5"/>
<stop offset="0.4233" stop-color="#DEDDDD"/>
<stop offset="0.5225" stop-color="#E9E8E8"/>
<stop offset="1" stop-color="#918F8F"/>
</linearGradient>
<linearGradient id="paint19_linear_583_1500" x1="18.0671" y1="18.827" x2="21.2631" y2="13.5004" gradientUnits="userSpaceOnUse">
<stop stop-color="#3E3B3B"/>
<stop offset="0.00561798" stop-color="#3E3B3B"/>
<stop offset="0.0655" stop-color="#535051"/>
<stop offset="0.2572" stop-color="#939191"/>
<stop offset="0.4188" stop-color="#C1C0C0"/>
<stop offset="0.542" stop-color="#DEDDDD"/>
<stop offset="0.6124" stop-color="#E9E8E8"/>
<stop offset="0.6625" stop-color="#DDDCDC"/>
<stop offset="0.7532" stop-color="#BEBCBD"/>
<stop offset="0.8741" stop-color="#8B8989"/>
<stop offset="1" stop-color="#4F4C4D"/>
</linearGradient>
<linearGradient id="paint20_linear_583_1500" x1="20.7886" y1="10.6929" x2="18.9537" y2="16.5194" gradientUnits="userSpaceOnUse">
<stop stop-color="#3E3B3B"/>
<stop offset="0.00561798" stop-color="#3E3B3B"/>
<stop offset="0.0395" stop-color="#626060"/>
<stop offset="0.0837" stop-color="#8B898A"/>
<stop offset="0.1289" stop-color="#ADACAC"/>
<stop offset="0.1747" stop-color="#C7C6C6"/>
<stop offset="0.2213" stop-color="#DAD9D9"/>
<stop offset="0.2692" stop-color="#E5E4E5"/>
<stop offset="0.3202" stop-color="#E9E8E8"/>
<stop offset="0.7753" stop-color="#E9E8E8"/>
<stop offset="0.902" stop-color="#D9D8D8"/>
<stop offset="1" stop-color="#D3D2D2"/>
</linearGradient>
<linearGradient id="paint21_linear_583_1500" x1="2.26653" y1="18.2414" x2="8.31846" y2="18.5633" gradientUnits="userSpaceOnUse">
<stop stop-color="#3E3B3B"/>
<stop offset="0.00561798" stop-color="#3E3B3B"/>
<stop offset="0.1038" stop-color="#535051"/>
<stop offset="0.418" stop-color="#939191"/>
<stop offset="0.6828" stop-color="#C1C0C0"/>
<stop offset="0.8847" stop-color="#DEDDDD"/>
<stop offset="1" stop-color="#E9E8E8"/>
</linearGradient>
<linearGradient id="paint22_linear_583_1500" x1="2.81498" y1="5.70984" x2="21.2476" y2="5.70984" gradientUnits="userSpaceOnUse">
<stop stop-color="#2E2B2C"/>
<stop offset="0.00561798" stop-color="#2E2B2C"/>
<stop offset="0.0446" stop-color="#2F2B2C"/>
<stop offset="1" stop-color="#393637"/>
</linearGradient>
<linearGradient id="paint23_linear_583_1500" x1="10.5557" y1="1.05173" x2="6.66035" y2="2.74188" gradientUnits="userSpaceOnUse">
<stop stop-color="#DEDEDE"/>
<stop offset="0.00561798" stop-color="#DEDEDE"/>
<stop offset="0.1616" stop-color="#D2D1D1"/>
<stop offset="1" stop-color="#918F8F"/>
</linearGradient>
<linearGradient id="paint24_linear_583_1500" x1="13.5274" y1="19.5802" x2="4.28835" y2="19.5802" gradientUnits="userSpaceOnUse">
<stop stop-color="#4B4848"/>
<stop offset="0.0285" stop-color="#444141"/>
<stop offset="0.073" stop-color="#3E3B3B"/>
<stop offset="0.191" stop-color="#5F5C5D"/>
<stop offset="0.3873" stop-color="#908E8E"/>
<stop offset="0.5727" stop-color="#B6B5B5"/>
<stop offset="0.7422" stop-color="#D2D1D1"/>
<stop offset="0.89" stop-color="#E3E2E2"/>
<stop offset="1" stop-color="#E9E8E8"/>
</linearGradient>
<linearGradient id="paint25_linear_583_1500" x1="17.2209" y1="19.7645" x2="18.4083" y2="19.7645" gradientUnits="userSpaceOnUse">
<stop stop-color="#3E3B3B"/>
<stop offset="0.00561798" stop-color="#3E3B3B"/>
<stop offset="0.0166" stop-color="#454243"/>
<stop offset="0.0795" stop-color="#6B6969"/>
<stop offset="0.1491" stop-color="#8D8B8C"/>
<stop offset="0.2247" stop-color="#AAA8A9"/>
<stop offset="0.3084" stop-color="#C1C0C0"/>
<stop offset="0.4036" stop-color="#D3D2D2"/>
<stop offset="0.5173" stop-color="#DFDFDF"/>
<stop offset="0.6676" stop-color="#E6E6E6"/>
<stop offset="1" stop-color="#E9E8E8"/>
</linearGradient>
<linearGradient id="paint26_linear_583_1500" x1="3.99041" y1="4.63503" x2="2.2387" y2="9.94262" gradientUnits="userSpaceOnUse">
<stop stop-color="#393637"/>
<stop offset="0.1388" stop-color="#403C3D"/>
<stop offset="0.3301" stop-color="#514E4F"/>
<stop offset="0.552" stop-color="#6E6B6C"/>
<stop offset="0.7949" stop-color="#959494"/>
<stop offset="1" stop-color="#BDBBBC"/>
</linearGradient>
<linearGradient id="paint27_linear_583_1500" x1="4.18487" y1="15.0535" x2="3.2513" y2="19.5818" gradientUnits="userSpaceOnUse">
<stop stop-color="#5C595A"/>
<stop offset="0.00561798" stop-color="#5C595A"/>
<stop offset="0.0805" stop-color="#5A5758"/>
<stop offset="0.1074" stop-color="#535151"/>
<stop offset="0.1266" stop-color="#484545"/>
<stop offset="0.1404" stop-color="#393637"/>
<stop offset="0.3144" stop-color="#3D393A"/>
<stop offset="0.4554" stop-color="#474344"/>
<stop offset="0.5849" stop-color="#575455"/>
<stop offset="0.7074" stop-color="#6F6C6D"/>
<stop offset="0.8252" stop-color="#8D8B8C"/>
<stop offset="0.9377" stop-color="#B2B1B1"/>
<stop offset="0.9663" stop-color="#BDBBBC"/>
<stop offset="1" stop-color="#BDBBBC"/>
</linearGradient>
<linearGradient id="paint28_linear_583_1500" x1="5.79851" y1="19.9531" x2="6.08897" y2="19.7111" gradientUnits="userSpaceOnUse">
<stop stop-color="#5C595A"/>
<stop offset="0.00561798" stop-color="#5C595A"/>
<stop offset="0.0805" stop-color="#5A5758"/>
<stop offset="0.1074" stop-color="#535151"/>
<stop offset="0.1266" stop-color="#484545"/>
<stop offset="0.1404" stop-color="#393637"/>
<stop offset="0.3144" stop-color="#3D393A"/>
<stop offset="0.4554" stop-color="#474344"/>
<stop offset="0.5849" stop-color="#575455"/>
<stop offset="0.7074" stop-color="#6F6C6D"/>
<stop offset="0.8252" stop-color="#8D8B8C"/>
<stop offset="0.9377" stop-color="#B2B1B1"/>
<stop offset="0.9663" stop-color="#BDBBBC"/>
<stop offset="1" stop-color="#BDBBBC"/>
</linearGradient>
<linearGradient id="paint29_linear_583_1500" x1="10.1283" y1="11.9134" x2="13.1758" y2="12.2138" gradientUnits="userSpaceOnUse">
<stop stop-color="#E9E8E8"/>
<stop offset="0.00561798" stop-color="#E9E8E8"/>
<stop offset="0.2933" stop-color="#BFBEBF"/>
<stop offset="0.5994" stop-color="#9A9999"/>
<stop offset="0.8459" stop-color="#838182"/>
<stop offset="1" stop-color="#7B7979"/>
</linearGradient>
<linearGradient id="paint30_linear_583_1500" x1="3.4175" y1="11.1866" x2="19.306" y2="11.1866" gradientUnits="userSpaceOnUse">
<stop stop-color="#918F8F"/>
<stop offset="0.00561798" stop-color="#918F8F"/>
<stop offset="0.2933" stop-color="#676565"/>
<stop offset="0.5994" stop-color="#423F40"/>
<stop offset="0.8459" stop-color="#2B2829"/>
<stop offset="1" stop-color="#231F20"/>
</linearGradient>
<radialGradient id="paint31_radial_583_1500" cx="0" cy="0" r="1" gradientUnits="userSpaceOnUse" gradientTransform="translate(11.8457 11.9253) scale(5.86148 4.28305)">
<stop stop-color="#D3D1D2"/>
<stop offset="0.5" stop-color="#C9C7C8"/>
<stop offset="1" stop-color="#8D8B8C"/>
</radialGradient>
<radialGradient id="paint32_radial_583_1500" cx="0" cy="0" r="1" gradientUnits="userSpaceOnUse" gradientTransform="translate(11.8463 11.9253) scale(5.86188 4.28334)">
<stop stop-color="#D3D1D2"/>
<stop offset="0.5" stop-color="#C9C7C8"/>
<stop offset="1" stop-color="#8D8B8C"/>
</radialGradient>
<radialGradient id="paint33_radial_583_1500" cx="0" cy="0" r="1" gradientUnits="userSpaceOnUse" gradientTransform="translate(11.846 11.9254) scale(5.8594 4.28153)">
<stop stop-color="#D3D1D2"/>
<stop offset="0.5" stop-color="#C9C7C8"/>
<stop offset="1" stop-color="#8D8B8C"/>
</radialGradient>
<radialGradient id="paint34_radial_583_1500" cx="0" cy="0" r="1" gradientUnits="userSpaceOnUse" gradientTransform="translate(11.8463 11.9255) scale(5.86172 4.28322)">
<stop stop-color="#D3D1D2"/>
<stop offset="0.5" stop-color="#C9C7C8"/>
<stop offset="1" stop-color="#8D8B8C"/>
</radialGradient>
</defs>
</svg>
