<svg width="36" height="14" viewBox="0 0 36 14" fill="none" xmlns="http://www.w3.org/2000/svg">
<path d="M17.7772 0C7.90948 0 0 2.96171 0 6.66299C0 10.3448 7.97753 13.326 17.7772 13.326C27.5769 13.326 35.5545 10.3351 35.5545 6.66299C35.5545 2.99088 27.5769 0 17.7772 0ZM35.4475 6.14703C35.4572 6.1762 35.4572 6.21509 35.467 6.24425C35.4572 6.21509 35.4475 6.18592 35.4475 6.14703Z" fill="#C9C9CA"/>
<path d="M17.7768 0.263184C8.10417 0.263184 0.272461 3.11726 0.272461 6.66299C0.272461 10.199 8.10417 13.0628 17.7768 13.0628C27.4494 13.0628 35.2811 10.199 35.2811 6.66299C35.2811 3.11726 27.4494 0.263184 17.7768 0.263184Z" fill="url(#paint0_radial_583_1590)"/>
<path d="M17.8554 1.6077C26.0767 1.6077 32.8661 3.61459 33.8987 6.2152C33.2168 3.47779 26.2517 1.32507 17.7777 1.32507C8.83558 1.32507 1.58789 3.71181 1.58789 6.65338C1.58789 6.89712 1.6365 7.13045 1.724 7.36447C1.68511 7.20892 1.66567 7.0624 1.66567 6.89712C1.67608 3.9743 8.91336 1.6077 17.8554 1.6077Z" fill="url(#paint1_linear_583_1590)"/>
<path d="M34.4441 5.99084C34.5121 6.20542 34.551 6.42903 34.551 6.65332C34.551 9.87753 27.0408 12.4879 17.7772 12.4879C9.53649 12.4879 2.67906 10.4129 1.2666 7.69565C2.3381 10.5303 9.34205 12.7219 17.846 12.7316H17.9529C27.1971 12.7219 34.6781 10.131 34.6781 6.94568C34.6684 6.62416 34.5899 6.30264 34.4441 5.99084Z" fill="url(#paint2_linear_583_1590)"/>
<path d="M21.0014 7.55956C20.9625 7.46234 20.9528 7.36443 20.9819 7.25749C20.9916 7.2186 20.943 7.18944 20.9042 7.22832C20.5243 7.6179 20.5049 8.12482 20.7486 8.35815C20.8361 8.43593 20.934 8.47481 21.041 8.48454C20.8847 8.27065 20.8069 7.87067 21.0014 7.55956Z" fill="url(#paint3_linear_583_1590)"/>
<path d="M24.8104 8.30949C24.8298 8.2706 24.8493 8.23171 24.8687 8.19283C24.8881 8.16366 24.8784 8.15394 24.859 8.14422C24.8201 8.13449 24.7812 8.10533 24.7715 8.06644C24.7715 8.05672 24.7715 8.05672 24.7715 8.047C24.7812 8.12408 24.8006 8.23102 24.8104 8.30949Z" fill="url(#paint4_linear_583_1590)"/>
<path d="M25.2393 6.77966C25.3656 6.89633 25.4441 7.04285 25.4538 7.17896C25.4636 7.24701 25.5122 7.24701 25.5511 7.1984C25.5608 7.17896 25.5705 7.16923 25.5899 7.14007C25.5802 7.12063 25.5705 7.1109 25.5608 7.09146C25.4538 6.98452 25.3462 6.87758 25.2393 6.77966Z" fill="url(#paint5_linear_583_1590)"/>
<path d="M20.0371 6.53662C20.1343 6.67273 20.1829 6.86786 20.1732 7.12133C20.1732 7.18938 20.2218 7.17966 20.251 7.14077C20.2704 7.1116 20.2802 7.09216 20.2996 7.07272C20.2225 6.838 20.1156 6.6144 20.0371 6.53662Z" fill="url(#paint6_linear_583_1590)"/>
<path d="M24.7134 7.1991C24.4016 7.05328 23.9342 7.32549 23.5058 7.85186C23.1551 8.28032 22.9697 8.7185 22.96 9.14766C22.96 9.30321 23.0183 9.48862 23.1454 9.55667C23.1843 9.57612 23.2329 9.59556 23.2815 9.60528C23.262 9.54695 23.262 9.48862 23.262 9.43029C23.2523 8.99211 23.3981 8.55392 23.7488 8.11505C24.1773 7.58937 24.6155 7.32618 24.9273 7.47201C24.8981 7.36438 24.8398 7.25744 24.7134 7.1991Z" fill="url(#paint7_linear_583_1590)"/>
<path d="M15.4494 8.07551C15.7806 7.63733 16.141 7.46164 16.5598 7.28665C16.6181 7.26721 16.6181 7.22832 16.6084 7.17971C16.5889 7.09221 16.5306 6.88735 16.5112 6.83875C16.5209 6.88735 16.5112 6.91652 16.4626 6.93596C15.9855 7.12137 15.5077 7.39359 15.1765 7.84219C14.8064 8.3387 14.6994 8.94285 14.9522 9.29353C15.0105 9.37131 15.0786 9.43936 15.157 9.47894C15.0307 9.05951 15.1286 8.50397 15.4494 8.07551Z" fill="url(#paint8_linear_583_1590)"/>
<path d="M17.8453 10.6955C18.1668 10.6955 18.5661 10.6955 18.8293 10.6955C18.8682 10.6955 18.8974 10.6664 18.9168 10.6372C19.3161 10.0136 19.7446 9.33167 20.1536 8.70877C20.2411 9.02057 20.2897 9.17612 20.4557 9.32264C20.6209 9.47819 20.7869 9.51778 21.0112 9.51778C21.2258 9.51778 21.4299 9.44 21.6737 9.33237C21.7612 9.29348 21.839 9.25459 21.9077 9.20598C21.9077 9.08932 21.9174 8.97196 21.9369 8.86502C21.9369 8.8553 21.9271 8.77752 21.8591 8.82613C21.723 8.92335 21.5765 9.00113 21.4112 9.06987C21.1869 9.15737 21.08 9.18654 20.8654 9.18654C20.6022 9.18654 20.3689 9.06987 20.1932 8.80669C20.096 8.67058 20.0571 8.44628 20.0571 8.29073C20.0571 8.27129 20.0376 8.24212 20.0085 8.28101C19.5606 8.96293 19.1515 9.61569 18.7127 10.2976C18.6932 10.3268 18.6738 10.3462 18.6252 10.3559C18.3523 10.3559 18.0599 10.3559 17.7585 10.3559C17.7294 10.3559 17.7002 10.3462 17.7002 10.3171C17.7196 10.424 17.7585 10.6094 17.7682 10.658C17.787 10.6761 17.8064 10.6955 17.8453 10.6955Z" fill="url(#paint9_linear_583_1590)"/>
<path d="M22.1408 10.3254C22.2186 10.4713 22.3846 10.6275 22.4818 10.6761C23.0568 10.9588 23.8845 10.6372 24.4102 10.1303C24.4199 10.1206 24.4199 10.1206 24.4199 10.1109C24.4394 10.1984 24.4782 10.3157 24.4782 10.3254C24.5171 10.4421 24.5755 10.5497 24.6241 10.6081C24.9845 11.0171 25.7539 10.8324 26.5525 10.2088C27.0004 9.86781 27.3316 9.51713 27.7406 9.04006C27.7601 9.02061 27.7601 8.99145 27.7504 8.94284C27.7309 8.8359 27.692 8.65049 27.6726 8.56299C27.6726 8.58243 27.6629 8.59216 27.6531 8.60188C27.2344 9.11783 26.7566 9.60532 26.3087 9.956C25.6171 10.4921 24.9157 10.6282 24.5748 10.2872C24.4484 10.1609 24.3796 9.97545 24.3699 9.81989C24.3699 9.7324 24.3213 9.7324 24.2824 9.77129C23.8734 10.1803 23.1623 10.6282 22.5096 10.3074C22.1783 10.1421 22.0033 9.83031 21.9346 9.48935V9.49907C21.9755 9.76087 22.0339 10.1018 22.1408 10.3254Z" fill="url(#paint10_linear_583_1590)"/>
<path d="M21.8589 8.11439C22.0734 7.99772 22.2582 7.75398 22.2387 7.35469C22.229 7.15956 22.1707 6.9554 22.0734 6.78943C22.1318 6.90609 22.1609 7.05261 22.1415 7.19844C22.1026 7.45191 21.9561 7.68523 21.7228 7.80259C21.5179 7.89981 21.2846 7.88037 21.1186 7.73454C21.07 7.68593 21.0311 7.63732 21.002 7.56926C21.0408 7.7644 21.0797 7.91023 21.1283 7.97828C21.2943 8.22133 21.5575 8.28035 21.8589 8.11439Z" fill="url(#paint11_linear_583_1590)"/>
<path d="M28.2188 4.75413C28.0827 4.98816 25.4814 8.95262 25.3161 9.36163C25.2675 9.48802 25.2578 9.59565 25.3064 9.66371C25.3647 9.73176 25.4425 9.76092 25.5307 9.76092C25.5404 9.71232 25.5598 9.65399 25.5793 9.59565C25.7446 9.18664 28.1799 5.47495 28.3167 5.24162C28.3264 5.22218 28.3264 5.20273 28.3167 5.18329C28.307 5.1444 28.2292 4.75483 28.2195 4.71594C28.2285 4.72497 28.2285 4.74441 28.2188 4.75413Z" fill="url(#paint12_linear_583_1590)"/>
<path d="M17.417 6.59497C17.4267 6.60469 17.4267 6.61441 17.4364 6.62414C17.592 6.85816 17.6802 7.1894 17.6899 7.52064C17.6996 7.58869 17.7288 7.59841 17.7677 7.55952C17.7968 7.53036 17.826 7.49147 17.8649 7.46231C17.8163 7.27689 17.7482 7.11162 17.6795 6.95607C17.6316 6.89704 17.5142 6.69219 17.417 6.59497Z" fill="url(#paint13_linear_583_1590)"/>
<path d="M13.2079 10.306C13.2565 10.3254 13.3051 10.306 13.3246 10.2963C13.4801 10.2185 13.7919 9.97476 13.9287 9.80949C13.9676 9.7706 14.0065 9.79977 14.0162 9.83865C14.0746 10.0136 14.1523 10.1504 14.2405 10.2963C14.3377 10.4616 14.5426 10.6275 14.7961 10.6956C15.1273 10.7928 15.4974 10.8025 15.9648 10.6275C16.3446 10.4817 16.7439 10.1893 17.0557 9.84837C17.4258 9.44908 17.5619 9.19562 17.6987 9.02062C17.9425 8.72827 18.3126 8.20259 18.8286 7.75399C19.014 7.59844 19.2084 7.50053 19.3348 7.54914C19.4126 7.35401 19.3737 7.24706 19.2959 7.19845C19.1695 7.12068 18.9258 7.23734 18.7209 7.39359C18.1557 7.82205 17.6883 8.48453 17.4446 8.77688C17.3085 8.95187 17.1717 9.20534 16.8016 9.60463C16.2266 10.2379 15.4571 10.5984 14.7169 10.3449C14.3176 10.2088 14.0252 9.88726 13.9086 9.48797C13.8891 9.41019 13.8405 9.39075 13.8016 9.43936C13.685 9.58519 13.4412 9.80949 13.2364 9.94559C13.2169 9.96504 13.1586 9.9942 13.11 9.97476C13.0711 9.95532 12.9149 9.74074 12.8857 9.68241C12.8857 9.67269 12.876 9.67269 12.876 9.66296C12.9246 9.92615 12.9343 9.95532 13.0121 10.0817C13.1107 10.1991 13.1885 10.2963 13.2079 10.306Z" fill="url(#paint14_linear_583_1590)"/>
<path d="M8.74777 7.92967C8.93318 7.54982 9.19568 7.37413 9.45886 7.20886C9.5658 7.1408 9.61441 7.07275 9.55608 6.88734C9.53664 6.83873 9.52692 6.74151 9.50747 6.65332C9.51719 6.7311 9.47831 6.80887 9.40053 6.83873C9.08874 7.004 8.70889 7.27691 8.51445 7.65676C8.3589 7.96856 8.32904 8.33868 8.56306 8.68937C8.5825 8.71853 8.60194 8.7477 8.63111 8.76714C8.55264 8.48451 8.63042 8.17272 8.74777 7.92967Z" fill="url(#paint15_linear_583_1590)"/>
<path d="M11.9811 3.36102C13.1304 2.98117 14.4067 3.22491 15.4393 3.43879C15.5852 3.35129 15.7122 3.28324 15.8386 3.21449C15.897 3.18533 15.8289 3.14644 15.8095 3.14644C14.4845 2.89297 13.1012 2.57146 11.7867 3.05894C10.8707 3.3999 10.4714 4.12071 10.6666 4.6075C10.7054 4.695 10.7638 4.77278 10.8422 4.82208C10.7728 4.37418 11.104 3.64365 11.9811 3.36102Z" fill="url(#paint16_linear_583_1590)"/>
<path d="M8.24027 10.2964C8.62012 10.5595 8.99025 10.647 9.41871 10.6568C10.2951 10.6762 11.1041 10.3061 11.9513 9.44916C12.77 8.62141 13.4714 7.46172 14.1727 6.31245C14.1922 6.27356 14.2213 6.25412 14.338 6.23468C14.7762 6.17635 15.1658 6.1569 15.5553 6.11801C15.672 6.10829 15.7602 6.09857 15.7991 6.13746C15.9352 6.27356 16.1011 6.40064 16.2081 6.4687C16.2761 6.4687 16.3345 6.48814 16.3831 6.52703C16.4317 6.51731 16.4706 6.49786 16.4997 6.4687C16.5484 6.42009 16.5484 6.36176 16.5484 6.31315C16.5289 6.21593 16.5095 6.03052 16.4706 5.97219C16.49 6.01107 16.4803 6.0694 16.4317 6.11801C16.4025 6.1569 16.3539 6.18607 16.2956 6.18607C16.247 6.18607 16.2178 6.16662 16.1498 6.13746C16.0234 6.0694 15.8574 5.95205 15.7505 5.81594C15.7116 5.76733 15.6921 5.76733 15.6046 5.77705C15.1956 5.7965 14.5429 5.86455 14.1144 5.91316C14.0075 5.92288 13.9977 5.94232 13.9686 5.98121C13.2769 7.13048 12.5269 8.36795 11.7089 9.1957C10.8326 10.0818 10.1013 10.3158 9.33191 10.3255C8.43541 10.3352 7.64654 9.82901 7.44238 8.94223C7.55835 9.43944 7.87987 10.0332 8.24027 10.2964Z" fill="url(#paint17_linear_583_1590)"/>
<path d="M11.5429 6.4387C11.5235 6.40953 11.5138 6.37064 11.5138 6.34148C11.504 6.48731 11.5624 6.7116 11.611 6.77966C11.6596 6.85743 11.8158 6.89632 11.9325 6.80882C12.1957 6.61369 12.4387 6.49703 12.7116 6.44842C12.7797 6.3512 12.8575 6.25329 12.9457 6.1269C12.9554 6.11718 12.9554 6.10746 12.9554 6.09773C12.9554 6.08801 12.9457 6.08801 12.9262 6.08801C12.5269 6.09773 12.186 6.2144 11.8547 6.46786C11.7381 6.54633 11.602 6.52689 11.5429 6.4387Z" fill="url(#paint18_linear_583_1590)"/>
<path d="M22.2776 3.7506C21.722 4.05267 21.1478 4.14017 20.5436 4.14989C19.0825 4.15962 17.7284 3.59436 16.3257 3.29298C16.3257 3.35131 16.3451 3.42908 16.2965 3.46797C15.5174 4.04295 14.816 4.62696 14.3382 5.44569C14.3188 5.46513 14.3285 5.48457 14.3577 5.48457C14.4841 5.47485 14.6014 5.47485 14.7181 5.46513C15.1465 4.79293 15.6042 4.40336 16.3055 3.8874C16.3542 3.84851 16.4125 3.81935 16.393 3.67283C17.8055 3.98462 18.877 4.50058 20.6985 4.5103C21.2443 4.5103 22.004 4.3353 22.4227 4.08184C22.8998 3.79921 23.0269 3.58533 23.0366 3.37075C23.0463 3.3027 23.0269 3.19576 23.0171 3.14645C22.9977 3.06868 22.988 2.97146 22.9685 2.90271C22.9783 2.93188 22.9783 2.96104 22.9783 2.99993C22.9595 3.24367 22.7644 3.48741 22.2776 3.7506Z" fill="url(#paint19_linear_583_1590)"/>
<path d="M16.1898 4.6951C16.1704 4.71455 16.151 4.72427 16.1315 4.74371C15.9954 4.88954 15.9461 5.07495 15.9662 5.22078C15.976 5.27911 15.9954 5.28884 16.0246 5.28884C16.0537 5.27911 16.0829 5.27911 16.1023 5.25967C16.1121 5.18189 16.1412 5.10412 16.2287 5.03537C16.2871 4.98676 16.3551 4.9576 16.4239 4.96732C16.4822 4.86038 16.4919 4.7333 16.4239 4.67497C16.3648 4.62705 16.2676 4.63677 16.1898 4.6951Z" fill="url(#paint20_linear_583_1590)"/>
<path d="M16.7451 5.20204C16.609 5.45551 16.3944 5.59161 16.1798 5.65967C16.1798 5.65967 16.1312 5.66939 16.1409 5.70828C16.1507 5.75689 16.2965 5.84438 16.3944 5.91313C16.4041 5.91313 16.4236 5.90341 16.4236 5.90341C16.5305 5.86452 16.7159 5.74786 16.8131 5.52356C16.8812 5.37773 16.9201 5.26037 16.8909 5.0076C16.8715 4.83261 16.8326 4.66664 16.784 4.58887C16.8812 4.77358 16.852 5.00691 16.7451 5.20204Z" fill="url(#paint21_linear_583_1590)"/>
<path d="M12.8292 4.28605C12.4397 5.19227 11.7091 5.91308 10.8126 5.94225C10.3064 5.96169 9.92653 5.71795 9.72168 5.35754C9.86751 5.63045 10.121 5.86378 10.3453 6.00058C10.5404 6.11724 10.7835 6.18599 11.0564 6.17557C11.9917 6.14641 12.7028 5.37699 12.9362 4.72423C12.9945 4.54923 12.9459 4.36382 12.9167 4.23744C12.907 4.18883 12.8876 4.08189 12.8487 4.00342C12.8778 4.07217 12.8778 4.15966 12.8292 4.28605Z" fill="url(#paint22_linear_583_1590)"/>
<path d="M17.7772 0C7.90948 0 0 2.96171 0 6.66299C0 10.3448 7.97753 13.326 17.7772 13.326C27.5769 13.326 35.5545 10.3351 35.5545 6.66299C35.5545 2.99088 27.5769 0 17.7772 0ZM0.126385 6.74077C0.126385 5.96162 0.467347 5.18248 1.18816 4.45195C3.73044 1.8805 10.4032 0.146523 17.7481 0.117358C27.479 0.07847 35.4184 2.98116 35.4378 6.58522C35.4378 7.36436 35.0774 8.13378 34.3566 8.85459C31.8143 11.426 25.161 13.1697 17.8161 13.1989C8.07545 13.2482 0.136107 10.3448 0.126385 6.74077ZM35.4475 6.14703C35.4572 6.1762 35.4572 6.21509 35.467 6.24425C35.4572 6.21509 35.4475 6.18592 35.4475 6.14703Z" fill="#4B4B4B"/>
<path d="M0.0585938 6.66304C0.0585938 6.83804 0.0780376 7.01373 0.116925 7.179C0.0877595 7.03317 0.0780376 6.88665 0.0780376 6.7311C0.0780376 5.94223 0.428721 5.14364 1.15925 4.4027C3.72098 1.82152 10.3937 0.08755 17.7581 0.0583842C18.7809 0.0583842 19.7747 0.0778277 20.758 0.136159C19.774 0.0778277 18.7802 0.0389404 17.7872 0.0389404C7.94863 0.0486624 0.0585938 3.00066 0.0585938 6.66304Z" fill="url(#paint23_linear_583_1590)"/>
<path d="M34.3854 8.90321C31.8334 11.4747 25.1607 13.2281 17.806 13.2572C16.7832 13.267 15.77 13.2378 14.7568 13.1698C15.7408 13.2281 16.754 13.267 17.7762 13.267C27.546 13.267 35.4951 10.2865 35.4951 6.66231C35.4951 6.5262 35.4854 6.3894 35.4562 6.2533C35.4756 6.36996 35.4756 6.47759 35.4756 6.59426C35.4958 7.38382 35.1159 8.17268 34.3854 8.90321Z" fill="url(#paint24_linear_583_1590)"/>
<path d="M17.7777 0.818726C8.51409 0.818726 1.00391 3.42906 1.00391 6.65327C1.00391 9.87748 8.51409 12.4878 17.7777 12.4878C27.0413 12.4878 34.5515 9.87748 34.5515 6.65327C34.5515 3.43878 27.0413 0.818726 17.7777 0.818726ZM17.7777 11.9913C8.83561 11.9913 1.58792 9.60457 1.58792 6.66299C1.58792 3.72141 8.83561 1.33468 17.7777 1.33468C26.7198 1.33468 33.9675 3.72141 33.9675 6.66299C33.9578 9.60457 26.7198 11.9913 17.7777 11.9913Z" fill="white"/>
<path d="M28.2194 4.75409C28.2388 4.7152 28.2194 4.68604 28.1708 4.68604C27.8978 4.68604 27.5472 4.68604 27.2743 4.68604C27.2062 4.68604 27.177 4.69576 27.1381 4.75409C27.0312 4.94922 25.784 6.82903 25.5507 7.19915C25.5118 7.25748 25.4632 7.24776 25.4535 7.17971C25.434 6.96513 25.2389 6.71236 24.9472 6.595C24.7229 6.50751 24.4993 6.48806 24.275 6.51723C23.866 6.57556 23.4959 6.79014 23.1744 7.03318C22.6876 7.40331 22.2682 7.88038 21.723 8.24079C21.4307 8.43592 21.0217 8.60119 20.7488 8.34773C20.505 8.12343 20.5342 7.61719 20.9043 7.2179C20.9432 7.17901 20.9918 7.20818 20.9821 7.24707C20.9432 7.42206 20.9918 7.59775 21.1279 7.72414C21.2932 7.86997 21.5272 7.88941 21.7321 7.79219C21.9661 7.67553 22.1119 7.45123 22.1508 7.18804C22.2091 6.78875 21.9071 6.43806 21.5175 6.4089C21.2057 6.38946 20.9036 6.4964 20.6113 6.74014C20.4654 6.8568 20.3772 6.95472 20.2509 7.12971C20.2217 7.17832 20.1731 7.17832 20.1731 7.11027C20.1828 6.60403 19.9779 6.31168 19.5495 6.30196C19.2182 6.29224 18.8676 6.46723 18.5947 6.69153C18.2926 6.93527 18.0294 7.24707 17.7475 7.54845C17.7086 7.58734 17.6794 7.58734 17.6697 7.50956C17.66 7.1686 17.5725 6.83736 17.4162 6.61306C17.3579 6.53528 17.2412 6.4964 17.1433 6.54501C17.0947 6.57417 16.9385 6.64223 16.8218 6.73042C16.7635 6.77903 16.744 6.84708 16.7635 6.93527C16.919 7.44151 16.8801 8.01649 16.676 8.50328C16.4906 8.95118 16.1204 9.35048 15.692 9.48728C15.4093 9.57478 15.117 9.53589 14.9323 9.28242C14.6788 8.93174 14.7864 8.32759 15.1566 7.83108C15.4878 7.3929 15.9649 7.11027 16.4426 6.92485C16.501 6.90541 16.5107 6.86652 16.4912 6.81792C16.4621 6.74014 16.4232 6.6325 16.4038 6.58389C16.3649 6.46723 16.2385 6.44779 16.092 6.46723C15.751 6.50612 15.4295 6.62278 15.1274 6.78875C14.3191 7.21721 13.9198 8.05538 13.7344 8.50328C13.6469 8.71786 13.5788 8.85396 13.4809 8.97063C13.3545 9.12618 13.1983 9.2727 12.9059 9.53589C12.8768 9.55533 12.8573 9.60394 12.8865 9.65255C12.9157 9.71088 13.0719 9.92546 13.1108 9.9449C13.1594 9.96435 13.2177 9.93518 13.2372 9.91574C13.442 9.77963 13.6851 9.55533 13.8024 9.4095C13.8413 9.36089 13.8899 9.38034 13.9094 9.45811C14.0163 9.8574 14.3087 10.1789 14.7177 10.315C15.4579 10.5685 16.2274 10.2081 16.8024 9.57477C17.1725 9.17548 17.2989 8.92202 17.4454 8.74702C17.6891 8.45467 18.1565 7.79219 18.7217 7.36373C18.9266 7.20818 19.1696 7.09082 19.2967 7.1686C19.3939 7.23665 19.4231 7.38317 19.2676 7.66511C18.6926 8.70744 17.8551 9.94421 17.6995 10.2366C17.6704 10.2852 17.6995 10.3338 17.7482 10.3338C18.0502 10.3338 18.3426 10.3338 18.6148 10.3338C18.6634 10.3338 18.6828 10.3143 18.7023 10.2754C19.1405 9.5838 19.5592 8.93104 19.9981 8.25884C20.0273 8.21996 20.0467 8.24912 20.0467 8.26856C20.0564 8.42411 20.0953 8.63869 20.1828 8.78452C20.3481 9.04771 20.5918 9.15465 20.855 9.15465C21.0696 9.15465 21.1668 9.12548 21.4008 9.03799C21.5564 8.97965 21.7126 8.90188 21.8487 8.79424C21.9168 8.74563 21.9265 8.82341 21.9265 8.83313C21.8293 9.37895 21.9459 10.031 22.4918 10.2942C23.1445 10.6157 23.8556 10.1678 24.2646 9.7581C24.3035 9.71921 24.3521 9.71921 24.3521 9.80671C24.3618 9.96226 24.4299 10.1477 24.557 10.2741C24.8979 10.615 25.5993 10.4789 26.2909 9.94282C26.7389 9.60186 27.2069 9.10535 27.6354 8.58869C27.6548 8.56925 27.6645 8.54008 27.6354 8.5012C27.5673 8.43314 27.4798 8.35537 27.4111 8.29634C27.3819 8.2769 27.343 8.2769 27.3138 8.29634C26.8854 8.70536 26.4861 9.18243 25.9305 9.56297C25.7354 9.69908 25.434 9.80671 25.2972 9.6213C25.2486 9.55325 25.2486 9.44631 25.3069 9.31923C25.4826 8.95188 28.0833 4.98741 28.2194 4.75409ZM24.7813 8.07551C24.791 8.10468 24.8299 8.13385 24.8688 8.15329C24.8785 8.16301 24.8882 8.16301 24.8785 8.2019C24.7716 8.43592 24.6639 8.57203 24.5278 8.7866C24.4014 8.98174 24.2549 9.12757 24.0799 9.26367C23.8167 9.47825 23.4563 9.7213 23.1542 9.55603C23.0181 9.48797 22.9591 9.30256 22.9688 9.14701C22.9785 8.71855 23.164 8.28037 23.5146 7.85122C23.9431 7.32554 24.4111 7.05263 24.7222 7.19846C25.0438 7.35401 24.9368 7.72414 24.8 8.01649C24.7716 8.03663 24.7715 8.05607 24.7813 8.07551Z" fill="white"/>
<path d="M9.33156 10.3351C8.35728 10.3449 7.51009 9.74071 7.40315 8.69838C7.34481 8.1234 7.51009 7.60744 7.84133 7.18871C8.13368 6.80886 8.62047 6.49706 9.02948 6.41928C9.16559 6.39012 9.34128 6.40956 9.41906 6.49706C9.53572 6.63317 9.50655 6.77969 9.38989 6.84774C9.07809 7.01302 8.69824 7.28592 8.50381 7.66577C8.34826 7.97757 8.3184 8.3477 8.55242 8.69838C8.94199 9.28309 10.0329 9.30253 11.0364 8.36714C11.2898 8.13312 11.5134 7.91924 11.7377 7.65605C12.1856 7.14982 12.3322 6.96441 12.9259 6.13665C12.9356 6.12693 12.9356 6.11721 12.9356 6.10749C12.9356 6.09777 12.9259 6.09777 12.9064 6.09777C12.5072 6.10749 12.1662 6.22415 11.835 6.47762C11.7377 6.54567 11.6009 6.53595 11.5426 6.44845C11.4745 6.34151 11.5232 6.20471 11.6301 6.12693C12.1662 5.7568 12.7599 5.68875 13.3544 5.58112C13.3544 5.58112 13.3932 5.58112 13.4321 5.54223C13.6759 5.23043 13.8606 4.93808 14.1238 4.61656C14.387 4.29504 14.7279 3.99297 14.9904 3.76937C15.3508 3.45757 15.5848 3.35063 15.8279 3.22355C15.8862 3.19438 15.8182 3.1555 15.7987 3.1555C14.4738 2.90203 13.0905 2.58051 11.7759 3.068C10.86 3.40896 10.4607 4.12977 10.6558 4.61656C10.7919 4.95752 11.2405 5.01586 11.669 4.81169C12.0391 4.62628 12.3509 4.35407 12.5752 4.00339C12.7016 3.80825 12.9745 3.94505 12.8287 4.29574C12.4391 5.20196 11.7086 5.92277 10.8121 5.95194C10.0524 5.9811 9.55516 5.41584 9.55516 4.72489C9.55516 3.36104 11.0843 2.45552 12.6822 2.31872C14.6106 2.16317 16.4327 2.6694 18.3514 2.90342C19.8222 3.07841 21.2249 3.08883 22.6957 2.74787C22.8714 2.70898 22.9881 2.82564 22.9784 3.00133C22.9686 3.2548 22.7638 3.49785 22.2867 3.76103C21.7312 4.06311 21.1569 4.1506 20.5527 4.16033C19.0917 4.17005 17.7376 3.60479 16.3348 3.30341C16.3348 3.36174 16.3543 3.43951 16.3057 3.4784C15.5265 4.05338 14.8251 4.63739 14.3474 5.45612C14.3279 5.47556 14.3377 5.49501 14.3668 5.49501C14.7758 5.47556 15.146 5.46584 15.5258 5.43668C15.5939 5.42695 15.5939 5.41723 15.5939 5.36862C15.5647 5.08599 15.6425 4.76447 15.8862 4.54087C16.1397 4.31657 16.4612 4.2874 16.6654 4.45337C16.9091 4.63878 16.8799 4.97905 16.7529 5.23251C16.6168 5.48598 16.4022 5.62209 16.1876 5.69014C16.1876 5.69014 16.139 5.69986 16.1487 5.73875C16.1584 5.8068 16.4411 5.96305 16.4702 6.00194C16.4897 6.04082 16.48 6.10888 16.4411 6.15749C16.4119 6.19637 16.3633 6.22554 16.305 6.22554C16.2563 6.22554 16.2272 6.2061 16.1591 6.17693C16.0327 6.10888 15.8668 5.99152 15.7598 5.85541C15.7209 5.8068 15.7015 5.8068 15.614 5.81653C15.205 5.83597 14.5522 5.90402 14.1238 5.95263C14.0168 5.96235 14.0071 5.9818 13.9779 6.02069C13.2863 7.16996 12.5363 8.40742 11.7183 9.23517C10.8315 10.0921 10.1107 10.3254 9.33156 10.3351ZM15.9751 5.23113C15.9848 5.28946 16.0043 5.29918 16.0334 5.29918C16.1695 5.27001 16.3063 5.16307 16.3938 5.03599C16.4716 4.91933 16.5105 4.75336 16.4327 4.68531C16.3647 4.62698 16.2473 4.64642 16.1695 4.71448C16.0043 4.861 15.9459 5.07558 15.9751 5.23113Z" fill="white"/>
<defs>
<radialGradient id="paint0_radial_583_1590" cx="0" cy="0" r="1" gradientUnits="userSpaceOnUse" gradientTransform="translate(17.6556 21.9906) scale(76.599 38.9043)">
<stop stop-color="#00082E"/>
<stop offset="0.155" stop-color="#000A30"/>
<stop offset="0.242" stop-color="#010F39"/>
<stop offset="0.312" stop-color="#011946"/>
<stop offset="0.373" stop-color="#02275A"/>
<stop offset="0.414" stop-color="#03346C"/>
<stop offset="0.439" stop-color="#0B4F87"/>
<stop offset="0.48" stop-color="#1676AF"/>
<stop offset="0.513" stop-color="#1C8EC7"/>
<stop offset="0.533" stop-color="#1F97D0"/>
<stop offset="1" stop-color="#1F97D0"/>
</radialGradient>
<linearGradient id="paint1_linear_583_1590" x1="17.7443" y1="13.4668" x2="17.7443" y2="-0.0810022" gradientUnits="userSpaceOnUse">
<stop stop-color="#00082E"/>
<stop offset="0.321" stop-color="#010A30"/>
<stop offset="0.501" stop-color="#030F39"/>
<stop offset="0.647" stop-color="#071846"/>
<stop offset="0.773" stop-color="#0D245A"/>
<stop offset="0.809" stop-color="#0F2961"/>
<stop offset="0.839" stop-color="#0B386E"/>
<stop offset="0.896" stop-color="#054E83"/>
<stop offset="0.951" stop-color="#015B90"/>
<stop offset="1" stop-color="#006094"/>
</linearGradient>
<linearGradient id="paint2_linear_583_1590" x1="17.9723" y1="13.4705" x2="17.9723" y2="-0.0854287" gradientUnits="userSpaceOnUse">
<stop stop-color="#00082E"/>
<stop offset="0.321" stop-color="#010A30"/>
<stop offset="0.501" stop-color="#030F39"/>
<stop offset="0.647" stop-color="#071846"/>
<stop offset="0.773" stop-color="#0D245A"/>
<stop offset="0.809" stop-color="#0F2961"/>
<stop offset="0.839" stop-color="#0B386E"/>
<stop offset="0.896" stop-color="#054E83"/>
<stop offset="0.951" stop-color="#015B90"/>
<stop offset="1" stop-color="#006094"/>
</linearGradient>
<linearGradient id="paint3_linear_583_1590" x1="20.8139" y1="11.1807" x2="20.8139" y2="1.66298" gradientUnits="userSpaceOnUse">
<stop stop-color="#00082E"/>
<stop offset="0.321" stop-color="#010A30"/>
<stop offset="0.501" stop-color="#030F39"/>
<stop offset="0.647" stop-color="#071846"/>
<stop offset="0.773" stop-color="#0D245A"/>
<stop offset="0.809" stop-color="#0F2961"/>
<stop offset="0.839" stop-color="#0B386E"/>
<stop offset="0.896" stop-color="#054E83"/>
<stop offset="0.951" stop-color="#015B90"/>
<stop offset="1" stop-color="#006094"/>
</linearGradient>
<linearGradient id="paint4_linear_583_1590" x1="24.8254" y1="11.154" x2="24.8254" y2="1.70056" gradientUnits="userSpaceOnUse">
<stop stop-color="#00082E"/>
<stop offset="0.321" stop-color="#010A30"/>
<stop offset="0.501" stop-color="#030F39"/>
<stop offset="0.647" stop-color="#071846"/>
<stop offset="0.773" stop-color="#0D245A"/>
<stop offset="0.809" stop-color="#0F2961"/>
<stop offset="0.839" stop-color="#0B386E"/>
<stop offset="0.896" stop-color="#054E83"/>
<stop offset="0.951" stop-color="#015B90"/>
<stop offset="1" stop-color="#006094"/>
</linearGradient>
<linearGradient id="paint5_linear_583_1590" x1="25.4144" y1="11.1354" x2="25.4144" y2="1.73034" gradientUnits="userSpaceOnUse">
<stop stop-color="#00082E"/>
<stop offset="0.321" stop-color="#010A30"/>
<stop offset="0.501" stop-color="#030F39"/>
<stop offset="0.647" stop-color="#071846"/>
<stop offset="0.773" stop-color="#0D245A"/>
<stop offset="0.809" stop-color="#0F2961"/>
<stop offset="0.839" stop-color="#0B386E"/>
<stop offset="0.896" stop-color="#054E83"/>
<stop offset="0.951" stop-color="#015B90"/>
<stop offset="1" stop-color="#006094"/>
</linearGradient>
<linearGradient id="paint6_linear_583_1590" x1="20.1682" y1="11.198" x2="20.1682" y2="1.6619" gradientUnits="userSpaceOnUse">
<stop stop-color="#00082E"/>
<stop offset="0.321" stop-color="#010A30"/>
<stop offset="0.501" stop-color="#030F39"/>
<stop offset="0.647" stop-color="#071846"/>
<stop offset="0.773" stop-color="#0D245A"/>
<stop offset="0.809" stop-color="#0F2961"/>
<stop offset="0.839" stop-color="#0B386E"/>
<stop offset="0.896" stop-color="#054E83"/>
<stop offset="0.951" stop-color="#015B90"/>
<stop offset="1" stop-color="#006094"/>
</linearGradient>
<linearGradient id="paint7_linear_583_1590" x1="23.9435" y1="11.1564" x2="23.9435" y2="1.66216" gradientUnits="userSpaceOnUse">
<stop stop-color="#00082E"/>
<stop offset="0.321" stop-color="#010A30"/>
<stop offset="0.501" stop-color="#030F39"/>
<stop offset="0.647" stop-color="#071846"/>
<stop offset="0.773" stop-color="#0D245A"/>
<stop offset="0.809" stop-color="#0F2961"/>
<stop offset="0.839" stop-color="#0B386E"/>
<stop offset="0.896" stop-color="#054E83"/>
<stop offset="0.951" stop-color="#015B90"/>
<stop offset="1" stop-color="#006094"/>
</linearGradient>
<linearGradient id="paint8_linear_583_1590" x1="15.7148" y1="11.1762" x2="15.7148" y2="1.68369" gradientUnits="userSpaceOnUse">
<stop stop-color="#00082E"/>
<stop offset="0.321" stop-color="#010A30"/>
<stop offset="0.501" stop-color="#030F39"/>
<stop offset="0.647" stop-color="#071846"/>
<stop offset="0.773" stop-color="#0D245A"/>
<stop offset="0.809" stop-color="#0F2961"/>
<stop offset="0.839" stop-color="#0B386E"/>
<stop offset="0.896" stop-color="#054E83"/>
<stop offset="0.951" stop-color="#015B90"/>
<stop offset="1" stop-color="#006094"/>
</linearGradient>
<linearGradient id="paint9_linear_583_1590" x1="19.8179" y1="11.1653" x2="19.8179" y2="1.66151" gradientUnits="userSpaceOnUse">
<stop stop-color="#00082E"/>
<stop offset="0.321" stop-color="#010A30"/>
<stop offset="0.501" stop-color="#030F39"/>
<stop offset="0.647" stop-color="#071846"/>
<stop offset="0.773" stop-color="#0D245A"/>
<stop offset="0.809" stop-color="#0F2961"/>
<stop offset="0.839" stop-color="#0B386E"/>
<stop offset="0.896" stop-color="#054E83"/>
<stop offset="0.951" stop-color="#015B90"/>
<stop offset="1" stop-color="#006094"/>
</linearGradient>
<linearGradient id="paint10_linear_583_1590" x1="24.8468" y1="11.2012" x2="24.8468" y2="1.63114" gradientUnits="userSpaceOnUse">
<stop stop-color="#00082E"/>
<stop offset="0.321" stop-color="#010A30"/>
<stop offset="0.501" stop-color="#030F39"/>
<stop offset="0.647" stop-color="#071846"/>
<stop offset="0.773" stop-color="#0D245A"/>
<stop offset="0.809" stop-color="#0F2961"/>
<stop offset="0.839" stop-color="#0B386E"/>
<stop offset="0.896" stop-color="#054E83"/>
<stop offset="0.951" stop-color="#015B90"/>
<stop offset="1" stop-color="#006094"/>
</linearGradient>
<linearGradient id="paint11_linear_583_1590" x1="21.6207" y1="11.2199" x2="21.6207" y2="1.66529" gradientUnits="userSpaceOnUse">
<stop stop-color="#00082E"/>
<stop offset="0.321" stop-color="#010A30"/>
<stop offset="0.501" stop-color="#030F39"/>
<stop offset="0.647" stop-color="#071846"/>
<stop offset="0.773" stop-color="#0D245A"/>
<stop offset="0.809" stop-color="#0F2961"/>
<stop offset="0.839" stop-color="#0B386E"/>
<stop offset="0.896" stop-color="#054E83"/>
<stop offset="0.951" stop-color="#015B90"/>
<stop offset="1" stop-color="#006094"/>
</linearGradient>
<linearGradient id="paint12_linear_583_1590" x1="26.7992" y1="11.2031" x2="26.7992" y2="1.70666" gradientUnits="userSpaceOnUse">
<stop stop-color="#00082E"/>
<stop offset="0.321" stop-color="#010A30"/>
<stop offset="0.501" stop-color="#030F39"/>
<stop offset="0.647" stop-color="#071846"/>
<stop offset="0.773" stop-color="#0D245A"/>
<stop offset="0.809" stop-color="#0F2961"/>
<stop offset="0.839" stop-color="#0B386E"/>
<stop offset="0.896" stop-color="#054E83"/>
<stop offset="0.951" stop-color="#015B90"/>
<stop offset="1" stop-color="#006094"/>
</linearGradient>
<linearGradient id="paint13_linear_583_1590" x1="17.6411" y1="11.1914" x2="17.6411" y2="1.67869" gradientUnits="userSpaceOnUse">
<stop stop-color="#00082E"/>
<stop offset="0.321" stop-color="#010A30"/>
<stop offset="0.501" stop-color="#030F39"/>
<stop offset="0.647" stop-color="#071846"/>
<stop offset="0.773" stop-color="#0D245A"/>
<stop offset="0.809" stop-color="#0F2961"/>
<stop offset="0.839" stop-color="#0B386E"/>
<stop offset="0.896" stop-color="#054E83"/>
<stop offset="0.951" stop-color="#015B90"/>
<stop offset="1" stop-color="#006094"/>
</linearGradient>
<linearGradient id="paint14_linear_583_1590" x1="16.1268" y1="11.1706" x2="16.1268" y2="1.67555" gradientUnits="userSpaceOnUse">
<stop stop-color="#00082E"/>
<stop offset="0.321" stop-color="#010A30"/>
<stop offset="0.501" stop-color="#030F39"/>
<stop offset="0.647" stop-color="#071846"/>
<stop offset="0.773" stop-color="#0D245A"/>
<stop offset="0.809" stop-color="#0F2961"/>
<stop offset="0.839" stop-color="#0B386E"/>
<stop offset="0.896" stop-color="#054E83"/>
<stop offset="0.951" stop-color="#015B90"/>
<stop offset="1" stop-color="#006094"/>
</linearGradient>
<linearGradient id="paint15_linear_583_1590" x1="8.98718" y1="11.1975" x2="8.98718" y2="1.69615" gradientUnits="userSpaceOnUse">
<stop stop-color="#00082E"/>
<stop offset="0.321" stop-color="#010A30"/>
<stop offset="0.501" stop-color="#030F39"/>
<stop offset="0.647" stop-color="#071846"/>
<stop offset="0.773" stop-color="#0D245A"/>
<stop offset="0.809" stop-color="#0F2961"/>
<stop offset="0.839" stop-color="#0B386E"/>
<stop offset="0.896" stop-color="#054E83"/>
<stop offset="0.951" stop-color="#015B90"/>
<stop offset="1" stop-color="#006094"/>
</linearGradient>
<linearGradient id="paint16_linear_583_1590" x1="13.2396" y1="11.2439" x2="13.2396" y2="1.65973" gradientUnits="userSpaceOnUse">
<stop stop-color="#00082E"/>
<stop offset="0.321" stop-color="#010A30"/>
<stop offset="0.501" stop-color="#030F39"/>
<stop offset="0.647" stop-color="#071846"/>
<stop offset="0.773" stop-color="#0D245A"/>
<stop offset="0.809" stop-color="#0F2961"/>
<stop offset="0.839" stop-color="#0B386E"/>
<stop offset="0.896" stop-color="#054E83"/>
<stop offset="0.951" stop-color="#015B90"/>
<stop offset="1" stop-color="#006094"/>
</linearGradient>
<linearGradient id="paint17_linear_583_1590" x1="11.9952" y1="11.1959" x2="11.9952" y2="1.69642" gradientUnits="userSpaceOnUse">
<stop stop-color="#00082E"/>
<stop offset="0.321" stop-color="#010A30"/>
<stop offset="0.501" stop-color="#030F39"/>
<stop offset="0.647" stop-color="#071846"/>
<stop offset="0.773" stop-color="#0D245A"/>
<stop offset="0.809" stop-color="#0F2961"/>
<stop offset="0.839" stop-color="#0B386E"/>
<stop offset="0.896" stop-color="#054E83"/>
<stop offset="0.951" stop-color="#015B90"/>
<stop offset="1" stop-color="#006094"/>
</linearGradient>
<linearGradient id="paint18_linear_583_1590" x1="12.2336" y1="11.2153" x2="12.2336" y2="1.67836" gradientUnits="userSpaceOnUse">
<stop stop-color="#00082E"/>
<stop offset="0.321" stop-color="#010A30"/>
<stop offset="0.501" stop-color="#030F39"/>
<stop offset="0.647" stop-color="#071846"/>
<stop offset="0.773" stop-color="#0D245A"/>
<stop offset="0.809" stop-color="#0F2961"/>
<stop offset="0.839" stop-color="#0B386E"/>
<stop offset="0.896" stop-color="#054E83"/>
<stop offset="0.951" stop-color="#015B90"/>
<stop offset="1" stop-color="#006094"/>
</linearGradient>
<linearGradient id="paint19_linear_583_1590" x1="18.6848" y1="11.1997" x2="18.6848" y2="1.69107" gradientUnits="userSpaceOnUse">
<stop stop-color="#00082E"/>
<stop offset="0.321" stop-color="#010A30"/>
<stop offset="0.501" stop-color="#030F39"/>
<stop offset="0.647" stop-color="#071846"/>
<stop offset="0.773" stop-color="#0D245A"/>
<stop offset="0.809" stop-color="#0F2961"/>
<stop offset="0.839" stop-color="#0B386E"/>
<stop offset="0.896" stop-color="#054E83"/>
<stop offset="0.951" stop-color="#015B90"/>
<stop offset="1" stop-color="#006094"/>
</linearGradient>
<linearGradient id="paint20_linear_583_1590" x1="16.2158" y1="11.1685" x2="16.2158" y2="1.65973" gradientUnits="userSpaceOnUse">
<stop stop-color="#00082E"/>
<stop offset="0.321" stop-color="#010A30"/>
<stop offset="0.501" stop-color="#030F39"/>
<stop offset="0.647" stop-color="#071846"/>
<stop offset="0.773" stop-color="#0D245A"/>
<stop offset="0.809" stop-color="#0F2961"/>
<stop offset="0.839" stop-color="#0B386E"/>
<stop offset="0.896" stop-color="#054E83"/>
<stop offset="0.951" stop-color="#015B90"/>
<stop offset="1" stop-color="#006094"/>
</linearGradient>
<linearGradient id="paint21_linear_583_1590" x1="16.5203" y1="11.1682" x2="16.5203" y2="1.67265" gradientUnits="userSpaceOnUse">
<stop stop-color="#00082E"/>
<stop offset="0.321" stop-color="#010A30"/>
<stop offset="0.501" stop-color="#030F39"/>
<stop offset="0.647" stop-color="#071846"/>
<stop offset="0.773" stop-color="#0D245A"/>
<stop offset="0.809" stop-color="#0F2961"/>
<stop offset="0.839" stop-color="#0B386E"/>
<stop offset="0.896" stop-color="#054E83"/>
<stop offset="0.951" stop-color="#015B90"/>
<stop offset="1" stop-color="#006094"/>
</linearGradient>
<linearGradient id="paint22_linear_583_1590" x1="11.3433" y1="11.1975" x2="11.3433" y2="1.67845" gradientUnits="userSpaceOnUse">
<stop stop-color="#00082E"/>
<stop offset="0.321" stop-color="#010A30"/>
<stop offset="0.501" stop-color="#030F39"/>
<stop offset="0.647" stop-color="#071846"/>
<stop offset="0.773" stop-color="#0D245A"/>
<stop offset="0.809" stop-color="#0F2961"/>
<stop offset="0.839" stop-color="#0B386E"/>
<stop offset="0.896" stop-color="#054E83"/>
<stop offset="0.951" stop-color="#015B90"/>
<stop offset="1" stop-color="#006094"/>
</linearGradient>
<linearGradient id="paint23_linear_583_1590" x1="13.8814" y1="16.5033" x2="9.77094" y2="1.16274" gradientUnits="userSpaceOnUse">
<stop stop-color="#A5A5A6"/>
<stop offset="0.35" stop-color="#D7D7D7"/>
<stop offset="0.65" stop-color="#D7D7D7"/>
<stop offset="1" stop-color="#A5A5A6"/>
</linearGradient>
<linearGradient id="paint24_linear_583_1590" x1="24.6594" y1="8.04115" x2="20.5596" y2="-7.25849" gradientUnits="userSpaceOnUse">
<stop stop-color="#A5A5A6"/>
<stop offset="0.35" stop-color="#D7D7D7"/>
<stop offset="0.65" stop-color="#D7D7D7"/>
<stop offset="1" stop-color="#A5A5A6"/>
</linearGradient>
</defs>
</svg>
