<svg width="31" height="11" viewBox="0 0 31 11" fill="none" xmlns="http://www.w3.org/2000/svg">
<path d="M8.73564 0.5H5.62637C4.25258 0.549761 3.12957 0.973466 2.80531 1.84726C2.63627 2.303 2.54322 2.80344 2.41098 3.27587C1.73891 5.67789 1.14289 8.146 0.5 10.5H24.7062C26.5777 10.5 27.8625 10.1972 28.2098 9.05986C28.3711 8.53147 28.5256 7.933 28.68 7.35252C29.2816 5.08919 29.8838 2.82596 30.5 0.5H8.73564Z" fill="#9A9796"/>
<path d="M21.2252 6.47455C20.8895 6.72622 19.9471 6.7977 20.0435 6.19613C20.1236 5.69646 20.834 5.5903 21.6039 5.66245C21.5466 5.93575 21.481 6.28277 21.2252 6.47459V6.47455ZM20.1646 4.52554C20.1327 4.66338 20.0834 4.78811 20.0435 4.91994C20.4279 4.84617 21.625 4.6199 21.7403 5.01278C21.7786 5.14335 21.7125 5.282 21.6645 5.38403C20.5821 5.30551 19.6998 5.44326 19.4679 6.0337C19.3124 6.42918 19.4853 6.81838 19.8163 6.92706C20.4539 7.13615 21.2294 6.89655 21.4979 6.56738C21.47 6.68135 21.4436 6.79644 21.4524 6.93863H22.0129C22.0189 6.52754 22.097 6.19478 22.1796 5.82488C22.25 5.50989 22.3824 5.198 22.3613 4.91999C22.3133 4.28328 20.9357 4.50844 20.1646 4.52554ZM25.7852 6.67175C25.3466 6.67893 25.1286 6.47114 25.1186 6.12654C25.1011 5.52304 25.4468 4.8525 26.1488 4.79238C26.4756 4.76438 26.7122 4.82257 26.9517 4.88521C26.7319 5.5631 26.8112 6.65488 25.7852 6.67175ZM27.2395 3.48146C27.1837 3.8563 27.1091 4.21683 27.0123 4.56031C25.4144 4.17304 24.4344 5.07331 24.452 6.18451C24.4555 6.39943 24.5038 6.61256 24.6793 6.76454C24.9818 7.02658 25.8479 7.08922 26.2851 6.869C26.3698 6.82637 26.4563 6.74883 26.5125 6.69499C26.5545 6.65447 26.6214 6.54845 26.6335 6.57891C26.6106 6.6967 26.5762 6.80577 26.573 6.93863H27.1639C27.2776 5.6878 27.6298 4.6194 27.891 3.48141H27.2396L27.2395 3.48146ZM10.56 6.48617C10.2114 6.76885 9.35457 6.76449 9.28742 6.28892C9.25813 6.08198 9.35885 5.86499 9.40859 5.65087C9.45898 5.43415 9.4952 5.22622 9.54488 5.03597C9.88818 4.71498 10.8969 4.67625 10.9993 5.21002C11.0881 5.67344 10.8486 6.25208 10.56 6.48617ZM11.0751 4.52554C10.5237 4.36697 9.85168 4.55627 9.56041 4.73638C9.56141 4.74428 9.5535 4.74535 9.54488 4.74598C9.54986 4.74275 9.55525 4.73956 9.56041 4.73638C9.56038 4.73571 9.56026 4.73505 9.56006 4.7344C9.56498 4.65691 9.60061 4.60298 9.60553 4.52554H9.04502C8.81141 5.71562 8.53443 6.87241 8.24205 8.01748H8.8935C8.98777 7.57148 9.05006 7.10106 9.18137 6.68337C9.33014 7.12265 10.3015 7.03874 10.7114 6.869C11.5572 6.51879 12.2096 4.85192 11.0751 4.52554ZM14.1655 5.36083H12.6355C12.6839 5.09148 13.0003 4.79538 13.499 4.7808C13.9682 4.76702 14.3042 4.91272 14.1655 5.36083ZM13.5444 4.47914C13.0737 4.50691 12.6758 4.61061 12.3931 4.83877C12.0462 5.11858 11.7654 5.7372 11.8476 6.30054C11.965 7.10425 13.2718 7.07544 14.3171 6.88057C14.3348 6.73955 14.3794 6.61898 14.4079 6.48617C13.9773 6.60956 13.2298 6.78177 12.7869 6.56738C12.4526 6.40549 12.4506 5.99552 12.5597 5.63925C13.2622 5.62215 13.9923 5.62543 14.6957 5.63925C14.7404 5.38672 14.8681 5.1114 14.7563 4.86201C14.609 4.53271 14.0813 4.44751 13.5444 4.47914ZM7.81789 4.52554C7.80025 4.52751 7.80143 4.54393 7.80266 4.56031C7.65916 5.38237 7.46492 6.16562 7.25732 6.93863H7.90877C8.06527 6.11101 8.24457 5.30093 8.46928 4.52554H7.81789ZM24.8157 4.53711C24.24 4.31671 23.7607 4.68657 23.5735 4.90836C23.6268 4.79457 23.6298 4.64224 23.6795 4.52554H23.1038C22.9486 5.35415 22.7614 6.15826 22.5433 6.93863H23.2098C23.214 6.6188 23.2961 6.38225 23.3613 6.06852C23.5006 5.39879 23.7051 4.66436 24.7248 4.88521C24.7586 4.77192 24.7727 4.64345 24.8157 4.53711ZM17.4984 6.37013C17.4384 6.25136 17.4228 6.05515 17.4378 5.90609C17.4715 5.57082 17.631 5.16273 17.8771 4.978C18.2169 4.72301 18.8875 4.76518 19.4224 4.90836C19.439 4.7703 19.4752 4.64718 19.4982 4.51396C18.6209 4.40425 17.7884 4.4725 17.3469 4.82715C16.9149 5.1744 16.6316 5.97241 16.8318 6.47455C17.0662 7.06212 18.117 7.09406 18.968 6.869C19.0056 6.7509 19.0255 6.61925 19.0589 6.49774C18.5939 6.68274 17.7051 6.7789 17.4984 6.37013ZM17.1349 4.52554C16.5572 4.34691 16.1032 4.64879 15.8927 4.93161C15.9403 4.80579 15.9601 4.65844 15.9986 4.52554H15.4229C15.2822 5.36137 15.0748 6.1461 14.8776 6.93863H15.5291C15.6204 6.46817 15.6597 5.83403 15.8623 5.38403C16.0242 5.02444 16.4478 4.71807 17.0591 4.88521C17.0677 4.75253 17.1173 4.65126 17.1349 4.52554ZM6.63617 3.55105C6.54312 4.01344 6.4383 4.46685 6.33318 4.91999C5.6583 4.92542 4.96924 4.94552 4.31832 4.90832C4.44125 4.46505 4.52943 3.99504 4.65154 3.55101H3.92439C3.66406 4.68204 3.42734 5.83098 3.13672 6.93868H3.87898C3.99547 6.3704 4.10434 5.79638 4.25768 5.25651C4.89066 5.24453 5.64928 5.22375 6.25748 5.26809C6.13209 5.82945 5.98051 6.37076 5.86361 6.93868H6.60594C6.84441 5.79104 7.09578 4.65323 7.39373 3.5511H6.63623L6.63617 3.55105ZM8.48439 4.06149C8.6143 3.99302 8.78152 3.68095 8.59045 3.55105C8.52992 3.50991 8.42867 3.49797 8.28752 3.51628C8.15645 3.53319 8.08109 3.56725 8.02994 3.62065C7.94756 3.70648 7.87215 3.96534 7.99959 4.06149C8.12369 4.15514 8.40178 4.10502 8.48439 4.06149Z" fill="#CCCCCC" fill-opacity="0.8"/>
</svg>
