<svg width="34" height="25" viewBox="0 0 34 25" fill="none" xmlns="http://www.w3.org/2000/svg">
<path d="M3.58412 23.2021H4.26479V23.012H2.6582V23.2021H3.33887V24.6907H3.58412V23.2021Z" fill="#161413"/>
<path d="M5.47123 24.6907H5.7073V24.01C5.7073 23.6198 5.47123 23.4474 5.14467 23.4474C4.92696 23.4474 4.73614 23.5293 4.63646 23.7011V23.0211H4.40039V24.6907H4.63646V24.128C4.63646 23.7562 4.87253 23.6015 5.11713 23.6015C5.33484 23.6015 5.47123 23.7195 5.47123 24.0277C5.47123 24.0284 5.47123 24.6907 5.47123 24.6907Z" fill="#161413"/>
<path d="M6.22442 24.1371C6.24278 24.3732 6.39688 24.5634 6.66902 24.5634C6.87755 24.5634 7.01395 24.4906 7.05919 24.3273H7.31297C7.25854 24.6178 6.96804 24.7175 6.67755 24.7175C6.23295 24.7175 5.97852 24.4814 5.97852 24.1004C5.97852 23.6742 6.25065 23.4381 6.67755 23.4381C7.10378 23.4381 7.32149 23.6558 7.32149 24.0735V24.1371H6.22442ZM6.68673 23.5922C6.45066 23.5922 6.27819 23.7102 6.24213 23.9824H7.09526C7.09526 23.7102 6.88673 23.5922 6.68673 23.5922Z" fill="#161413"/>
<path d="M16.3339 23.6651C16.3699 23.6651 16.4158 23.6651 16.5063 23.6834V23.4749C16.4703 23.4565 16.4335 23.4565 16.3699 23.4565C16.1522 23.4565 15.9981 23.5746 15.907 23.7287L15.8886 23.4926H15.6709C15.6709 23.5746 15.6893 23.6651 15.6893 23.7647V24.6815H15.907V24.1005C15.9076 23.8192 16.0434 23.6651 16.3339 23.6651Z" fill="#161413"/>
<path d="M23.4115 23.6651C23.466 23.6651 23.5112 23.6651 23.6023 23.6834V23.4749C23.5663 23.4565 23.5296 23.4565 23.4482 23.4565C23.2305 23.4565 23.0941 23.5746 22.9853 23.7287V23.4926H22.7676C22.7676 23.5746 22.7676 23.6651 22.7676 23.7647V24.6815H23.0036V24.1005C23.003 23.8192 23.1387 23.6651 23.4115 23.6651Z" fill="#161413"/>
<path d="M12.1055 24.5181L11.7331 23.4926H11.4609L11.9331 24.6906H12.2596L12.6498 23.6834L13.0761 24.6906H13.3849L13.8656 23.4926H13.6118L13.2308 24.5181L12.8223 23.4926H12.5134L12.1055 24.5181Z" fill="#161413"/>
<path d="M9.0558 24.0369H8.54759V24.6808H8.31152V23.0113H9.02826C9.53647 22.9929 9.70893 23.2198 9.70893 23.5011C9.7004 23.8192 9.5004 24.0369 9.0558 24.0369ZM9.01973 23.1844H8.53907V23.8467H9.02892C9.33712 23.8467 9.43745 23.7287 9.43745 23.5018C9.44597 23.3202 9.3463 23.1844 9.01973 23.1844Z" fill="#161413"/>
<path d="M10.571 24.7175C10.0904 24.7175 9.83594 24.4998 9.83594 24.0821C9.83594 23.6919 10.0897 23.4381 10.571 23.4381C11.0792 23.4381 11.3245 23.6742 11.3245 24.0821C11.3245 24.4998 11.0701 24.7175 10.571 24.7175ZM10.571 23.5922C10.2445 23.5922 10.0812 23.8007 10.0812 24.0912C10.0812 24.345 10.2537 24.5719 10.571 24.5719C10.916 24.5719 11.0792 24.3542 11.0792 24.0912C11.0792 23.8014 10.916 23.5922 10.571 23.5922Z" fill="#161413"/>
<path d="M14.2191 24.1371C14.2551 24.3732 14.3915 24.5634 14.6637 24.5634C14.8722 24.5634 15.0178 24.4906 15.0722 24.3273H15.3083C15.2539 24.6178 14.9634 24.7175 14.6729 24.7175C14.2283 24.7175 13.9922 24.4814 13.9922 24.1004C13.9922 23.6742 14.246 23.4381 14.6729 23.4381C15.0991 23.4381 15.3352 23.6558 15.3352 24.0735V24.1371H14.2191ZM14.682 23.5922C14.446 23.5922 14.2735 23.7102 14.2374 23.9824H15.0906C15.0899 23.7102 14.8814 23.5922 14.682 23.5922Z" fill="#161413"/>
<path d="M23.9558 24.1371C23.9742 24.3732 24.1283 24.5634 24.4004 24.5634C24.6089 24.5634 24.7453 24.4906 24.7906 24.3273H25.0443C24.9899 24.6178 24.6994 24.7175 24.4004 24.7175C23.9742 24.7175 23.7197 24.4814 23.7197 24.1004C23.7197 23.6742 23.9919 23.4381 24.4188 23.4381C24.845 23.4381 25.0627 23.6558 25.0627 24.0735V24.1371H23.9558ZM24.4188 23.5922C24.1827 23.5922 23.9925 23.7102 23.9742 23.9824H24.8273C24.8266 23.7102 24.6181 23.5922 24.4188 23.5922Z" fill="#161413"/>
<path d="M19.5719 23.1385C19.6263 23.1385 19.7083 23.1569 19.8257 23.1746V23.0021C19.7437 22.9838 19.6348 22.9838 19.5174 22.9838C19.1725 22.9838 19.0729 23.1562 19.0729 23.4467V23.5012H18.7646V23.6553H19.0729V24.6986H19.2906V23.6553H19.7804V23.5012H19.2906V23.4015C19.2997 23.2021 19.3902 23.1385 19.5719 23.1385Z" fill="#161413"/>
<path d="M17.9214 24.7175C17.4316 24.7175 17.168 24.4998 17.168 24.0821C17.168 23.6919 17.4401 23.4381 17.9214 23.4381C18.4113 23.4381 18.6749 23.6742 18.6749 24.0821C18.6742 24.4998 18.4021 24.7175 17.9214 24.7175ZM17.9214 23.5922C17.5949 23.5922 17.4316 23.8007 17.4316 24.0912C17.4316 24.345 17.604 24.5719 17.9214 24.5719C18.248 24.5719 18.4113 24.3542 18.4113 24.0912C18.4113 23.8014 18.2664 23.5922 17.9214 23.5922Z" fill="#161413"/>
<path d="M28.1206 23.7286C28.057 23.5378 27.8668 23.4381 27.6943 23.4381C27.5219 23.4381 27.3494 23.5201 27.2497 23.6919L27.2314 23.4834H27.0137C27.0137 23.5653 27.032 23.6558 27.032 23.7555V24.6722H27.2497V24.0912C27.2497 23.7371 27.4583 23.583 27.6399 23.583C27.8307 23.583 27.9304 23.7194 27.9304 24.0637V24.6808H28.1665V24.0998C28.1665 23.6735 28.4203 23.5916 28.5383 23.5916C28.7744 23.5916 28.8465 23.764 28.8465 24.0722V24.6893H29.0642V23.9916C29.0642 23.6014 28.8557 23.4473 28.5744 23.4473C28.3389 23.4381 28.1665 23.6106 28.1206 23.7286Z" fill="#161413"/>
<path d="M29.9712 24.7175C30.4158 24.7175 30.6335 24.5995 30.6335 24.3457C30.6335 24.1549 30.5155 24.0736 30.2886 24.0375L29.8984 23.9555C29.726 23.9195 29.6447 23.8827 29.6447 23.7831C29.6447 23.665 29.7811 23.5922 29.9988 23.5922C30.1712 23.5922 30.3253 23.6467 30.3437 23.8008H30.5798C30.5798 23.5103 30.2532 23.4467 29.9988 23.4467C29.6906 23.4467 29.4178 23.5463 29.4178 23.8185C29.4178 24.0093 29.5542 24.0906 29.7443 24.1267L30.1162 24.1995C30.2342 24.2355 30.3699 24.2722 30.3699 24.3719C30.3699 24.5083 30.2335 24.5804 29.9798 24.5804C29.7712 24.5804 29.6257 24.5077 29.5896 24.3627H29.3535C29.3817 24.6178 29.6355 24.7175 29.9712 24.7175Z" fill="#161413"/>
<path d="M21.4872 24.6907H20.7705V23.0211H21.4872C22.1312 23.0211 22.4217 23.3116 22.4217 23.8559C22.4217 24.3818 22.0768 24.6907 21.4872 24.6907ZM21.4145 23.1844H21.0243V24.4998H21.4505C22.0315 24.4998 22.1673 24.1916 22.1673 23.8559C22.1679 23.4113 22.0138 23.1844 21.4145 23.1844Z" fill="#161413"/>
<path d="M26.3965 24.6907H26.6142C26.6142 24.6179 26.6142 24.5543 26.6142 24.4546V23.8736C26.6142 23.5831 26.3781 23.4474 26.0332 23.4474C25.7794 23.4474 25.4706 23.5202 25.4345 23.8015H25.6883C25.7066 23.6835 25.8247 23.593 26.0332 23.593C26.2417 23.593 26.3781 23.6749 26.3781 23.8835V23.9379H26.2417C25.9696 23.9379 25.3525 23.9195 25.3525 24.3281C25.3525 24.5641 25.5611 24.7182 25.8607 24.7182C26.0968 24.7182 26.2509 24.6999 26.369 24.5097L26.3965 24.6907ZM26.3788 24.1549C26.3788 24.4454 26.2247 24.5635 25.9342 24.5635C25.6981 24.5635 25.6076 24.4638 25.6076 24.3274C25.6076 24.0736 26.0883 24.0913 26.2516 24.0913H26.3696V24.1549H26.3788Z" fill="#161413"/>
<path d="M26.3789 21.587V21.0788L26.9055 21.0243C27.0779 20.9883 27.1415 20.8335 27.1776 20.8066L28.457 18.7102C28.5567 18.5561 28.457 18.402 28.3206 18.3836L27.6583 18.32V17.7935H30.5711C30.7436 17.7935 30.8433 17.9115 30.916 18.0112L32.6223 20.6243C32.7587 20.8329 32.8584 20.9961 33.0308 21.0145L33.5751 21.0689V21.5955H30.2813V21.0873L30.6898 21.0329C30.8983 21.0145 31.0616 20.9148 30.8983 20.6788L30.7442 20.4427H28.4124L28.2216 20.7148C28.1219 20.8873 28.2216 21.0053 28.394 21.023L28.8203 21.0775V21.5857H26.3789V21.587ZM28.8196 19.745H30.299L29.5455 18.5836L28.8196 19.745Z" fill="white"/>
<path d="M24.192 17.7849H20.4443V18.3115L20.9073 18.3475C21.0981 18.3836 21.1611 18.5016 21.1611 18.6741C21.1611 18.8466 21.1611 20.5797 21.1611 20.7161C21.1611 20.8702 21.0883 21.0066 20.9434 21.0243L20.4535 21.0971V21.587H24.2011C25.9435 21.587 26.6877 20.7522 26.6877 19.6269C26.6871 18.6289 25.9343 17.7849 24.192 17.7849ZM23.6201 20.8519H22.649V18.52H23.6201C24.5546 18.52 24.9356 18.7285 24.9356 19.6997C24.9271 20.6433 24.5546 20.8519 23.6201 20.8519Z" fill="white"/>
<path d="M0 21.587H3.04924V21.0788L2.52267 21.0244C2.40464 21.006 2.2866 20.9424 2.2866 20.6794V20.0624H4.63681V20.6434C4.63681 20.8158 4.60075 20.9883 4.40074 20.9975L3.87418 21.0519V21.5785H6.92342V21.0519L6.37914 20.9975C6.27947 20.9791 6.16144 20.8978 6.16144 20.6893V18.7194C6.16144 18.5109 6.23422 18.3745 6.39751 18.3653L6.92407 18.3109V17.7843H3.87483V18.2925L4.4014 18.3561C4.59222 18.3745 4.63747 18.5286 4.63747 18.7102V19.2912H2.2866V18.6925C2.2866 18.4748 2.38628 18.366 2.54038 18.3476L3.04859 18.2932V17.7666H0.018361V18.2932L0.526568 18.3476C0.717392 18.366 0.780344 18.5201 0.762638 18.7017V20.6257C0.762638 20.8434 0.708211 20.9798 0.508863 20.9975L0 21.0519V21.587Z" fill="white"/>
<path d="M7.05957 19.6722C7.05957 18.4742 8.03074 17.6394 10.1809 17.6394C12.3134 17.6394 13.2846 18.4742 13.2846 19.6722C13.2846 20.8788 12.3134 21.7142 10.1809 21.7142C8.03008 21.7234 7.05957 20.8887 7.05957 19.6722ZM10.1809 18.3568C9.31011 18.3568 8.81961 18.6834 8.81961 19.6722C8.81961 20.6795 9.31863 21.006 10.1809 21.006C11.0341 21.006 11.5239 20.6795 11.5239 19.6722C11.5239 18.6834 11.0341 18.3568 10.1809 18.3568Z" fill="white"/>
<path d="M13.4574 21.587H15.8804V21.0788L15.3722 21.0244C15.2181 21.006 15.1361 20.888 15.1361 20.6978V18.7738L17.1506 21.4322C17.2142 21.5319 17.3591 21.5864 17.4772 21.5864H19.3828V18.701C19.3828 18.5647 19.4189 18.3745 19.6005 18.3561L20.1271 18.3017V17.7751H17.7041V18.2833L18.2306 18.3469C18.4215 18.3653 18.4483 18.5378 18.4483 18.701V20.5791L16.4516 17.9391C16.3696 17.8394 16.2608 17.7666 16.125 17.7666H13.4482V18.2932L13.9381 18.3476C14.1289 18.3837 14.1919 18.4656 14.1919 18.7017V20.6257C14.1919 20.8617 14.1191 20.9706 13.9381 20.9975L13.4482 21.0519V21.587H13.4574Z" fill="white"/>
<path fill-rule="evenodd" clip-rule="evenodd" d="M25.9799 6.21553C26.0251 4.92698 26.0251 4.6273 25.8802 3.584C25.8802 3.584 25.8074 1.50593 24.1379 0.807552C24.1018 0.789191 24.0651 0.78001 24.029 0.762305C23.7208 0.625909 23.3851 0.526235 23.0493 0.454102L23.0218 0.444922C22.9942 0.435741 22.9765 0.435741 22.949 0.426561H22.9398C20.7529 -0.0272188 17.423 0.000322718 16.76 0.000322718C16.0885 0.000322718 12.5403 -0.00885791 10.4353 0.454102C10.1815 0.50853 9.9271 0.590498 9.70939 0.671812C9.69103 0.680992 9.68185 0.680992 9.66414 0.690172C9.56447 0.726239 9.47332 0.762961 9.39201 0.799027C7.64968 1.57019 7.6405 3.56695 7.6405 3.56695C7.58607 3.92106 7.52246 4.44697 7.52246 5.3001V5.30928C7.52246 5.39125 7.54082 5.48174 7.54082 5.58142C7.54082 5.98077 7.55918 6.38012 7.57689 6.788C7.57689 6.86079 7.58607 6.9421 7.59525 7.02407C7.7041 9.45625 7.94017 12.1875 8.90216 13.4393C9.773 14.5737 11.5245 14.7914 13.8478 14.8728C14.819 14.9272 15.7987 14.9632 16.7699 14.9632C17.6591 14.9632 18.5391 14.9272 19.4283 14.8813C20.9706 14.836 22.2323 14.7449 23.2395 14.3639C23.267 14.3547 23.2847 14.3455 23.3123 14.3363L23.3306 14.3272C23.3851 14.2996 23.4395 14.2819 23.4939 14.2544C23.7208 14.1547 23.9385 14.0275 24.1294 13.8826C24.311 13.7554 24.4743 13.6013 24.6284 13.438C25.5628 12.4124 25.8533 9.45428 25.9353 7.02276C25.9353 6.97751 25.9353 6.92309 25.9445 6.87784C25.9707 6.66013 25.9799 6.44242 25.9799 6.21553ZM23.5569 13.0117C23.3392 13.1934 22.7313 13.5652 22.2323 13.7285C21.9785 13.7921 21.7693 13.8104 21.688 13.7921L21.6696 13.7829H21.6605C21.6421 13.7737 21.6329 13.7737 21.6244 13.7645C21.5791 13.7285 21.5424 13.674 21.5339 13.5921C21.5791 13.2203 21.806 11.4688 22.0605 8.35656C22.4146 3.90991 22.4237 1.51445 22.4237 1.34199C22.4513 1.29674 22.5057 1.26002 22.5778 1.26002C22.7864 1.32363 22.9956 1.37806 23.2041 1.45937C23.3857 1.53216 23.5759 1.61347 23.7484 1.72232C23.8389 1.77675 23.9208 1.84954 24.0021 1.92167C24.0205 1.94003 24.0382 1.95774 24.0566 1.9761L24.0657 1.98528C24.1018 2.03053 24.1385 2.07577 24.1746 2.1125C24.8736 3.0653 24.7917 4.48107 24.81 5.60634C24.8284 7.04899 24.7648 8.51 24.5648 9.93495C24.5556 9.98938 24.5464 10.0438 24.5464 10.0982C24.5372 10.1343 24.5372 10.1802 24.5281 10.2163C24.5005 10.3527 24.4828 10.47 24.4553 10.5704C24.4461 10.634 24.41 10.8241 24.3733 11.0242C24.2008 11.7953 24.0467 12.2943 24.01 12.4032C23.9648 12.4852 23.9195 12.5757 23.8736 12.6484C23.7562 12.794 23.6474 12.9121 23.5569 13.0117ZM10.472 13.3298C10.2183 13.1849 10.0182 13.0393 9.95464 12.9665C9.80054 12.8032 9.67332 12.6124 9.57365 12.4039C9.53758 12.3134 9.38283 11.8052 9.20184 11.0248C9.16577 10.8255 9.12905 10.6346 9.11987 10.571C9.10151 10.4714 9.07462 10.3441 9.04708 10.2077C9.04708 10.1717 9.0379 10.1441 9.0379 10.1081C9.02872 10.0445 9.01954 9.99003 9.01036 9.93561C8.81101 8.51066 8.7474 7.0503 8.76511 5.60699C8.77429 4.49091 8.69232 3.06596 9.40053 2.11315C9.4366 2.06791 9.47332 2.03118 9.50021 1.98594L9.51857 1.96758C9.53693 1.94921 9.54611 1.93151 9.56381 1.91315C9.64578 1.84036 9.7271 1.76823 9.81759 1.7138C9.99005 1.60495 10.1809 1.52298 10.3619 1.45084C10.5704 1.37806 10.7796 1.31445 10.9881 1.26002C11.2878 1.2692 11.1697 1.74987 11.1875 1.94069C11.2058 3.08432 11.2694 4.22729 11.3147 5.36174C11.478 8.08376 11.678 10.7881 12.0314 13.4924C12.0498 13.6917 11.9678 13.7829 11.8229 13.8098C11.5973 13.7744 10.9527 13.5652 10.472 13.3298ZM14.8367 7.99393C14.4734 7.44047 14.1744 6.46931 13.9475 5.67978C13.7023 4.7814 13.4393 3.7381 13.1855 2.74857C13.0039 2.04102 12.8406 1.37806 12.7678 1.10592C12.777 1.07838 12.7954 1.06067 12.8314 1.05149C12.859 1.04231 12.895 1.03313 12.9495 1.03313C13.0399 1.02395 13.158 1.01477 13.3304 0.987883C13.3665 0.978703 13.4124 0.978703 13.4485 0.969522C13.6662 0.951161 13.9475 0.933456 14.3193 0.924276C15.7351 0.879029 16.724 0.869848 16.7784 0.869848C16.8328 0.869848 17.8132 0.879029 19.2375 0.924276C19.6093 0.933456 19.8998 0.951817 20.1083 0.969522C20.1535 0.978703 20.1903 0.978703 20.2263 0.987883C20.3988 1.00624 20.5168 1.01543 20.6073 1.03313C20.6617 1.04231 20.6978 1.05149 20.7253 1.05149C20.7614 1.06067 20.7798 1.07903 20.789 1.10592V1.1151C20.7254 1.38724 20.5621 2.03184 20.3896 2.71185C20.1266 3.71909 19.863 4.78993 19.6093 5.70601C19.3824 6.49554 19.0827 7.44834 18.7292 7.99262C18.4755 8.34672 18.1305 8.60968 17.6676 8.71853C17.4315 8.7546 17.141 8.76378 16.7876 8.76378C16.4335 8.76378 16.1436 8.7546 15.9075 8.71853C15.4446 8.60968 15.1088 8.35525 14.8551 8.0018L14.8367 7.99393ZM19.4643 13.8557C19.4643 13.8649 19.4735 13.8918 19.4735 13.9193C19.4735 13.9377 19.4643 13.9468 19.4643 13.9554C19.4283 13.9829 19.3647 14.0006 19.3194 14.0098C19.2014 14.019 18.9017 14.0373 18.2394 14.055C18.2033 14.055 18.1666 14.055 18.1305 14.055C17.6768 14.0642 17.223 14.0642 16.7692 14.0642C16.3154 14.0642 15.8616 14.0642 15.4079 14.055C15.3718 14.055 15.3351 14.055 15.299 14.055C14.6367 14.0367 14.3462 14.019 14.219 14.0098C14.1737 14.0006 14.1101 13.9822 14.0741 13.9554C14.0649 13.9462 14.0649 13.937 14.0649 13.9193C14.0649 13.8918 14.0741 13.8649 14.0741 13.8557C14.0924 13.8013 14.1016 13.7468 14.1193 13.6924C14.2557 13.2386 14.6092 12.1042 14.6092 12.1042C14.6183 12.0858 14.6183 12.0681 14.6275 12.0497C14.6728 11.9134 14.7272 11.7776 14.7908 11.6235C14.918 11.3061 15.1357 11.0792 15.3082 10.9612C15.4079 10.8976 15.5167 10.8523 15.6256 10.8163C15.6892 10.8071 15.7528 10.7887 15.8164 10.7802C15.9344 10.7527 16.0525 10.735 16.1797 10.7258C16.3521 10.7166 16.5338 10.7074 16.7515 10.7074C16.9692 10.7074 17.1509 10.7074 17.3233 10.7258C17.4505 10.7441 17.5771 10.7619 17.6866 10.7802C17.7594 10.7986 17.823 10.8078 17.8774 10.8163C17.9955 10.8523 18.1043 10.8982 18.1948 10.9612C18.3765 11.0792 18.585 11.3061 18.7122 11.6235C18.7758 11.7776 18.8302 11.9232 18.8755 12.0497C18.8847 12.0681 18.8847 12.0858 18.8938 12.1042C18.8938 12.1042 19.2479 13.2563 19.3837 13.7009C19.4375 13.756 19.4552 13.8104 19.4643 13.8557Z" fill="#B3B3B3"/>
</svg>
