<svg width="68" height="32" viewBox="0 0 68 32" fill="none" xmlns="http://www.w3.org/2000/svg">
<path fill-rule="evenodd" clip-rule="evenodd" d="M0 23.518H2.6322V26.4122H7.33441V23.518H9.93372V31.6406H7.33441V28.2206H2.59854V31.6081H0V23.518ZM10.2293 23.518H12.7942L15.4914 26.6424L18.1557 23.518H20.6881L16.774 28.4837V31.6406H14.1759V28.2535L10.2293 23.518ZM21.017 23.518H23.6155V29.7992H27.7923C28.4501 29.7992 28.8776 29.1426 28.8776 28.4512V23.518H31.4754V29.997C31.4754 31.0161 30.3247 31.6081 29.6665 31.6081H21.017V23.518ZM32.0345 23.518H40.6852C41.7047 23.518 42.5269 24.1421 42.5269 25.4097V31.6243L39.9287 31.6406V26.7078C39.9287 26.0183 39.6981 25.607 38.8102 25.607H34.8965V31.6588H32.0345V23.518ZM43.3166 23.518H50.8804C52.3941 23.518 53.5618 24.7345 53.5618 25.6716V29.4046C53.5451 30.062 52.6239 31.6402 51.4732 31.6402H43.317L43.3166 23.518ZM45.9639 29.8325H49.9561C50.5311 29.8325 50.9756 29.405 50.9756 28.878V26.5104C50.9756 25.9347 50.5024 25.5907 49.895 25.5907H45.9639V29.8325ZM56.7689 23.4836H64.876V31.6406H61.9811V29.5369H56.998V31.6406H54.0714V26.3452C54.0052 24.57 55.5846 23.4836 56.7689 23.4836ZM56.9651 26.38V27.694H61.9649V25.6213H57.754C57.2615 25.6217 56.9651 25.9185 56.9651 26.38ZM65.4018 23.5018H68V31.8874H65.4018V23.5018ZM34.1583 0C23.3764 0 14.6355 4.31568 14.6355 9.63773C14.6355 14.9602 23.3764 19.2762 34.1583 19.2762C44.9393 19.2762 53.6806 14.9606 53.6806 9.63773C53.6802 4.31607 44.9389 0 34.1583 0ZM32.3061 2.14507C34.5343 1.35731 41.1545 2.14507 43.7259 3.38011C44.5489 4.16942 40.0564 6.70528 34.7073 7.80452C27.0595 9.34677 30.6942 3.44821 32.3061 2.14507ZM19.1722 13.5649C17.491 12.3663 14.1991 8.93586 19.6523 5.36964C22.5329 3.68965 24.1444 3.31124 26.1332 2.90034C27.0939 2.69372 27.7795 2.93438 26.9221 3.65483C25.1048 5.54105 21.3323 11.7813 20.9899 13.154C20.7148 14.0807 20.1665 14.3194 19.1722 13.5649ZM34.8775 17.544C31.6545 17.886 24.4876 16.8236 24.3499 15.8988C24.4876 13.6683 35.7353 9.96468 37.7581 12.0223C38.6163 13.6338 36.9704 17.4407 34.8775 17.544ZM51.2705 11.0608C50.4467 12.9474 47.6694 15.0747 41.8401 16.5152C40.9475 16.7195 40.6391 16.1716 41.2218 15.657C42.1829 15.0743 46.8124 7.32435 47.3951 5.78016C47.7383 4.99085 48.3895 5.30077 48.8015 5.60876C50.6537 6.80859 52.0594 8.76369 51.2705 11.0608Z" fill="#295BA7"/>
</svg>
