<svg width="21" height="17" viewBox="0 0 21 17" fill="none" xmlns="http://www.w3.org/2000/svg">
<path d="M13.2048 11.881H7.79688V1.86212H13.2048V11.881Z" fill="#ACACAC" fill-opacity="0.95"/>
<path d="M8.13921 6.8718C8.13921 4.83938 9.06224 3.029 10.4997 1.86235C9.44857 1.00923 8.12179 0.5 6.68008 0.5C3.26684 0.5 0.5 3.35268 0.5 6.8718C0.5 10.3908 3.26684 13.2435 6.68008 13.2435C8.12186 13.2435 9.44857 12.7343 10.4997 11.8812C9.06224 10.7145 8.13921 8.90414 8.13921 6.8718Z" fill="#9A9796"/>
<path d="M20.5001 6.8718C20.5001 10.3908 17.7333 13.2435 14.32 13.2435C12.8783 13.2435 11.5516 12.7343 10.5 11.8812C11.9379 10.7145 12.8609 8.90414 12.8609 6.8718C12.8609 4.83938 11.9379 3.029 10.5 1.86235C11.5516 1.00923 12.8783 0.5 14.32 0.5C17.7333 0.5 20.5001 3.35268 20.5001 6.8718Z" fill="#9A9796"/>
<path d="M15.0338 14.7119C15.1056 14.7119 15.209 14.7261 15.288 14.7581L15.178 15.1049C15.1025 15.0729 15.0271 15.0624 14.9548 15.0624C14.7214 15.0624 14.6046 15.2179 14.6046 15.4974V16.4461H14.2475V14.7545H14.6011V14.9598C14.6939 14.8112 14.8278 14.7119 15.0338 14.7119ZM13.7142 15.0907H13.1306V15.8551C13.1306 16.0249 13.1888 16.1382 13.3676 16.1382C13.4604 16.1382 13.577 16.1063 13.6832 16.0426L13.7861 16.3575C13.6729 16.4388 13.4945 16.4887 13.34 16.4887C12.9176 16.4887 12.7703 16.2549 12.7703 15.862V15.0907H12.4371V14.7545H12.7703V14.2412H13.1306V14.7545H13.7142V15.0907ZM9.14439 15.4517C9.18252 15.2074 9.32642 15.0409 9.58064 15.0409C9.81048 15.0409 9.95821 15.1895 9.99594 15.4517H9.14439ZM10.367 15.6003C10.3634 15.0728 10.0474 14.7119 9.58728 14.7119C9.10673 14.7119 8.77033 15.0729 8.77033 15.6003C8.77033 16.1378 9.12048 16.4883 9.61165 16.4883C9.85883 16.4883 10.0852 16.4246 10.2844 16.2513L10.1091 15.9787C9.97204 16.0921 9.79673 16.1557 9.63212 16.1557C9.4022 16.1557 9.19275 16.046 9.14126 15.7418H10.3598C10.3634 15.6955 10.367 15.6497 10.367 15.6003ZM11.9357 15.1863C11.8362 15.1223 11.6338 15.0409 11.4244 15.0409C11.2287 15.0409 11.1119 15.1154 11.1119 15.2394C11.1119 15.3524 11.2354 15.3843 11.3898 15.4054L11.558 15.4302C11.9152 15.4836 12.1313 15.6392 12.1313 15.9366C12.1313 16.2586 11.8566 16.4887 11.3831 16.4887C11.1151 16.4887 10.868 16.4178 10.6722 16.2691L10.8405 15.9823C10.9607 16.0779 11.1395 16.1593 11.3866 16.1593C11.6303 16.1593 11.7608 16.0853 11.7608 15.954C11.7608 15.8588 11.668 15.8053 11.4723 15.7774L11.3041 15.7526C10.9367 15.6992 10.7375 15.5294 10.7375 15.2536C10.7375 14.9173 11.0055 14.7119 11.4208 14.7119C11.6818 14.7119 11.9187 14.7723 12.0901 14.889L11.9357 15.1863ZM16.3388 15.0615C16.2653 15.0615 16.1974 15.0749 16.1341 15.1013C16.0728 15.1268 16.0172 15.1648 15.9706 15.213C15.9236 15.2624 15.8868 15.321 15.8621 15.3852C15.8358 15.4521 15.8228 15.5258 15.8228 15.606C15.8228 15.6866 15.8358 15.7599 15.8621 15.8267C15.8885 15.8936 15.9246 15.9512 15.9706 15.9989C16.0172 16.0471 16.0728 16.0852 16.1341 16.1107C16.1974 16.1374 16.2653 16.1504 16.3388 16.1504C16.4122 16.1504 16.4806 16.1375 16.5434 16.1107C16.605 16.0853 16.6609 16.0472 16.7077 15.9989C16.7545 15.9512 16.7907 15.8936 16.8174 15.8267C16.8438 15.7599 16.8567 15.6866 16.8567 15.606C16.8567 15.5258 16.8438 15.4521 16.8174 15.3852C16.7907 15.3184 16.7545 15.2609 16.7077 15.213C16.6609 15.1647 16.605 15.1267 16.5435 15.1013C16.4784 15.0744 16.4089 15.061 16.3388 15.0616L16.3388 15.0615ZM16.3388 14.7119C16.4661 14.7119 16.584 14.7347 16.6924 14.7804C16.7973 14.8234 16.8929 14.8873 16.9738 14.9684C17.0535 15.0489 17.1167 15.145 17.1597 15.2511C17.2045 15.3601 17.2269 15.4784 17.2269 15.606C17.2269 15.7336 17.2045 15.8519 17.1597 15.9608C17.1167 16.0671 17.0534 16.1633 16.9738 16.244C16.8948 16.3238 16.8009 16.3862 16.6925 16.432C16.5839 16.4774 16.4661 16.5 16.3388 16.5C16.2114 16.5 16.0935 16.4774 15.9851 16.432C15.8767 16.3862 15.7835 16.3238 15.7049 16.244C15.6257 16.1631 15.5628 16.0669 15.5198 15.9608C15.475 15.8519 15.4526 15.7336 15.4526 15.606C15.4526 15.4784 15.475 15.3601 15.5198 15.2511C15.5628 15.1452 15.6257 15.0491 15.7049 14.9684C15.7853 14.8872 15.8805 14.8233 15.9851 14.7804C16.0935 14.7347 16.2114 14.7119 16.3388 14.7119ZM7.05863 15.6003C7.05863 15.303 7.24769 15.0587 7.55652 15.0587C7.85167 15.0587 8.05089 15.2925 8.05089 15.6003C8.05089 15.9082 7.85167 16.1415 7.55652 16.1415C7.24769 16.1415 7.05863 15.8976 7.05863 15.6003ZM8.38729 15.6003V14.7545H8.03042V14.9598C7.9169 14.8075 7.74558 14.7119 7.51214 14.7119C7.05199 14.7119 6.69161 15.0834 6.69161 15.6003C6.69161 16.1168 7.05199 16.4887 7.51214 16.4887C7.74558 16.4887 7.91683 16.3931 8.03042 16.2408V16.4461H8.38729V15.6003ZM6.37559 16.4462V15.3845C6.37559 14.9846 6.12841 14.7157 5.73037 14.712C5.52092 14.7084 5.30436 14.7757 5.1535 15.013C5.0403 14.8254 4.86155 14.712 4.61085 14.712C4.43593 14.712 4.26421 14.7651 4.13023 14.9631V14.7545H3.77344V16.4462H4.13375V15.5085C4.13375 15.2147 4.29171 15.0588 4.5353 15.0588C4.77233 15.0588 4.89257 15.218 4.89257 15.5048V16.4462H5.25295V15.5084C5.25295 15.2147 5.41795 15.0587 5.65451 15.0587C5.89857 15.0587 6.01529 15.2179 6.01529 15.5047V16.4462H6.37559Z" fill="#CCCCCC" fill-opacity="0.8"/>
</svg>
