<svg width="21" height="13" viewBox="0 0 21 13" fill="none" xmlns="http://www.w3.org/2000/svg">
<path d="M1.43062 0.500019C0.91682 0.500019 0.5 0.898044 0.5 1.38915V11.6109C0.5 12.1019 0.91688 12.5 1.43062 12.5H19.5694C20.0832 12.5 20.5 12.102 20.5 11.6109V1.38913C20.5 0.898101 20.0831 0.5 19.5694 0.5H1.4306L1.43062 0.500019ZM7.05811 1.94449C8.19973 1.94449 9.24821 2.32396 10.0712 2.95782C9.37879 3.54977 8.86231 4.3275 8.60749 5.20902H9.00687C9.24207 4.4818 9.66933 3.83433 10.2325 3.32087C10.7957 3.83433 11.2229 4.4818 11.4581 5.20902H11.8637C11.6054 4.33214 11.0882 3.55906 10.3963 2.97096C11.2208 2.32906 12.2734 1.94447 13.42 1.94447C16.0658 1.94447 18.2106 3.99387 18.2106 6.5221C18.2106 9.05033 16.0658 11.0997 13.42 11.0997C12.2544 11.0997 11.1856 10.7022 10.355 10.041C11.098 9.42342 11.6457 8.59552 11.8962 7.65367H11.5056C11.2832 8.44418 10.8355 9.14727 10.2325 9.69707C9.62947 9.14727 9.18241 8.44418 8.95997 7.65367H8.58809C8.84005 8.58187 9.38065 9.3982 10.1125 10.01C9.28339 10.663 8.21879 11.0555 7.05809 11.0555C4.4123 11.0555 2.2675 9.01599 2.2675 6.50001C2.2675 3.98403 4.4123 1.94449 7.05811 1.94449ZM13.0606 5.16243C12.485 5.16243 11.925 5.64323 11.925 6.54598C11.925 7.14461 12.2275 7.53961 12.8225 7.53961C12.9907 7.53967 13.2587 7.47394 13.2587 7.47394L13.3475 6.95085C13.3475 6.95085 13.1029 7.06907 12.935 7.06907C12.5813 7.06907 12.4394 6.80918 12.4394 6.52988C12.4394 5.96326 12.7437 5.65147 13.0825 5.65147C13.3365 5.65147 13.5406 5.78882 13.5406 5.78882L13.6219 5.28006C13.6219 5.28006 13.3198 5.16243 13.0606 5.16243ZM17.9 5.20663L17.3994 5.20781L17.2919 5.8372C17.2919 5.8372 17.1037 5.59296 16.8094 5.59296C16.3518 5.59296 15.9706 6.11232 15.9706 6.70961C15.9706 7.09516 16.1735 7.47333 16.5894 7.47333C16.8885 7.47333 17.0544 7.27689 17.0544 7.27689L17.0325 7.44466H17.5187L17.9 5.20663ZM3.56124 5.21318L3.1625 7.45661H3.64312L3.94688 5.76495L3.99188 7.45661H4.33562L4.97688 5.76495L4.6925 7.45661H5.20312L5.59688 5.21318H4.80688L4.315 6.58957L4.28938 5.2132H3.56126L3.56124 5.21318ZM8.58249 5.35888C8.57163 5.3693 8.29187 6.91061 8.29187 7.09833C8.29187 7.37628 8.45493 7.50042 8.68437 7.49842C8.84877 7.49708 8.97609 7.45762 9.03499 7.44109C9.04115 7.43951 9.05311 7.43631 9.05311 7.43631L9.11499 7.03504C9.08135 7.03504 9.03179 7.04878 8.98811 7.04878C8.81681 7.04878 8.79783 6.9617 8.80873 6.8971L8.94687 6.07844H9.20749L9.27061 5.63475H9.02499L9.07499 5.35888H8.58249ZM14.3919 5.58461C14.0564 5.58461 13.7994 5.6903 13.7994 5.6903L13.7281 6.10233C13.7281 6.10233 13.9404 6.01812 14.2612 6.01812C14.4434 6.01812 14.5768 6.03803 14.5768 6.18293C14.5768 6.27094 14.5606 6.30356 14.5606 6.30356C14.5606 6.30356 14.4166 6.29162 14.35 6.29162C13.9269 6.29162 13.4825 6.46875 13.4825 7.0016C13.4825 7.42145 13.7743 7.51752 13.955 7.51752C14.3001 7.51752 14.449 7.29845 14.4569 7.29778L14.4406 7.48051H14.8712L15.0637 6.16204C15.0638 5.60259 14.5651 5.58459 14.3919 5.58459V5.58461ZM6.31373 5.587C5.97706 5.587 5.71874 5.69269 5.71874 5.69269L5.6475 6.10472C5.6475 6.10472 5.8605 6.02051 6.18249 6.02051C6.36533 6.02051 6.49937 6.04049 6.49937 6.18532C6.49937 6.27329 6.48311 6.30595 6.48311 6.30595C6.48311 6.30595 6.33865 6.294 6.27187 6.294C5.84721 6.294 5.40126 6.47085 5.40126 7.0034C5.40126 7.42301 5.69361 7.51932 5.87499 7.51932C6.22141 7.51932 6.37079 7.30023 6.37875 7.29958L6.36249 7.48229H6.79499L6.98811 6.16443C6.98811 5.6053 6.48757 5.58698 6.31373 5.58698V5.587ZM7.84123 5.587C7.47969 5.587 7.11249 5.72643 7.11249 6.20265C7.11249 6.74223 7.72437 6.68771 7.72437 6.915C7.72437 7.06672 7.55361 7.07924 7.42187 7.07924C7.19387 7.07924 6.98885 7.00397 6.98811 7.00758L6.92249 7.41959C6.93429 7.42309 7.06125 7.47751 7.47125 7.47751C7.58133 7.47751 8.21061 7.50423 8.21061 6.87799C8.21061 6.29253 7.62811 6.40858 7.62811 6.17337C7.62811 6.05628 7.72269 6.01932 7.89623 6.01932C7.96515 6.01932 8.23063 6.04023 8.23063 6.04023L8.29187 5.62401C8.29187 5.62407 8.12055 5.587 7.84123 5.587ZM10.1012 5.587C9.59883 5.58709 9.22687 6.10325 9.22687 6.68632C9.22687 7.35929 9.69291 7.51932 10.09 7.51932C10.4565 7.51932 10.6181 7.44109 10.6181 7.44109L10.7056 6.9819C10.7056 6.9819 10.4268 7.09894 10.175 7.09894C9.63847 7.09894 9.73249 6.71737 9.73249 6.71737H10.7481C10.7481 6.71737 10.8138 6.409 10.8138 6.28325C10.8138 5.96949 10.6498 5.587 10.1012 5.587ZM11.9206 5.6067C11.6943 5.6067 11.5262 5.89751 11.5262 5.89751L11.5712 5.63058H11.1012L10.7856 7.47335H11.305C11.4521 6.68643 11.4789 6.04747 11.83 6.16443C11.8914 5.85985 11.951 5.74218 12.0181 5.61327C12.0181 5.61327 11.9866 5.6067 11.9206 5.6067ZM16.1287 5.6067C15.9024 5.6067 15.7344 5.89751 15.7344 5.89751L15.7794 5.63058H15.3094L14.9937 7.47335H15.5125C15.6596 6.68643 15.6872 6.04747 16.0381 6.16443C16.0997 5.85985 16.1592 5.74218 16.2262 5.61327C16.2262 5.61327 16.1947 5.6067 16.1287 5.6067ZM10.0987 6.0026C10.3841 6.0026 10.3319 6.31032 10.3319 6.3352H9.76999C9.76999 6.30344 9.82313 6.0026 10.0987 6.0026ZM16.8881 6.03843C17.0697 6.03837 17.1631 6.15558 17.1631 6.43133C17.1631 6.68154 17.031 7.01593 16.7575 7.01593C16.5759 7.01593 16.4906 6.87268 16.4906 6.6481C16.4906 6.28088 16.6665 6.03843 16.8881 6.03843ZM14.3925 6.66541C14.4666 6.66551 14.4819 6.67239 14.4944 6.67558C14.4926 6.67529 14.4922 6.67561 14.4994 6.67676C14.5087 6.75883 14.4475 7.14373 14.1512 7.14373C13.9985 7.14373 13.9594 7.02768 13.9594 6.9592C13.9594 6.82567 14.0321 6.66541 14.3925 6.66541ZM6.31437 6.66721C6.39851 6.6673 6.40769 6.67628 6.42187 6.67856C6.43127 6.76059 6.36975 7.14491 6.07249 7.14491C5.91915 7.14491 5.87937 7.02942 5.87937 6.961C5.87937 6.82754 5.95257 6.66721 6.31437 6.66721Z" fill="#9A9796"/>
</svg>
