<svg width="16" height="15" viewBox="0 0 16 15" fill="none" xmlns="http://www.w3.org/2000/svg">
<path d="M8 7.8125C7.41984 7.8125 6.86344 8.04297 6.4532 8.4532C6.04297 8.86344 5.8125 9.41984 5.8125 10C5.8125 10.5802 6.04297 11.1366 6.4532 11.5468C6.86344 11.957 7.41984 12.1875 8 12.1875C8.58016 12.1875 9.13656 11.957 9.5468 11.5468C9.95703 11.1366 10.1875 10.5802 10.1875 10C10.1875 9.41984 9.95703 8.86344 9.5468 8.4532C9.13656 8.04297 8.58016 7.8125 8 7.8125ZM7.0625 10C7.0625 9.75136 7.16127 9.5129 7.33709 9.33709C7.5129 9.16127 7.75136 9.0625 8 9.0625C8.24864 9.0625 8.4871 9.16127 8.66291 9.33709C8.83873 9.5129 8.9375 9.75136 8.9375 10C8.9375 10.2486 8.83873 10.4871 8.66291 10.6629C8.4871 10.8387 8.24864 10.9375 8 10.9375C7.75136 10.9375 7.5129 10.8387 7.33709 10.6629C7.16127 10.4871 7.0625 10.2486 7.0625 10Z" fill="#9A9796"/>
<path d="M11.4537 3.19749L9.46688 0.411865L2.16125 6.24811L1.75625 6.24374V6.24999H1.4375V13.75H14.5625V6.24999H13.9613L12.765 2.75062L11.4537 3.19749ZM12.6406 6.24999H6.37313L11.0412 4.65874L11.9925 4.35437L12.6406 6.24999ZM10.2188 3.61874L5.4 5.26124L9.21625 2.21249L10.2188 3.61874ZM2.6875 11.3556V8.64312C2.95118 8.54968 3.19069 8.39857 3.38856 8.20081C3.58643 8.00305 3.73767 7.76362 3.83125 7.49999H12.1687C12.2623 7.76372 12.4135 8.00324 12.6114 8.20111C12.8092 8.39898 13.0488 8.5502 13.3125 8.64374V11.3562C13.0488 11.4498 12.8092 11.601 12.6114 11.7989C12.4135 11.9967 12.2623 12.2363 12.1687 12.5H3.8325C3.73886 12.236 3.58748 11.9963 3.38939 11.7983C3.1913 11.6004 2.9515 11.4491 2.6875 11.3556Z" fill="#9A9796"/>
</svg>
