<svg width="30" height="30" viewBox="0 0 30 30" fill="none" xmlns="http://www.w3.org/2000/svg">
<g clip-path="url(#clip0_583_8663)">
<path d="M28.1707 11.5673C27.9069 11.4955 27.6031 11.4476 26.9717 11.3753C24.3417 11.2556 17.8827 11.0077 14.5894 11.0077C11.2961 11.0077 4.82913 11.2556 2.20713 11.3753C1.58369 11.4471 1.27196 11.4949 1.00811 11.5673C0.176092 11.7588 0 12.0466 0 12.6461V16.6911C0 17.2746 0.623445 17.6821 1.06339 17.7545C1.50333 17.8422 1.7746 17.8741 2.2305 17.9146C4.56471 18.0582 10.0087 18.3705 14.5888 18.3705C19.1689 18.3705 24.597 18.0668 26.9472 17.9146C27.4031 17.8747 27.6743 17.8428 28.1143 17.7545C28.5542 17.6827 29.1777 17.2746 29.1777 16.6911V12.6461C29.1777 12.0466 29.0016 11.7588 28.1707 11.5673Z" fill="url(#paint0_linear_583_8663)"/>
<path d="M4.0847 11.7269C5.37148 7.25048 9.60053 3.96514 14.6286 3.96514C19.6326 3.96514 23.8617 7.23453 25.1644 11.695C25.1644 11.7109 25.1644 11.7269 25.1804 11.7348C25.9241 11.6471 26.5954 11.5189 27.0587 11.3992C27.0427 11.3673 27.0427 11.3673 27.0427 11.3433C25.5719 6.00359 20.5678 2.09424 14.628 2.09424C8.67277 2.09424 3.66014 6.03551 2.19727 11.3752C2.86174 11.5513 3.34101 11.6311 4.0847 11.7269Z" fill="url(#paint1_radial_583_8663)"/>
<path d="M25.1327 17.5944C25.1167 17.6343 25.1008 17.6821 25.1008 17.6981C23.7256 22.0633 19.561 25.2284 14.6287 25.2284C9.65653 25.2284 5.46794 22.0229 4.12474 17.6023C3.30925 17.7459 3.02944 17.8103 2.23047 17.9061C3.73323 23.198 8.70541 27.0828 14.6287 27.0828C20.552 27.0828 25.5401 23.19 27.0269 17.8896C26.3157 17.8103 25.9083 17.7385 25.1327 17.5944Z" fill="url(#paint2_radial_583_8663)"/>
<path d="M4.3646 11.711C4.66835 11.5833 4.98007 11.3753 5.44395 11.2471C6.843 7.62611 10.4321 5.044 14.6532 5.044C18.8577 5.044 22.4474 7.61015 23.8464 11.2152C23.8464 11.2311 23.8624 11.2471 23.8624 11.2471C24.1103 11.3349 24.8135 11.6147 25.0295 11.711C25.0614 11.711 25.1332 11.711 25.1896 11.711C25.1896 11.695 25.1736 11.6791 25.1736 11.6711C23.8778 7.21067 19.6407 3.94128 14.6366 3.94128C9.61659 3.94128 5.38753 7.22662 4.09277 11.7036C4.17256 11.7269 4.30078 11.711 4.3646 11.711Z" fill="url(#paint3_radial_583_8663)"/>
<path d="M15.8715 4.24662C20.5718 4.24662 24.7444 7.04471 26.3196 11.6727C26.3196 11.6886 26.3355 11.7046 26.3355 11.7126C26.3675 11.7126 26.4552 11.7126 26.4957 11.7126C26.4957 11.6966 26.4797 11.6807 26.4797 11.6727C25.1844 7.21225 20.9474 3.94287 15.9433 3.94287C10.9232 3.94287 6.69417 7.22821 5.39941 11.7052C5.50313 11.7052 5.54302 11.7052 5.66327 11.6892C7.07827 7.30799 11.203 4.24662 15.8715 4.24662Z" fill="white"/>
<path d="M26.1915 17.5961C25.8559 17.7881 25.4319 17.9636 25.0962 18.0759C25.0962 18.0919 25.0643 18.1318 25.0643 18.1477C23.6094 21.649 20.0762 24.1269 15.9434 24.1269C11.7867 24.1269 8.23755 21.6166 6.79861 18.0833C6.4071 17.9796 5.83951 17.7157 5.61555 17.6035C5.52778 17.6035 5.48789 17.6035 5.43945 17.5875C6.78265 21.9927 10.9712 25.2142 15.9434 25.2142C20.8917 25.2142 25.0723 22.0326 26.4155 17.6599C26.4155 17.6439 26.4314 17.6041 26.4314 17.6041C26.3756 17.5801 26.2474 17.5961 26.1915 17.5961Z" fill="url(#paint4_radial_583_8663)"/>
<path d="M27.9388 11.8631C27.2355 11.7753 26.7717 11.7913 25.0769 11.7354C25.005 11.7354 24.9167 11.7354 24.8449 11.7195C21.7835 11.6157 17.1869 11.4716 14.5888 11.4716C11.9908 11.4716 7.37819 11.6152 4.33277 11.7195C4.26097 11.7195 4.17264 11.7195 4.10083 11.7354C2.40602 11.7913 1.94271 11.7753 1.23891 11.8631C0.535684 11.9508 0 12.2386 0 12.7663V16.5155C0 17.0273 0.655358 17.4507 1.23891 17.4507C1.23891 17.4507 8.63306 17.9066 14.5888 17.9146C20.5441 17.9146 27.9388 17.4507 27.9388 17.4507C28.5223 17.4507 29.1777 17.0273 29.1777 16.5155V12.7663C29.1777 12.2386 28.634 11.9508 27.9388 11.8631Z" fill="url(#paint5_radial_583_8663)"/>
<path d="M24.8771 17.6103C23.4143 21.9112 19.3294 24.9167 14.7248 24.9167C10.0563 24.9167 5.93158 22.1591 4.32453 17.6103C4.26868 17.6103 4.20486 17.6103 4.14844 17.5944C5.49164 21.9989 9.68023 25.2205 14.6524 25.2205C19.6246 25.2205 23.8132 21.9989 25.1564 17.5944C25.0532 17.5944 24.9655 17.6103 24.8771 17.6103Z" fill="white"/>
<path d="M24.8772 17.6104C24.5256 17.8024 24.1016 17.9779 23.766 18.0902C23.766 18.1061 23.7341 18.146 23.7341 18.162C23.2702 19.2733 22.6068 20.2802 21.7754 21.1356C23.0947 20.1765 24.1421 18.9775 24.8772 17.6104Z" fill="#8C8C8C"/>
<path d="M7.76188 21.3995C6.78682 20.4643 6.01122 19.3451 5.49947 18.0902C5.10797 17.9865 4.54037 17.7226 4.31641 17.6104C4.54835 18.1061 4.82816 18.5615 5.1319 18.9934C5.7713 19.8249 6.56286 20.584 7.4342 21.208C7.5459 21.2718 7.65759 21.3436 7.76188 21.3995Z" fill="#4D4D4D"/>
<path d="M4.12474 17.5944C3.30925 17.738 3.02944 17.8024 2.23047 17.8981C2.28632 18.13 2.35812 18.354 2.44645 18.5854L4.12474 17.5944Z" fill="#252525"/>
<path d="M20.512 13.5095C20.2641 12.9658 20.3519 13.0296 19.8248 13.0137C19.7849 12.9977 19.6646 12.9977 19.5051 12.9977C19.3449 12.9977 19.313 12.9977 19.1854 13.0137C18.6896 13.0137 18.7779 12.9818 18.6018 13.3493C18.6018 13.3493 17.7384 15.2761 17.3788 16.0751L17.3629 16.107C17.2911 16.2506 17.331 16.2506 17.4507 16.2506H18.2263C18.2821 16.2506 18.314 16.2187 18.33 16.1947C18.33 16.1947 18.4496 15.9468 18.5938 15.6112H20.4721C20.6157 15.9468 20.72 16.1788 20.72 16.1947C20.736 16.2346 20.7759 16.2506 20.8238 16.2506H21.6233C21.743 16.2506 21.7669 16.2665 21.727 16.1628C21.5754 15.8118 20.6403 13.8132 20.512 13.5095ZM18.8816 14.9245C19.1295 14.3569 19.3614 13.7973 19.3614 13.7893C19.3774 13.7574 19.4013 13.7494 19.4492 13.7494C19.4652 13.7334 19.5051 13.7334 19.5529 13.7334C19.5848 13.7334 19.6247 13.7334 19.6407 13.7494C19.6726 13.7494 19.6965 13.7654 19.7125 13.8052C19.7683 13.9654 19.9923 14.4446 20.1764 14.9325H18.8816V14.9245ZM8.56115 12.9658C8.63295 12.9658 8.64891 12.9977 8.64891 13.0536V16.115C8.64891 16.1868 8.63295 16.2187 8.54519 16.2187H7.8015C7.71374 16.2187 7.69778 16.2027 7.69778 16.115V13.0536C7.69778 12.9977 7.71374 12.9658 7.76959 12.9658H8.56115ZM6.97062 12.9983C7.05838 12.9983 7.07434 13.0302 7.07434 13.102V16.1474C7.07434 16.2352 7.05838 16.2512 6.97062 16.2512H6.09928C5.58753 16.2512 5.54764 16.2512 5.37212 15.9634C5.0205 15.4117 3.94116 13.7568 3.94116 13.7568V16.1469C3.94116 16.2346 3.9252 16.2506 3.83744 16.2506H3.19747C3.10971 16.2506 3.09375 16.2346 3.09375 16.1469V13.1015C3.09375 13.0296 3.10971 12.9977 3.19747 12.9977C3.19747 12.9977 3.37356 12.9977 3.94116 12.9977C4.4928 12.9977 4.5646 12.9818 4.77261 13.2775C4.93274 13.5414 6.23548 15.54 6.23548 15.54V13.102C6.23548 13.0302 6.25144 12.9983 6.3392 12.9983H6.97062ZM26.0837 12.9983C26.1715 12.9983 26.1874 13.0302 26.1874 13.102V16.1474C26.1874 16.2352 26.1715 16.2512 26.0837 16.2512H25.2044C24.6926 16.2512 24.6528 16.2512 24.4772 15.9634C24.1097 15.4117 23.0463 13.7568 23.0463 13.7568V16.1469C23.0463 16.2346 23.0303 16.2506 22.9426 16.2506H22.3032C22.2154 16.2506 22.1994 16.2346 22.1994 16.1469V13.1015C22.1994 13.0296 22.2154 12.9977 22.3032 12.9977C22.3032 12.9977 22.4792 12.9977 23.0468 12.9977C23.5985 12.9977 23.6703 12.9818 23.8783 13.2775C24.0544 13.5414 25.3412 15.54 25.3412 15.54V13.102C25.3412 13.0302 25.3571 12.9983 25.4449 12.9983H26.0837ZM11.8471 14.2372C12.4147 14.2931 12.8381 14.3974 12.9583 14.9404C12.9583 14.9803 12.9743 15.1325 12.9743 15.2921C12.9743 15.3958 12.9743 15.524 12.9424 15.6437C12.8386 16.1554 12.4625 16.2591 11.8471 16.2591H9.44104C9.35328 16.2591 9.33732 16.2432 9.33732 16.1554V15.6437C9.33732 15.5559 9.35328 15.54 9.44104 15.54C9.44104 15.54 11.8311 15.54 11.879 15.54C11.9827 15.54 12.0066 15.508 12.0226 15.4362C12.0226 15.3804 12.0226 15.3485 12.0226 15.3086C12.0226 15.2687 12.0226 15.2368 12.0226 15.2208C12.0066 15.165 11.9907 15.0772 11.8624 15.0607C11.5826 15.0447 10.7831 14.9729 10.2394 14.9171C9.53621 14.8453 9.36809 14.5495 9.33618 14.2936C9.32022 14.2059 9.32022 14.0856 9.32022 13.9899C9.32022 13.9021 9.32022 13.7739 9.33618 13.6702C9.4399 13.2143 9.77612 12.9989 10.3836 12.9989H12.7178C12.8056 12.9989 12.8375 13.0148 12.8375 13.0866V13.6143C12.8375 13.6861 12.8056 13.7181 12.7178 13.7021C12.7178 13.7021 10.4873 13.7021 10.4235 13.7021C10.3198 13.7021 10.2799 13.742 10.2634 13.8457C10.2634 13.8617 10.2634 13.8776 10.2634 13.9016C10.2634 13.9335 10.2634 13.9414 10.2634 13.9734C10.2634 14.0452 10.3033 14.101 10.407 14.117C10.6799 14.1489 11.5274 14.2133 11.8471 14.2372ZM15.9718 14.2372C16.5394 14.2931 16.9628 14.3974 17.0831 14.9404C17.0831 14.9803 17.099 15.1325 17.099 15.2921C17.099 15.3958 17.099 15.524 17.0671 15.6437C16.9634 16.1554 16.5873 16.2591 15.9718 16.2591H13.5818C13.494 16.2591 13.478 16.2432 13.478 16.1554V15.6437C13.478 15.5559 13.494 15.54 13.5818 15.54C13.5818 15.54 15.9718 15.54 16.0197 15.54C16.1234 15.54 16.1473 15.508 16.1633 15.4362C16.1633 15.3804 16.1633 15.3485 16.1633 15.3086C16.1633 15.2687 16.1633 15.2368 16.1633 15.2208C16.1473 15.165 16.1234 15.0772 16.0032 15.0607C15.7234 15.0447 14.9238 14.9729 14.3802 14.9171C13.6769 14.8453 13.5168 14.5495 13.4769 14.2936C13.4609 14.2059 13.4609 14.0856 13.4609 13.9899C13.4609 13.9021 13.4609 13.7739 13.4769 13.6702C13.5806 13.2143 13.9168 12.9989 14.5243 12.9989H16.8585C16.9463 12.9989 16.9782 13.0148 16.9782 13.0866V13.6143C16.9782 13.6861 16.9463 13.7181 16.8585 13.7021C16.8585 13.7021 14.6281 13.7021 14.5642 13.7021C14.4605 13.7021 14.4206 13.742 14.4041 13.8457C14.4041 13.8617 14.4041 13.8776 14.4041 13.9016C14.4041 13.9335 14.4041 13.9414 14.4041 13.9734C14.4041 14.0452 14.436 14.101 14.5477 14.117C14.8207 14.1489 15.6681 14.2133 15.9718 14.2372Z" fill="url(#paint6_radial_583_8663)"/>
</g>
<defs>
<linearGradient id="paint0_linear_583_8663" x1="14.5889" y1="2.46513" x2="14.5888" y2="22.8021" gradientUnits="userSpaceOnUse">
<stop offset="0.1944" stop-color="white"/>
<stop offset="0.2085" stop-color="#F8F8F8"/>
<stop offset="0.3657" stop-color="#AEAEAE"/>
<stop offset="0.5133" stop-color="#707070"/>
<stop offset="0.6468" stop-color="#404040"/>
<stop offset="0.7637" stop-color="#1D1D1D"/>
<stop offset="0.8595" stop-color="#080808"/>
<stop offset="0.9222"/>
</linearGradient>
<radialGradient id="paint1_radial_583_8663" cx="0" cy="0" r="1" gradientUnits="userSpaceOnUse" gradientTransform="translate(6.39792 -2.92612) scale(20.3459)">
<stop offset="0.2022" stop-color="white"/>
<stop offset="0.3822" stop-color="#FDFDFD"/>
<stop offset="0.4874" stop-color="#F4F4F4"/>
<stop offset="0.5732" stop-color="#E6E6E6"/>
<stop offset="0.6483" stop-color="#D2D2D2"/>
<stop offset="0.6889" stop-color="#C4C4C4"/>
<stop offset="1" stop-color="#333333"/>
</radialGradient>
<radialGradient id="paint2_radial_583_8663" cx="0" cy="0" r="1" gradientUnits="userSpaceOnUse" gradientTransform="translate(55.6371 29.6627) scale(42.3735 42.3735)">
<stop offset="0.2022" stop-color="white"/>
<stop offset="0.368" stop-color="#E4E4E4"/>
<stop offset="0.5944" stop-color="#C4C4C4"/>
<stop offset="1" stop-color="#333333"/>
</radialGradient>
<radialGradient id="paint3_radial_583_8663" cx="0" cy="0" r="1" gradientUnits="userSpaceOnUse" gradientTransform="translate(11.2851 20.3119) scale(13.0088)">
<stop offset="0.2022" stop-color="white"/>
<stop offset="0.368" stop-color="#E4E4E4"/>
<stop offset="0.5944" stop-color="#C4C4C4"/>
<stop offset="1" stop-color="#333333"/>
</radialGradient>
<radialGradient id="paint4_radial_583_8663" cx="0" cy="0" r="1" gradientUnits="userSpaceOnUse" gradientTransform="translate(23.0976 33.5995) scale(24.6833 24.6833)">
<stop offset="0.2022" stop-color="white"/>
<stop offset="0.368" stop-color="#E4E4E4"/>
<stop offset="0.5944" stop-color="#C4C4C4"/>
<stop offset="1" stop-color="#333333"/>
</radialGradient>
<radialGradient id="paint5_radial_583_8663" cx="0" cy="0" r="1" gradientUnits="userSpaceOnUse" gradientTransform="translate(14.3933 4.67019) scale(19.6149 19.6149)">
<stop offset="0.2022" stop-color="white"/>
<stop offset="0.3966" stop-color="#FDFDFD"/>
<stop offset="0.5101" stop-color="#F4F4F4"/>
<stop offset="0.6029" stop-color="#E6E6E6"/>
<stop offset="0.6839" stop-color="#D2D2D2"/>
<stop offset="0.7278" stop-color="#C4C4C4"/>
<stop offset="1" stop-color="#4D4D4D"/>
</radialGradient>
<radialGradient id="paint6_radial_583_8663" cx="0" cy="0" r="1" gradientUnits="userSpaceOnUse" gradientTransform="translate(14.8477 6.63475) scale(13.2116 13.2116)">
<stop offset="0.1111" stop-color="#4D4D4D"/>
<stop offset="0.248" stop-color="#494949"/>
<stop offset="0.3546" stop-color="#404040"/>
<stop offset="0.451" stop-color="#2F2F2F"/>
<stop offset="0.5409" stop-color="#181818"/>
<stop offset="0.6111"/>
</radialGradient>
<clipPath id="clip0_583_8663">
<rect width="29.1777" height="29.1777" fill="white"/>
</clipPath>
</defs>
</svg>
