<svg width="38" height="28" viewBox="0 0 38 28" fill="none" xmlns="http://www.w3.org/2000/svg">
<path d="M26.4352 18.2144C26.1133 17.1495 24.7019 14.3825 23.6125 12.8504C23.371 12.5531 23.4515 12.3407 23.5722 12.2557C23.693 12.1283 24.0954 11.7885 24.5812 11.1908C25.067 10.5931 25.1848 9.91351 24.8629 8.97602C24.5409 8.03852 23.371 5.74181 23.1698 4.97421C22.8881 4.07919 22.8881 3.73939 23.0088 3.27216C23.21 2.71997 23.4917 2.6775 23.6958 2.71997C23.8166 2.71997 23.897 2.8474 23.897 2.93235C23.897 3.18721 23.897 3.48454 24.1385 4.1247C24.5007 5.10467 25.4291 5.78428 25.7108 5.91171C25.912 5.99666 25.9523 5.82676 25.9523 5.74181C25.9523 5.65685 25.6304 4.42203 25.3889 3.48454C25.1474 2.50456 25.0669 2.29219 24.8255 2.07981C24.5036 1.78248 23.9775 1.5701 23.5349 1.5701C22.5662 1.61258 22.1235 2.59255 22.0833 2.6775C22.043 2.76245 22.0028 2.80492 21.9223 2.76245C21.6406 2.55007 20.8329 1.82495 20.7524 1.4002C20.7121 1.10287 20.6719 1.10287 20.4304 1.01792C19.4617 0.635639 18.6166 0.250325 17.7284 0.0804228C17.3662 -0.00452828 17.3662 -0.0470038 16.8804 0.0804228C16.113 0.250325 15.6703 0.377751 15.1471 0.717556C14.8654 0.887458 14.8252 1.01489 14.7447 1.05736C14.7045 1.14231 14.624 1.22726 14.5435 1.22726C14.3423 1.31221 13.6553 1.52459 13.4541 1.69449C13.2931 1.77944 13.2126 1.90687 13.2931 2.0343C13.4138 2.33163 13.8163 2.97179 13.9801 3.1417C14.1008 3.22665 14.3423 3.3116 14.3825 3.3116C14.463 3.3116 14.5033 3.35407 14.5033 3.3116C14.5435 3.26912 14.5435 3.18417 14.6642 3.05674C14.8654 2.92932 15.1874 2.80189 15.3915 2.80189C15.5524 2.80189 15.6329 2.80189 15.6732 2.84437C15.7134 2.88684 15.9146 3.09922 15.9549 3.26912C16.0354 3.4815 15.9951 3.52398 15.8744 3.56645C15.7537 3.60893 15.5122 3.69388 15.1069 3.73636C14.785 3.77883 14.6642 3.6514 14.6642 3.6514C14.6642 3.60893 14.5837 3.60893 14.5435 3.6514C14.463 3.73635 14.3825 3.77883 14.2618 3.86378C14.1813 3.90626 14.1411 3.99121 14.2216 4.11863C14.463 4.50091 14.7045 4.97118 14.9891 5.05613C15.2305 5.14108 15.311 5.05613 15.5524 4.84375C15.7939 4.67385 15.8744 4.67385 15.9549 4.71633C16.0354 4.7588 16.1561 4.88623 16.1158 5.01366C16.0354 5.22603 15.6732 5.69326 15.5927 5.78125C15.5122 5.8662 15.4317 5.95115 15.311 5.8662C15.1098 5.78125 12.4078 4.29157 12.0427 4.12167C11.6403 3.95177 11.3557 3.90929 10.9935 3.86682C10.7118 3.86682 10.226 3.86682 9.98458 3.95177C9.78337 3.99424 9.70289 4.07919 9.50167 4.24909C9.21998 4.50395 8.97852 4.80128 8.97852 5.05916C8.97852 5.27154 9.17973 5.61135 9.17973 5.65382C9.21998 5.6963 9.26022 5.73877 9.3407 5.73877C9.46143 5.73877 9.7029 5.56887 10.068 5.61135C10.3497 5.65382 10.3899 5.90867 10.3899 6.07858C10.3899 6.12105 10.4301 6.206 10.5106 6.206C10.6313 6.206 10.7923 6.206 11.0338 6.33343C11.3155 6.46086 11.8415 6.88561 11.922 6.97056C12.0025 7.05551 12.0025 7.14046 11.8415 7.14046C11.1976 7.22542 10.1887 7.43779 9.74314 7.56522C9.4212 7.69265 9.01589 7.86255 8.89516 8.07493C8.73419 8.37226 8.57322 8.80005 8.49273 9.13985C8.45249 9.43718 8.77443 9.86497 8.81467 9.94992C8.85491 10.0349 8.9354 10.0349 9.01589 9.9924C9.17686 9.90744 9.53905 9.65259 9.90411 9.65259C10.1456 9.65259 10.1858 9.86497 10.2663 9.94992C10.3065 10.0349 10.387 9.9924 10.548 9.90744C10.8699 9.78002 12.8878 9.82249 13.6122 9.86497C13.8939 9.86497 14.3797 9.94992 14.7016 10.1198C15.0235 10.3322 15.5898 10.9299 15.5898 10.9299C15.5898 10.9299 14.7821 12.3346 14.3797 13.1447C14.0175 13.9123 13.6927 14.4645 13.5317 14.8043C13.411 15.1016 13.2902 15.5294 13.2902 15.8692C13.3305 16.3364 13.3305 16.6368 13.3305 16.8067C13.3305 17.0191 13.1293 17.0191 12.928 17.104C12.6061 17.189 11.9191 17.2739 11.3557 17.4013C10.8728 17.5288 10.6687 17.6562 10.548 18.084C10.4675 18.3813 10.3468 19.1914 10.3468 19.5737C10.3468 19.7436 10.3468 19.8285 10.5077 19.786C10.6285 19.7436 10.8699 19.7011 11.2752 19.7011C11.7179 19.6586 12.2439 19.6586 12.6463 19.6586C13.3736 19.6586 15.4691 19.786 15.6301 19.8285C15.8313 19.8285 15.8715 19.8285 15.8313 19.7011C15.8313 19.5312 15.791 18.976 15.791 18.6362C15.791 18.3388 15.7105 17.9535 16.0325 17.6562C16.3142 17.3589 18.493 14.8043 18.6138 14.6768C18.7345 14.5494 18.815 14.422 18.9357 14.5919C19.0564 14.7618 20.8702 16.124 21.2353 16.3789C21.5975 16.6762 21.9223 16.7187 22.3247 16.7187C22.6064 16.7187 22.6869 17.2709 22.4454 17.3134C22.1637 17.3558 21.8015 17.4408 21.5572 17.5257C21.1548 17.6532 20.9938 17.7806 20.8702 18.0779C20.7495 18.3328 20.6288 19.5676 20.6288 19.6526C20.6288 19.7375 20.6288 19.8649 20.7495 19.8225C21.2726 19.695 22.0804 19.6526 22.9686 19.695C23.9775 19.7375 24.9865 19.8225 25.067 19.8225C25.2279 19.8225 25.2279 19.8225 25.3084 19.695C25.4291 19.4826 25.7913 19.0124 26.1564 18.7575C26.5157 18.5118 26.5157 18.4268 26.4352 18.2144ZM22.5633 10.7236C22.2816 10.8085 22.1609 10.7236 22.0401 10.5962C21.9194 10.4687 20.9105 9.14895 20.5483 8.80915C20.3873 8.59677 20.2666 8.17201 20.7495 7.9566C21.1519 7.7867 21.8792 7.57432 22.0804 7.4469C22.2816 7.31947 22.3621 7.19204 22.4023 7.02214C22.4023 6.76729 22.4023 6.55491 22.4023 6.46996C22.4023 6.38501 22.523 6.30006 22.5633 6.42748C22.6035 6.51243 22.8047 6.85224 23.0059 7.3225C23.3279 7.95964 23.7734 8.81218 23.8942 9.15199C24.0149 9.44932 23.9747 9.74664 23.7734 10.0045C23.5291 10.2958 22.7645 10.6356 22.5633 10.7236Z" fill="#231F20"/>
<path d="M23.6093 1.69751C22.8015 1.69751 22.0369 2.63501 22.1577 4.08221C22.2784 4.97723 22.3991 5.35951 22.6003 5.95417C22.7211 6.2515 24.0922 8.93352 24.1324 9.23085C24.2129 9.61313 24.1324 9.91046 23.8507 10.1683C23.5288 10.4657 22.9625 10.848 22.6003 10.9784C22.5198 11.0209 22.4393 11.0209 22.3589 11.0209C22.2784 11.0209 22.0772 10.9784 21.6719 10.4687L23.4052 12.9384C23.1637 12.641 23.0832 12.3862 23.1235 12.1708C23.1637 11.9584 23.4857 11.746 23.8507 11.4456C24.2129 11.1483 24.6182 10.766 24.7792 10.2533C24.8194 10.0834 24.8597 9.95597 24.8597 9.82854C24.8597 9.36131 24.6182 8.8061 24.3767 8.21144C24.0548 7.40137 23.0459 5.74179 22.7642 4.54944C22.6837 4.25211 22.6434 3.99726 22.6434 3.73937C22.6434 3.05976 22.9251 2.63197 23.2471 2.50455C23.4081 2.41959 23.5288 2.41959 23.6495 2.41959C23.8507 2.41959 23.9312 2.46207 24.0117 2.50455C24.0922 2.54702 24.1324 2.67445 24.1324 2.80188V2.84435C24.1324 2.88683 24.1324 2.9293 24.1324 3.01425C24.1324 3.31158 24.1727 3.90927 24.4544 4.50393C24.8165 5.27153 25.5035 5.69628 25.745 5.78123C25.7852 5.78123 25.1414 3.35406 25.0177 2.9293C24.9833 2.24969 24.6182 1.73999 23.6093 1.69751C23.6495 1.69751 23.6495 1.69751 23.6093 1.69751Z" fill="url(#paint0_linear_583_8677)"/>
<path d="M12.7215 7.104C12.8825 7.27391 12.6008 7.2739 11.8333 7.35886C10.9853 7.44381 10.1805 7.61371 9.7752 7.78361C9.4935 7.91104 9.29229 7.99599 9.13132 8.29332C9.13132 8.29332 8.84961 8.88798 8.84961 9.14586C8.84961 9.27329 8.84961 9.31577 8.88986 9.44319C8.9301 9.48567 9.01059 7.86856 10.948 7.78361C12.6411 7.65619 13.0837 7.44381 12.7215 7.104Z" fill="url(#paint1_linear_583_8677)"/>
<path d="M23.693 2.46204C23.5722 2.46204 23.4515 2.50451 23.3308 2.54699C23.0491 2.67441 22.8076 3.01422 22.8076 3.65439V3.82429C22.8076 3.82429 22.8479 3.39953 22.9284 3.18715C23.1296 2.63497 23.4113 2.55002 23.6556 2.55002C23.8166 2.55002 23.8971 2.5925 23.9373 2.67745C23.9775 2.71992 24.0178 2.80488 24.0178 2.88983C24.0178 3.14468 24.0178 3.39953 24.2592 4.0397C24.2592 4.08218 24.2995 4.12465 24.2995 4.16713C24.0983 3.65742 24.058 3.22963 24.058 2.97478C24.058 2.88983 24.058 2.80488 24.058 2.80488C24.0551 2.50755 23.8539 2.46204 23.693 2.46204Z" fill="url(#paint2_linear_583_8677)"/>
<path d="M12.802 7.18909C12.8825 7.35899 12.6008 7.31651 11.8333 7.40146C10.9853 7.48641 10.1805 7.65632 9.7752 7.78374C9.4935 7.91117 9.29229 7.99612 9.13132 8.29345C9.13132 8.29345 8.84961 8.88811 8.84961 9.146C8.84961 9.27342 8.84962 9.3159 8.9301 9.44332C9.01059 9.61323 9.09107 9.61323 9.2118 9.52828C9.33252 9.44332 9.73495 9.23095 10.0598 9.23095C10.3415 9.23095 10.422 9.40085 10.4622 9.52828C10.5024 9.61323 10.6232 9.57075 10.6232 9.57075C10.7439 9.52828 10.8646 9.4858 11.2671 9.4858C11.75 9.44332 13.6471 9.4858 14.3715 9.4858C15.0154 9.4858 17.4759 11.5732 17.5162 11.5732L17.6369 11.2758C16.6739 10.5507 13.5695 7.91117 12.802 7.18909Z" fill="url(#paint3_linear_583_8677)"/>
<path d="M10.3009 4.16718C10.1399 4.20965 10.0192 4.20965 9.89843 4.37955C9.73746 4.54946 9.45576 4.71936 9.37527 4.97421C9.33503 5.05916 9.29478 5.14411 9.33503 5.18659C9.33503 5.31402 9.41552 5.39897 9.41552 5.44144C9.45576 5.48392 9.49601 5.48392 9.57649 5.48392C9.73746 5.44144 10.0192 5.39897 10.2204 5.39897C10.3411 5.39897 10.5021 5.44144 10.5826 5.52639C10.7033 5.65382 10.7033 5.78125 10.7033 5.82372C10.7033 5.8662 10.7033 5.90867 10.7838 5.90867C10.9045 5.90867 11.0252 5.90867 11.146 5.95115C11.5081 6.0361 12.0342 6.33343 12.4768 6.84617C13.3651 7.74119 14.4947 9.01849 15.541 9.868C16.0642 10.2928 16.9524 10.848 17.2341 11.1878C17.2743 11.2303 17.1536 11.2727 17.0731 11.2303C17.0329 11.1878 16.55 10.8055 16.4292 10.763C16.3488 10.7205 16.228 10.763 16.1475 10.9329C15.2996 12.1253 14.374 14.1671 13.9687 15.1046C13.8882 15.3595 13.8077 15.6143 13.8077 15.8722C13.8077 16.1696 13.848 16.6823 13.848 16.8947C13.848 17.1495 13.8077 17.192 13.526 17.277C13.0431 17.3619 11.9537 17.5743 11.672 17.6168C11.4305 17.6592 11.3098 17.7867 11.2293 17.999C11.1086 18.3388 10.9879 18.9365 10.9879 19.064C10.9879 19.1489 11.0281 19.2339 11.1086 19.1914C11.511 19.064 12.1175 18.979 13.0029 19.0215C13.8911 19.0215 15.3829 19.1914 15.5841 19.2339C15.6646 19.2339 15.7451 19.2339 15.7451 19.1489C15.7451 19.064 15.7049 18.6392 15.7049 18.084C15.7049 17.5318 16.1475 17.1465 16.7943 16.4244C17.4382 15.6993 18.9732 14.1247 19.0134 14.0822C19.0536 14.0397 19.0939 13.9972 19.0134 13.9123C18.8927 13.7849 18.4098 13.2751 18.3695 13.1872C18.3293 13.1447 18.289 13.0597 18.289 13.0173C18.3293 12.9748 18.3695 13.0173 18.45 13.1022C18.7317 13.3571 22 16.124 22.2414 16.209C22.4829 16.3364 22.6036 16.3364 22.8048 16.3789C22.9658 16.4214 23.0865 16.6762 23.0865 16.8037C23.1268 17.016 23.0865 17.2284 22.8451 17.2709C22.6036 17.3558 21.9971 17.4408 21.8361 17.5257C21.5947 17.6107 21.5142 17.6956 21.3935 17.908C21.313 18.1629 21.1922 18.8455 21.152 18.888C21.152 19.0579 21.1922 19.0579 21.313 19.0154C21.4739 18.9729 21.5947 18.9305 22.2012 18.888C23.2504 18.8455 24.8629 19.0154 25.0239 19.0154C25.1044 19.0154 25.1446 18.9305 25.1849 18.888C25.4263 18.5057 25.3459 18.3783 25.6276 18.1204C25.7885 17.993 25.869 17.9505 25.7483 17.7381C24.7796 15.3959 23.854 13.8213 22.3593 11.8219C21.4308 10.5021 20.3011 9.0549 19.8987 8.63014L15.4232 5.90564C15.1415 5.77821 13.0834 4.62834 12.7212 4.45844C12.359 4.24606 12.0773 4.11863 11.7122 4.03368C11.4305 3.94873 11.1891 3.94873 10.9447 3.94873C10.7033 4.1247 10.5021 4.1247 10.3009 4.16718Z" fill="url(#paint4_linear_583_8677)"/>
<path d="M15.3424 1.90985C14.6986 2.12222 13.8506 2.46203 13.8506 2.46203V2.5045L13.9311 2.67441C13.9311 2.67441 13.9713 2.80183 14.092 2.88679C14.2128 2.97174 14.3737 3.01421 14.3737 3.01421C14.414 3.01421 14.414 3.01421 14.4542 2.97174C14.4542 2.97174 14.575 2.67441 15.0176 2.58946C15.2591 2.5045 15.42 2.5045 15.5005 2.5045C15.6213 2.5045 15.7822 2.58946 15.903 2.67441C16.0639 2.84431 16.1847 3.09916 16.2249 3.26907C16.2651 3.39649 16.2249 3.56639 16.1042 3.60887C15.9835 3.69382 15.6213 3.77877 15.3769 3.82125C15.1355 3.86372 14.9343 3.82125 14.7733 3.7363C14.7331 3.7363 14.733 3.7363 14.6928 3.7363C14.6526 3.77877 14.6123 3.82125 14.4916 3.9062C14.4513 3.9062 14.4513 3.94867 14.4916 3.99115C14.5318 4.03362 14.7733 4.54333 14.9745 4.67076C15.1757 4.79818 15.2562 4.75571 15.4172 4.62828C15.6184 4.50085 15.7391 4.33095 15.9806 4.33095C16.222 4.33095 16.383 4.54333 16.383 4.75571C16.4232 5.05304 16.2623 5.18046 16.1416 5.39284C16.0208 5.56274 15.8598 5.77512 15.7391 5.94502C15.5781 6.11493 15.3769 6.07245 15.3769 6.07245C15.3769 6.07245 16.5871 6.70958 17.2712 7.05242C17.5529 7.22233 17.9985 7.05242 18.2399 6.50024C18.3204 6.37281 18.7228 5.39284 18.8435 5.09551C18.9643 4.79818 19.1252 4.50085 18.8435 3.94564C18.5618 3.39346 17.8346 2.37101 17.5127 1.98873C17.3517 1.77635 17.1907 1.6914 16.7452 1.64893C16.7049 1.64893 16.6245 1.64893 16.5842 1.64893C16.3514 1.69747 15.9058 1.78242 15.3424 1.90985Z" fill="url(#paint5_radial_583_8677)"/>
<path d="M15.3821 3.86985C15.1407 3.91233 14.9394 3.86985 14.7785 3.7849C14.7382 3.7849 14.7382 3.7849 14.7382 3.7849C14.698 3.82738 14.6577 3.86985 14.537 3.91233C14.4968 3.91233 14.4968 3.9548 14.537 3.99728C14.5773 4.03975 14.8187 4.46451 14.9797 4.63441C15.1809 4.76184 15.2614 4.71937 15.4626 4.59194C15.704 4.46451 15.7845 4.29461 16.026 4.33708L16.0662 3.69995C15.9886 3.73939 15.5833 3.82434 15.3821 3.86985Z" fill="url(#paint6_radial_583_8677)"/>
<path d="M13.8916 2.50763C13.8916 2.50763 13.8916 2.55011 13.8916 2.59258L13.9721 2.76248C13.9721 2.76248 14.0123 2.84744 14.133 2.93239C14.2538 3.01734 14.3745 3.01734 14.4148 3.05981C14.455 3.05981 14.455 3.05981 14.4952 3.01734C14.4952 3.01734 14.616 2.72001 15.0586 2.63506C15.3001 2.55011 15.4611 2.55011 15.5415 2.55011L15.3403 1.99792C14.6993 2.16479 13.8916 2.46212 13.8916 2.50763Z" fill="url(#paint7_radial_583_8677)"/>
<path d="M16.2312 5.48699C16.1105 5.65689 15.9495 5.86927 15.8288 6.03917C15.6678 6.20908 15.5068 6.1666 15.5068 6.1666C15.5068 6.1666 16.6365 6.76126 17.3206 7.14657C17.6023 7.31647 18.0076 7.18905 18.2893 6.63687C18.3698 6.50944 18.7722 5.52947 18.893 5.23214L16.4324 4.89233C16.5129 5.10168 16.3519 5.31709 16.2312 5.48699Z" fill="url(#paint8_radial_583_8677)"/>
<path d="M12.52 8.67868C12.2383 8.67868 11.5513 8.76363 11.3501 8.80611C11.1489 8.84858 10.8672 9.10343 10.827 9.14591C10.7465 9.23086 10.7465 9.31581 10.827 9.31581C10.8672 9.31581 10.9879 9.31581 11.0684 9.31581C11.3099 9.27334 11.9566 9.27334 12.681 9.27334C13.0432 9.27334 13.4887 9.27334 13.8107 9.27334C14.1326 9.27334 14.4143 9.27334 14.4143 9.27334C14.1326 8.97601 13.8912 8.54822 13.8107 8.54822C13.6497 8.59373 12.6005 8.67868 12.52 8.67868Z" fill="url(#paint9_linear_583_8677)"/>
<path d="M10.7863 9.36136C10.7461 9.36136 10.7461 9.31888 10.7461 9.2764C10.7461 9.23393 10.7863 9.19145 10.8266 9.14898C10.8668 9.1065 11.1485 8.85165 11.39 8.80917C11.5912 8.7667 12.2782 8.68175 12.5599 8.68175C12.6404 8.68175 13.6493 8.5968 13.8103 8.55432C13.8505 8.55432 13.8908 8.5968 13.931 8.63927C13.9713 8.68175 14.0115 8.7667 14.092 8.80917C14.2127 8.97908 14.3334 9.1065 14.4542 9.2764L14.4944 9.31888H14.4542C14.3334 9.31888 13.5659 9.31888 12.8416 9.31888C12.8013 9.31888 12.7611 9.31888 12.7209 9.31888C11.9534 9.31888 11.3095 9.36136 11.1083 9.36136C11.068 9.36136 10.9876 9.36136 10.9473 9.36136C10.8266 9.36136 10.8266 9.36136 10.7863 9.36136ZM10.8668 9.31888C10.9071 9.31888 10.9875 9.31888 11.0278 9.31888C11.2692 9.2764 11.916 9.2764 12.6404 9.2764C12.6806 9.2764 12.7209 9.2764 12.7611 9.2764C13.4481 9.2764 14.2127 9.2764 14.3334 9.2764C14.1322 9.02155 13.9712 8.7667 13.8505 8.63927C13.8103 8.5968 13.77 8.55432 13.77 8.55432C13.6091 8.55432 12.6404 8.63927 12.5599 8.63927C12.2782 8.63927 11.5912 8.72422 11.39 8.7667C11.1888 8.80917 10.9071 9.06403 10.8668 9.1065C10.8266 9.14898 10.8266 9.19145 10.8266 9.23393C10.8266 9.27337 10.8266 9.31888 10.8668 9.31888C10.8266 9.31888 10.8266 9.31888 10.8668 9.31888Z" fill="#7F7D7E"/>
<path d="M15.2224 0.887444C14.9407 1.05735 14.9407 1.22725 14.7797 1.35468C14.5785 1.4821 14.1761 1.56705 13.7708 1.73695C13.5294 1.86438 13.5294 1.86438 13.5696 2.03428C13.6098 2.07676 13.7708 2.37409 13.8513 2.37409C13.9318 2.37409 14.0525 2.33161 14.133 2.28914C14.2537 2.24666 15.1017 1.90686 15.7858 1.73695C16.5533 1.56705 17.3179 1.52458 17.6398 1.86438C18.0825 2.33161 18.85 3.43901 19.0915 3.90928C19.3329 4.37651 19.2927 4.58888 19.1317 5.05915C18.9707 5.4839 18.4447 6.63378 18.2837 6.88863C18.1228 7.14349 17.9618 7.22844 17.476 7.05853C16.9931 6.84616 15.2167 5.86619 14.8142 5.65381C14.5325 5.52638 13.4431 4.92869 12.6354 4.50393C12.3537 4.33403 12.072 4.2066 11.7874 4.16413C11.1838 3.99423 10.4968 4.07918 10.2151 4.12165C10.0541 4.16413 9.97363 4.41898 9.97363 4.46146C9.97363 4.54641 10.1346 4.54641 10.2956 4.50393C10.3761 4.50393 10.4968 4.50393 10.5773 4.50393C10.8187 4.50393 11.5057 4.63136 11.9886 4.80126C12.4313 5.01364 14.6906 6.29094 15.2569 6.58827C19.652 9.10039 21.4687 10.675 24.8548 16.6762C25.0158 16.9735 25.0962 17.2709 24.8548 17.3589C24.5328 17.4863 23.0812 17.7411 22.6357 17.911C22.2735 18.0385 22.2333 18.0809 22.193 18.2508C22.1125 18.4632 22.032 18.888 22.0723 18.976C22.0723 19.0184 22.032 19.0609 22.1125 19.0609C22.515 19.0609 23.9666 19.0609 25.0962 19.1883C25.2572 19.1883 25.2572 19.1883 25.3377 19.0609C25.4584 18.891 25.8206 18.4238 26.1052 18.2084C26.2259 18.1234 26.1454 17.9535 26.1052 17.911C25.8235 17.0585 24.895 15.1865 23.6446 13.2721C22.4345 11.4001 20.3764 8.84554 20.0947 8.41775C19.813 8.03547 19.7325 7.52273 20.2959 7.35283C20.658 7.2254 21.5865 7.0555 21.9487 6.92807C22.3109 6.80065 22.3109 6.67322 22.3511 6.41837C22.3914 6.12104 22.3109 4.54641 22.1097 3.60891C22.0694 3.39653 21.9487 3.26911 21.828 3.14168C21.7072 3.05673 21.1841 2.5895 20.9397 2.24666C20.658 1.86438 20.4971 1.47907 20.4166 1.22421C20.4166 1.22421 20.4166 1.18174 20.3361 1.09679C20.2959 1.05431 20.2959 1.05431 20.2556 1.01184C19.7325 0.672032 17.7951 0.0743408 17.3926 0.0743408C17.3524 0.0743408 17.3524 0.0743408 17.3122 0.0743408C16.9155 0.207835 16.0302 0.377738 15.2224 0.887444Z" fill="url(#paint10_linear_583_8677)"/>
<path d="M10.0596 4.63437C10.2206 4.63437 10.5023 4.63437 10.7466 4.63437C11.149 4.67684 11.6348 4.80427 11.997 4.93169C12.4396 5.14407 14.6185 6.50632 15.1819 6.80365C16.8347 7.78362 18.1254 8.71808 19.3355 9.74053C21.1493 11.3152 22.7245 13.1022 24.6993 16.7642C24.7798 16.9341 24.82 17.019 24.82 17.1464C24.82 17.3588 24.659 17.4438 24.5786 17.4438C24.2566 17.5712 22.8452 17.8685 22.4399 18.0384C22.118 18.1659 22.0375 18.2508 21.9973 18.4207C21.9973 18.5057 21.9168 18.8455 21.8363 18.9304C21.7558 19.0154 21.5949 19.0578 21.4339 19.0578C21.3132 19.0578 21.2729 19.0578 21.2729 18.9304C21.2729 18.803 21.3534 18.5057 21.3936 18.2933C21.4339 18.0809 21.5144 17.996 21.6753 17.8685C21.8363 17.7411 22.4428 17.6562 22.7245 17.5712C23.0465 17.4863 23.0465 17.3164 23.0465 17.0615C23.0465 17.3588 22.966 17.4013 22.644 17.4438C22.3221 17.5287 21.7558 17.6137 21.5949 17.7411C21.3936 17.8685 21.3132 18.0384 21.3132 18.1659C21.1924 18.6331 21.1119 19.0184 21.1119 19.1034C21.1119 19.2308 21.1522 19.2308 21.2729 19.2308C21.3936 19.2308 21.6351 19.1883 22.1209 19.1458C22.2416 19.1458 22.2416 18.9759 22.2416 18.8485C22.2416 18.7636 22.2416 18.5936 22.2819 18.5087C22.3221 18.4237 22.4026 18.3388 22.4831 18.2963C22.7245 18.2114 24.0152 17.8716 24.6619 17.6592C24.9436 17.5742 25.0643 17.4468 25.0241 17.192C24.9839 16.9371 24.7826 16.5973 24.4205 15.9571C24.0583 15.32 23.5323 14.4675 22.9286 13.53C21.7989 11.8704 20.7095 10.5506 19.3384 9.40073C18.3295 8.54818 17.2803 7.86857 16.4754 7.40134C15.6677 6.93411 12.4023 5.01664 11.9165 4.84674C11.4738 4.67684 11.0685 4.63437 10.7466 4.59189C10.462 4.54942 10.2608 4.59189 10.0596 4.63437C9.89862 4.59189 9.97911 4.42199 9.97911 4.33704C10.0194 4.37951 9.89862 4.63437 10.0596 4.63437Z" fill="url(#paint11_linear_583_8677)"/>
<path d="M16.0298 10.8935C15.909 11.0634 15.2623 12.1283 14.7391 13.1508C14.3769 13.8759 13.8911 14.8953 13.8509 15.1957C13.7704 15.4505 13.7302 15.6204 13.7704 15.9208C13.7704 16.1757 13.8107 16.6034 13.8509 16.8583C13.8509 17.1556 13.8107 17.2406 13.529 17.3255C13.2875 17.368 12.0371 17.6229 11.7152 17.6653C11.4335 17.7503 11.3127 17.9202 11.2323 18.1326C11.1518 18.3874 11.0713 18.8577 11.0713 18.9426C11.0713 19.0701 11.0713 19.0701 11.192 19.0701C11.2725 19.0701 11.4737 19.0276 11.5542 19.0276C11.6347 19.0276 11.6347 18.9426 11.6347 18.8577C11.6749 18.7727 11.6749 18.6453 11.7152 18.4329C11.7554 18.2206 11.8359 18.0931 12.0774 17.9657C12.3591 17.8807 13.6094 17.6684 13.8107 17.6259C14.0521 17.5409 14.1326 17.456 14.1728 17.2436C14.2131 16.9888 14.1326 16.5185 14.1326 16.1787C14.1326 15.7964 14.1326 15.584 14.3338 15.1562C14.7362 14.3037 16.0269 12.3468 16.9151 11.1544C16.9151 11.1544 16.8346 11.0695 16.7139 10.9845C16.5932 10.8996 16.4322 10.7297 16.3517 10.7297C16.3115 10.7297 16.3114 10.7297 16.2712 10.7297C16.1907 10.7236 16.1102 10.7661 16.0298 10.8935Z" fill="url(#paint12_linear_583_8677)"/>
<path d="M15.9057 16.7248C15.6643 17.277 15.624 17.6198 15.624 17.8322C15.624 18.087 15.6643 18.1295 15.6643 18.1295C15.6643 17.8746 15.7448 17.7047 15.9057 17.4469C16.1069 17.1495 16.3886 16.8522 16.7939 16.4669C17.4378 15.7418 18.9728 14.1671 19.0533 14.0822C19.0935 14.0397 19.1338 13.9972 19.0533 13.9123C18.8923 13.7424 18.8118 13.6574 18.5704 13.4026C18.4094 13.2327 18.2887 13.1477 18.2887 13.1053C18.2053 13.0628 16.472 15.1501 15.9057 16.7248Z" fill="url(#paint13_linear_583_8677)"/>
<path d="M10.0996 4.63439L24.5381 17.4044C24.6991 17.3619 24.7796 17.2345 24.7796 17.1495C24.7796 17.0221 24.7795 16.8947 24.6991 16.7672C22.6812 13.0628 21.1893 11.3607 19.3353 9.78607C19.0536 9.48874 18.6914 9.23389 18.3666 8.976C17.4381 8.25088 16.389 7.5288 15.1817 6.80368C14.8597 6.5913 13.8106 5.95113 13.0431 5.4839C12.6004 5.18658 12.1549 4.9742 12.0341 4.93172C11.7524 4.76182 11.1862 4.67687 10.7837 4.63439C10.6228 4.63439 10.502 4.59192 10.3813 4.59192C10.2606 4.59192 10.1399 4.63439 10.0996 4.63439Z" fill="url(#paint14_linear_583_8677)"/>
<path d="M20.2639 1.05738C20.3041 1.09986 20.3444 1.09986 20.3846 1.14233C20.5053 1.22728 20.5053 1.35471 20.5053 1.35471C20.5456 1.60956 20.7066 1.94937 20.9883 2.29221C21.27 2.58954 21.796 3.10227 21.8765 3.18723C21.9569 3.2297 22.0374 3.31465 22.0777 3.35713C22.1179 3.14475 22.1582 2.97485 22.2789 2.76247C22.2789 2.80495 22.2386 2.80495 22.2386 2.84742C22.1984 2.8899 22.1582 2.93237 22.0777 2.93237C21.9972 2.93237 21.9569 2.8899 21.9167 2.84742C21.635 2.59257 20.8273 1.9524 20.7065 1.35774C20.6261 1.06041 20.7066 1.18784 20.4651 1.06041C20.3846 1.01794 20.3041 0.975464 20.2236 0.975464C20.2236 1.01491 20.2236 1.01491 20.2639 1.05738Z" fill="url(#paint15_linear_583_8677)"/>
<path d="M21.9572 7.23156C21.595 7.35899 20.6263 7.52889 20.2641 7.65632C19.9824 7.78374 19.9824 7.86869 19.9824 7.95364C19.9824 8.08107 20.0629 8.25097 20.1836 8.46335C20.3446 8.67573 21.0316 9.4858 21.756 10.5082C21.8365 10.6357 21.8767 10.6781 21.9572 10.7631C21.9169 10.7206 20.8678 9.27342 20.5056 8.89114C20.4251 8.76372 20.3044 8.59381 20.3044 8.42391C20.3044 8.21153 20.4653 7.95668 20.747 7.82925C21.1495 7.65935 21.8767 7.44697 22.0779 7.31955C22.2389 7.2346 22.3194 7.14964 22.3194 7.02222C22.1986 7.10413 22.0779 7.18909 21.9572 7.23156Z" fill="url(#paint16_linear_583_8677)"/>
<path d="M23.6495 1.69751C22.9222 1.69751 22.4393 2.37712 22.2783 2.97481C22.4393 2.42263 22.882 1.78246 23.6495 1.78246C24.5779 1.78246 24.9803 2.12226 25.1413 2.71996C24.9803 1.95236 24.3336 1.69751 23.7299 1.69751C23.6926 1.69751 23.6495 1.69751 23.6495 1.69751Z" fill="url(#paint17_linear_583_8677)"/>
<path d="M16.794 16.5549C16.0667 17.3649 15.7448 17.5773 15.7448 18.087C15.7448 18.3843 15.785 19.067 15.785 19.1944C15.785 19.2794 15.785 19.3643 15.6643 19.4068C15.5838 19.4493 15.5033 19.4493 15.4631 19.4493C15.2619 19.4493 13.3647 19.2369 12.6806 19.2369C11.9936 19.2369 11.4302 19.3218 11.1083 19.4068C11.0278 19.4068 10.9071 19.4068 10.8266 19.3218C10.7863 19.2794 10.7863 19.2369 10.7863 19.1944C10.7863 19.3218 10.7461 19.4917 10.7461 19.5342C10.8668 19.4917 11.1485 19.4493 11.5538 19.4493C12.0367 19.4068 12.5628 19.4068 12.9249 19.4068C13.2469 19.4068 15.9489 19.5767 15.9489 19.5767C15.9489 19.3643 15.9086 18.8516 15.9086 18.5542C15.9086 18.4693 15.9086 18.4693 15.9086 18.2569C15.9086 18.0021 15.9489 17.7047 16.1903 17.4469C16.3111 17.2769 16.794 16.7217 17.32 16.1271C17.0757 16.2575 16.9147 16.4274 16.794 16.5549Z" fill="url(#paint18_linear_583_8677)"/>
<path d="M19.0137 14.2126C19.0942 14.2126 19.1746 14.2551 19.2149 14.34C19.3758 14.4675 21.1494 15.8722 21.4742 16.0846C21.6352 16.212 21.7559 16.2969 21.9169 16.3394C21.7962 16.2545 21.6352 16.0846 21.3937 15.9147C21.0718 15.6173 20.586 15.2775 20.1836 14.9347C19.8214 14.6374 19.4161 14.2976 19.1344 14.0397C19.1344 14.1277 19.0539 14.2126 19.0137 14.2126Z" fill="url(#paint19_linear_583_8677)"/>
<path d="M23.2871 12.2558C23.2871 12.2982 23.2468 12.3832 23.2468 12.4681C23.2468 12.5956 23.2871 12.7655 23.4481 12.9354C23.5285 13.0628 23.609 13.1902 23.7298 13.2752C24.9802 15.1896 25.8281 17.0646 26.1501 17.9141C26.2305 18.1265 26.2305 18.2114 26.1501 18.2964C26.1501 18.2964 25.5062 19.0215 25.4228 19.1489C25.3826 19.1914 25.3423 19.2339 25.3021 19.2764C25.2619 19.3188 25.1411 19.3613 25.0204 19.3613C24.0919 19.2764 23.0025 19.2339 22.4794 19.2339C21.7924 19.2339 21.4302 19.3188 21.1887 19.3188C21.068 19.3188 20.9875 19.2764 20.9473 19.2764C20.9473 19.4038 20.9473 19.4463 20.9473 19.4887C21.3497 19.4038 21.8757 19.3613 22.5196 19.3613C22.7208 19.3613 22.8818 19.3613 23.1232 19.3613C24.1322 19.4038 25.3021 19.4887 25.3021 19.4887C25.3021 19.4887 25.8655 18.7211 26.1903 18.4238C26.2708 18.3813 26.2708 18.3813 26.2708 18.3389C26.2708 18.2964 26.2708 18.2539 26.2306 18.1265C25.8684 17.0616 24.4972 14.3371 23.4481 12.8474C23.3273 12.6775 23.2468 12.5501 23.2468 12.3802C23.2468 12.2103 23.3273 12.0828 23.4481 12.0404C23.5285 11.9554 23.7298 11.7855 23.931 11.5731C23.609 11.9129 23.3273 12.1708 23.2871 12.2558Z" fill="url(#paint20_linear_583_8677)"/>
<path d="M11.1892 9.57373C10.7868 9.6162 10.5856 9.65868 10.5453 9.65868C10.5051 9.65868 10.4648 9.65868 10.4648 9.65868C10.4648 9.65868 10.5051 9.70115 10.5051 9.74363H10.5453C10.7868 9.65868 11.353 9.6162 12.0372 9.6162C12.6811 9.6162 13.4083 9.6162 13.7705 9.65868C14.0924 9.65868 14.5782 9.74363 14.9404 9.95601C15.2623 10.1684 16.0298 10.7236 16.0701 10.6811C15.7884 10.4263 15.4262 10.2564 15.1818 10.044C14.8197 9.78914 14.4144 9.61924 14.2936 9.61924C13.1237 9.61924 13.1237 9.61924 12.4396 9.61924C11.9136 9.53125 11.3502 9.57373 11.1892 9.57373Z" fill="url(#paint21_linear_583_8677)"/>
<path d="M10.6625 6.08164C10.6625 6.08164 10.7028 6.08164 10.743 6.08164C10.8637 6.08164 11.0247 6.08164 11.1857 6.16659C11.4674 6.33649 12.2348 6.93419 12.3556 7.06161C12.5165 7.23151 12.6373 7.23151 12.5165 7.10409C12.0739 6.67933 11.4271 6.16659 11.0649 6.12411C10.9471 6.03916 10.7861 6.03916 10.6625 6.08164C10.582 6.03916 10.6223 5.91174 10.582 5.86926C10.582 5.86926 10.582 6.08164 10.6625 6.08164Z" fill="url(#paint22_linear_583_8677)"/>
<path d="M9.97929 9.31885C9.73784 9.31885 9.25205 9.61618 9.13132 9.61618C9.01059 9.70113 8.93009 9.70113 8.84961 9.61618C8.88985 9.70113 8.97034 9.78608 9.01058 9.7436C9.05082 9.70113 9.69759 9.4038 9.97929 9.4038C10.0598 9.4038 10.1 9.4038 10.1805 9.44628C10.1402 9.36132 10.1 9.31885 9.97929 9.31885Z" fill="url(#paint23_linear_583_8677)"/>
<path d="M16.1095 0.929927C15.9486 0.972402 15.5059 1.09983 15.4657 1.09983C15.4254 1.09983 15.3852 1.1423 15.3449 1.18478C15.3047 1.22726 15.3047 1.35468 15.3047 1.43963C15.3047 1.48211 15.3852 1.52458 15.4254 1.48211C15.5461 1.43963 16.1124 1.18478 16.1929 1.18478C16.2332 1.18478 16.2734 1.1423 16.2734 1.09983C16.2734 1.05735 16.2734 1.01488 16.2734 0.972402C16.2734 0.929926 16.2332 0.887451 16.1929 0.887451C16.19 0.929927 16.1498 0.929927 16.1095 0.929927Z" fill="url(#paint24_linear_583_8677)"/>
<path d="M16.1097 0.972412C16.1902 0.972412 16.2304 0.972412 16.2304 1.01489C16.2304 1.05736 16.2304 1.09984 16.2304 1.09984C16.2304 1.09984 16.2304 1.14231 16.1902 1.14231C16.1097 1.18479 15.7073 1.35469 15.6268 1.39717C15.5463 1.43964 15.4658 1.39717 15.4658 1.35469C15.4658 1.31222 15.4658 1.22727 15.5061 1.22727C15.5061 1.18479 15.5463 1.18479 15.5865 1.14231C15.6239 1.14535 16.0292 1.01489 16.1097 0.972412Z" fill="#231F20"/>
<path d="M16.7141 1.61255C15.5442 1.65502 14.5353 2.16473 13.9316 2.42262C14.3341 2.25272 15.343 1.82796 16.4727 1.78548C17.0763 1.74301 17.3609 1.78548 17.5621 2.08281C17.884 2.46509 18.6515 3.53002 18.9332 4.0822C19.0539 4.29458 19.0942 4.46448 19.0942 4.63438C19.0539 4.88923 18.9735 5.05914 18.893 5.22904C18.7722 5.52637 18.3296 6.42139 18.2491 6.59129C17.9674 7.14347 17.6455 7.14347 17.3206 7.05852C17.3206 7.05852 17.4816 7.14347 17.6023 7.22842C17.9645 7.39832 18.206 7.14347 18.4503 6.76119C18.5308 6.63376 18.9735 5.61132 19.0942 5.27151C19.1747 5.05914 19.2552 4.93171 19.2552 4.67686C19.2552 4.50695 19.2149 4.29458 19.0942 4.0822C18.8125 3.53002 18.045 2.46509 17.7231 2.0373C17.4414 1.73998 17.2402 1.65502 16.8349 1.65502C16.7946 1.61255 16.7544 1.61255 16.7141 1.61255Z" fill="url(#paint25_linear_583_8677)"/>
<path d="M15.3833 13.2751C14.9809 14.0002 14.3744 15.0196 14.2537 15.2745C14.1732 15.4869 14.1329 15.6568 14.1329 15.9116C14.1329 15.9116 14.1732 17.019 14.1732 17.0615C14.1732 17.2314 14.1329 17.3163 14.0927 17.4013C14.0122 17.4862 13.8915 17.5287 13.7708 17.5712C13.4891 17.6137 12.3191 17.826 12.0374 17.8685C11.7557 17.9535 11.5948 18.1234 11.5143 18.2933C11.474 18.4632 11.3936 18.718 11.3936 18.8455V18.9304C11.3936 19.0578 11.4338 19.0578 11.4338 19.0578C11.4338 19.0578 12.8049 18.9304 13.5724 19.0154C14.3801 19.0578 15.5069 19.1853 15.5069 19.1853C15.5069 19.1853 14.337 18.9304 13.5293 18.8879C13.1269 18.8455 12.6411 18.8879 12.3191 18.8879C11.9569 18.8879 11.6752 18.9304 11.6752 18.8879C11.6752 18.8455 11.635 18.803 11.6752 18.6756C11.6752 18.5906 11.7155 18.5057 11.7155 18.4207C11.7557 18.2083 11.8765 18.0384 12.1582 17.9535C12.4399 17.8685 13.6098 17.6561 13.811 17.6561C14.0524 17.6137 14.1329 17.4862 14.1732 17.3588C14.1732 17.3163 14.1732 17.1464 14.1732 17.0615C14.1732 16.8066 14.1329 16.1665 14.1329 16.124C14.1329 15.7417 14.1732 15.5293 14.4146 15.1015C14.7768 14.4189 16.2284 12.1647 16.9154 11.3546C16.9557 11.3121 16.9959 11.2696 17.0764 11.2696H17.0361C17.0361 11.2696 16.9557 11.2272 16.8752 11.1422C16.674 11.2757 15.9065 12.3831 15.3833 13.2751Z" fill="url(#paint26_linear_583_8677)"/>
<path d="M0 24.2881V27.6261H0.870622V26.6022H1.64856C3.31756 26.6022 4.16775 26.0388 4.16775 25.4141C4.16775 24.7384 3.25626 24.2983 1.72081 24.2983H0M0.870622 26.2337V24.6668H1.54639C2.25282 24.6668 3.18474 24.7894 3.18474 25.4141C3.18474 25.8337 2.87751 26.2439 1.43401 26.2439C1.43328 26.2337 0.870622 26.2337 0.870622 26.2337Z" fill="white"/>
<path d="M9.13358 27.6261V27.2065H6.98294C6.52245 27.2065 6.3889 26.981 6.3889 26.6124V26.1213H8.90808V25.7017H6.3889V24.7084H9.01025V24.2888H5.50879V26.6234C5.50879 27.2481 5.75472 27.6166 6.5531 27.6166L9.13358 27.6261Z" fill="white"/>
<path d="M14.6939 24.2881H13.8233V27.1043C13.5875 27.186 13.2701 27.2678 12.7994 27.2678C12.1236 27.2678 11.4683 27.0831 11.4683 26.4694V24.2881H10.5977V26.5409C10.5977 27.4626 11.4683 27.729 12.4309 27.729C13.3423 27.729 14.0896 27.5239 14.7041 27.2583V24.2888H14.6939V24.2881Z" fill="white"/>
<path d="M17.1212 25.9673C17.1212 25.0354 17.8684 24.6056 18.7697 24.6056C19.517 24.6056 20.0906 24.8311 20.6336 25.0252V24.472C20.06 24.2874 19.5177 24.1954 18.7697 24.1954C17.316 24.1954 16.1279 24.9019 16.1279 25.9666C16.1279 27.0926 17.316 27.7275 18.7697 27.7275C19.4966 27.7275 20.2548 27.5641 20.7255 27.4407V26.1199H19.8761V27.1029C19.5586 27.2152 19.3331 27.3079 18.842 27.3079C17.8378 27.3087 17.1212 26.7869 17.1212 25.9673Z" fill="white"/>
<path d="M25.9165 27.6261V27.2065H23.7659C23.3054 27.2065 23.1719 26.981 23.1719 26.6124V26.1213H25.691V25.7017H23.1719V24.7084H25.7932V24.2888H22.291V26.6234C22.291 27.2481 22.5369 27.6166 23.3353 27.6166L25.9165 27.6261Z" fill="white"/>
<path d="M29.675 24.1962C28.2213 24.1962 27.0332 24.9128 27.0332 25.9878C27.0332 27.1138 28.2213 27.7283 29.675 27.7283C31.1287 27.7283 32.3168 27.1138 32.3168 25.9878C32.327 24.9128 31.1389 24.1962 29.675 24.1962ZM29.675 27.3597C28.692 27.3597 28.0162 26.827 28.0162 25.9878C28.0162 25.0661 28.7635 24.6056 29.675 24.6056C30.5865 24.6056 31.3236 25.0661 31.3236 25.9878C31.3338 26.8175 30.6682 27.3597 29.675 27.3597Z" fill="white"/>
<path d="M33.0332 24.769H34.7635V27.6261H35.6341V24.769H37.3644V24.2881H33.0332V24.769Z" fill="white"/>
<defs>
<linearGradient id="paint0_linear_583_8677" x1="25.8727" y1="2.4103" x2="-426.726" y2="560.963" gradientUnits="userSpaceOnUse">
<stop stop-color="#D3D3D3"/>
<stop offset="0.3681" stop-color="#4F4C4C"/>
<stop offset="0.8132" stop-color="#B0AFAF"/>
<stop offset="1" stop-color="#231F20"/>
</linearGradient>
<linearGradient id="paint1_linear_583_8677" x1="10.4701" y1="9.17138" x2="98.1923" y2="-152.716" gradientUnits="userSpaceOnUse">
<stop stop-color="#B2B1B1"/>
<stop offset="0.2" stop-color="#B2B1B1"/>
<stop offset="0.9897" stop-color="#656263"/>
<stop offset="1" stop-color="#656263"/>
</linearGradient>
<linearGradient id="paint2_linear_583_8677" x1="24.2655" y1="3.34232" x2="-51.933" y2="-2.45937" gradientUnits="userSpaceOnUse">
<stop stop-color="#4F4C4C"/>
<stop offset="0.3586" stop-color="white"/>
<stop offset="0.8241" stop-color="#4F4C4C"/>
<stop offset="1" stop-color="#393536"/>
</linearGradient>
<linearGradient id="paint3_linear_583_8677" x1="13.1342" y1="10.4378" x2="100.466" y2="-150.732" gradientUnits="userSpaceOnUse">
<stop stop-color="#D3D3D3"/>
<stop offset="0.3681" stop-color="#B2B1B1"/>
<stop offset="0.9897" stop-color="#231F20"/>
<stop offset="1" stop-color="#231F20"/>
</linearGradient>
<linearGradient id="paint4_linear_583_8677" x1="22.6759" y1="22.5322" x2="-1338.9" y2="-1093.57" gradientUnits="userSpaceOnUse">
<stop stop-color="#918F90"/>
<stop offset="0.1209" stop-color="#9C9A9B"/>
<stop offset="0.1703" stop-color="#7B7979"/>
<stop offset="0.3077" stop-color="#918F90"/>
<stop offset="0.4725" stop-color="#F4F4F4"/>
<stop offset="0.8407" stop-color="#7F7D7E"/>
<stop offset="0.9615" stop-color="#4F4C4C"/>
<stop offset="1" stop-color="#4F4C4C"/>
</linearGradient>
<radialGradient id="paint5_radial_583_8677" cx="0" cy="0" r="1" gradientUnits="userSpaceOnUse" gradientTransform="translate(15.1007 4.99623) scale(254.455 315.798)">
<stop stop-color="white"/>
<stop offset="0.467" stop-color="white"/>
<stop offset="0.7472" stop-color="#9C9A9B"/>
<stop offset="0.8461" stop-color="#7B7979"/>
<stop offset="1" stop-color="#4F4C4C"/>
</radialGradient>
<radialGradient id="paint6_radial_583_8677" cx="0" cy="0" r="1" gradientUnits="userSpaceOnUse" gradientTransform="translate(16.0352 4.14312) scale(89.8628 107.47)">
<stop stop-color="white"/>
<stop offset="0.2276" stop-color="white"/>
<stop offset="1" stop-color="#231F20"/>
</radialGradient>
<radialGradient id="paint7_radial_583_8677" cx="0" cy="0" r="1" gradientUnits="userSpaceOnUse" gradientTransform="translate(15.1143 1.69153) scale(105.898 131.428)">
<stop stop-color="white"/>
<stop offset="0.5714" stop-color="#F7F7F7"/>
<stop offset="0.8626" stop-color="#231F20"/>
<stop offset="1" stop-color="#231F20"/>
</radialGradient>
<radialGradient id="paint8_radial_583_8677" cx="0" cy="0" r="1" gradientUnits="userSpaceOnUse" gradientTransform="translate(18.0217 5.25675) scale(350.794 435.364)">
<stop stop-color="white"/>
<stop offset="0.2527" stop-color="white"/>
<stop offset="0.3461" stop-color="#A7A6A6"/>
<stop offset="0.4121" stop-color="#7B7979"/>
<stop offset="0.4725" stop-color="#4F4C4C"/>
<stop offset="1" stop-color="#4F4C4C"/>
</radialGradient>
<linearGradient id="paint9_linear_583_8677" x1="13.9285" y1="8.73205" x2="-163.444" y2="44.4612" gradientUnits="userSpaceOnUse">
<stop stop-color="#F4F4F4"/>
<stop offset="0.2582" stop-color="#BDBCBC"/>
<stop offset="0.6483" stop-color="#F4F4F4"/>
<stop offset="0.8956" stop-color="white"/>
<stop offset="1" stop-color="white"/>
</linearGradient>
<linearGradient id="paint10_linear_583_8677" x1="13.9847" y1="1.02144" x2="1026.94" y2="995.332" gradientUnits="userSpaceOnUse">
<stop stop-color="white"/>
<stop offset="0.069" stop-color="#E3E2E2"/>
<stop offset="0.1565" stop-color="white"/>
<stop offset="0.3297" stop-color="#D3D3D3"/>
<stop offset="0.502" stop-color="white"/>
<stop offset="0.9796" stop-color="#BBBABA"/>
<stop offset="1" stop-color="#BBBABA"/>
</linearGradient>
<linearGradient id="paint11_linear_583_8677" x1="10.9731" y1="3.84338" x2="993.6" y2="755.856" gradientUnits="userSpaceOnUse">
<stop stop-color="#DEDEDE"/>
<stop offset="0.5069" stop-color="#4F4C4C"/>
<stop offset="1" stop-color="#DEDEDE"/>
</linearGradient>
<linearGradient id="paint12_linear_583_8677" x1="16.6533" y1="10.7553" x2="-402.673" y2="515.875" gradientUnits="userSpaceOnUse">
<stop stop-color="#C8C7C8"/>
<stop offset="0.1" stop-color="white"/>
<stop offset="0.3492" stop-color="#F0F0F0"/>
<stop offset="0.5385" stop-color="white"/>
<stop offset="0.7143" stop-color="#393536"/>
<stop offset="0.8414" stop-color="white"/>
<stop offset="0.9103" stop-color="#514E4F"/>
<stop offset="1" stop-color="#868484"/>
</linearGradient>
<linearGradient id="paint13_linear_583_8677" x1="16.3755" y1="15.2023" x2="108.226" y2="58.7938" gradientUnits="userSpaceOnUse">
<stop stop-color="white"/>
<stop offset="0.5207" stop-color="#CFCECE"/>
<stop offset="0.8352" stop-color="#4F4C4C"/>
<stop offset="1" stop-color="#393536"/>
</linearGradient>
<linearGradient id="paint14_linear_583_8677" x1="17.1452" y1="11.3363" x2="128.731" y2="-96.3072" gradientUnits="userSpaceOnUse">
<stop stop-color="white"/>
<stop offset="0.2088" stop-color="white"/>
<stop offset="0.5" stop-color="#DEDEDE"/>
<stop offset="0.9451" stop-color="#9C9A9B"/>
<stop offset="1" stop-color="#959494"/>
</linearGradient>
<linearGradient id="paint15_linear_583_8677" x1="20.3782" y1="1.0161" x2="161.024" y2="116.954" gradientUnits="userSpaceOnUse">
<stop stop-color="#231F20"/>
<stop offset="0.1793" stop-color="#F4F4F4"/>
<stop offset="0.5793" stop-color="#444041"/>
<stop offset="1" stop-color="#231F20"/>
</linearGradient>
<linearGradient id="paint16_linear_583_8677" x1="20.5742" y1="9.60403" x2="167.384" y2="-68.0589" gradientUnits="userSpaceOnUse">
<stop stop-color="#231F20"/>
<stop offset="0.1793" stop-color="#F4F4F4"/>
<stop offset="0.5793" stop-color="#444041"/>
<stop offset="1" stop-color="#231F20"/>
</linearGradient>
<linearGradient id="paint17_linear_583_8677" x1="22.2705" y1="2.33492" x2="194.783" y2="2.33492" gradientUnits="userSpaceOnUse">
<stop stop-color="#656263"/>
<stop offset="0.2857" stop-color="#D3D3D3"/>
<stop offset="0.533" stop-color="#656263"/>
<stop offset="0.7582" stop-color="#393536"/>
<stop offset="1" stop-color="#231F20"/>
</linearGradient>
<linearGradient id="paint18_linear_583_8677" x1="10.7437" y1="17.8522" x2="408.506" y2="17.8522" gradientUnits="userSpaceOnUse">
<stop stop-color="#231F20"/>
<stop offset="0.1793" stop-color="#9E9D9D"/>
<stop offset="0.5793" stop-color="#444041"/>
<stop offset="1" stop-color="#231F20"/>
</linearGradient>
<linearGradient id="paint19_linear_583_8677" x1="19.0316" y1="15.1916" x2="196.934" y2="15.1916" gradientUnits="userSpaceOnUse">
<stop stop-color="#231F20"/>
<stop offset="0.1793" stop-color="#9E9D9D"/>
<stop offset="0.5793" stop-color="#444041"/>
<stop offset="1" stop-color="#231F20"/>
</linearGradient>
<linearGradient id="paint20_linear_583_8677" x1="20.98" y1="15.532" x2="347.75" y2="15.532" gradientUnits="userSpaceOnUse">
<stop stop-color="#231F20"/>
<stop offset="0.1793" stop-color="#9E9D9D"/>
<stop offset="0.5793" stop-color="#444041"/>
<stop offset="1" stop-color="#231F20"/>
</linearGradient>
<linearGradient id="paint21_linear_583_8677" x1="10.4681" y1="10.1218" x2="351.11" y2="10.1218" gradientUnits="userSpaceOnUse">
<stop stop-color="#7B7979"/>
<stop offset="0.1793" stop-color="#D3D3D3"/>
<stop offset="1" stop-color="#231F20"/>
</linearGradient>
<linearGradient id="paint22_linear_583_8677" x1="10.5852" y1="6.53144" x2="128.824" y2="6.53144" gradientUnits="userSpaceOnUse">
<stop stop-color="#444041"/>
<stop offset="0.1793" stop-color="#D3D3D3"/>
<stop offset="1" stop-color="#231F20"/>
</linearGradient>
<linearGradient id="paint23_linear_583_8677" x1="8.89146" y1="9.53541" x2="88.703" y2="9.53541" gradientUnits="userSpaceOnUse">
<stop stop-color="#7B7979"/>
<stop offset="0.1793" stop-color="#BDBCBC"/>
<stop offset="1" stop-color="#444041"/>
</linearGradient>
<linearGradient id="paint24_linear_583_8677" x1="15.7163" y1="1.02673" x2="27.95" y2="22.6983" gradientUnits="userSpaceOnUse">
<stop stop-color="white"/>
<stop offset="0.1154" stop-color="#EEEEEE"/>
<stop offset="0.9066" stop-color="#5A5758"/>
<stop offset="1" stop-color="#5A5758"/>
</linearGradient>
<linearGradient id="paint25_linear_583_8677" x1="13.9625" y1="4.448" x2="336.293" y2="4.448" gradientUnits="userSpaceOnUse">
<stop stop-color="white"/>
<stop offset="0.9796" stop-color="#231F20"/>
<stop offset="1" stop-color="#231F20"/>
</linearGradient>
<linearGradient id="paint26_linear_583_8677" x1="13.6318" y1="18.2169" x2="190.573" y2="-486.03" gradientUnits="userSpaceOnUse">
<stop stop-color="#E9E9E9"/>
<stop offset="0.0659" stop-color="#5A5758"/>
<stop offset="0.3517" stop-color="#918F90"/>
<stop offset="0.6044" stop-color="#B7B5B6"/>
<stop offset="0.9586" stop-color="#706D6E"/>
<stop offset="1" stop-color="#B2B1B1"/>
</linearGradient>
</defs>
</svg>
