<svg width="11" height="11" viewBox="0 0 11 11" fill="none" xmlns="http://www.w3.org/2000/svg">
<path d="M7.22257 7.7606L5.71775 6.2552C5.66276 6.20018 5.59776 6.19018 5.56277 6.19018C5.52777 6.19018 5.46278 6.20018 5.40779 6.2552L3.89797 7.7656C3.72799 7.93564 3.46302 8.21072 2.57812 8.21072L4.4329 10.0612C4.71412 10.3422 5.09532 10.5 5.49278 10.5C5.89023 10.5 6.27143 10.3422 6.55265 10.0612L8.41243 8.20571C7.95748 8.20571 7.57753 8.11569 7.22257 7.7606ZM3.89797 3.2344L5.40779 4.7448C5.44778 4.78481 5.50778 4.80982 5.56277 4.80982C5.61776 4.80982 5.67776 4.78481 5.71775 4.7448L7.21257 3.24941C7.56753 2.87931 7.97248 2.79429 8.42743 2.79429L6.56765 0.938796C6.28643 0.657821 5.90523 0.5 5.50778 0.5C5.11032 0.5 4.72912 0.657821 4.4479 0.938796L2.59312 2.78928C3.47302 2.78928 3.74299 3.07936 3.89797 3.2344Z" fill="#9A9796"/>
<path d="M10.0525 4.42472L8.92768 3.29443H8.29775C8.02778 3.29443 7.75781 3.40446 7.57284 3.59951L6.07302 5.0999C5.93303 5.23994 5.74805 5.30996 5.56308 5.30996C5.3726 5.30728 5.19028 5.23217 5.05314 5.0999L3.54332 3.5845C3.35334 3.39445 3.09337 3.28442 2.8184 3.28442H2.08349L0.938628 4.43473C0.65776 4.71605 0.5 5.0974 0.5 5.49501C0.5 5.89261 0.65776 6.27396 0.938628 6.55529L2.08349 7.70559H2.8234C3.09337 7.70559 3.35334 7.59556 3.54832 7.40551L5.05814 5.89511C5.19812 5.75508 5.3831 5.68506 5.56808 5.68506C5.75305 5.68506 5.93803 5.75508 6.07801 5.89511L7.58284 7.40051C7.77281 7.59056 8.03278 7.70059 8.30775 7.70059H8.93767L10.0625 6.57029C10.3446 6.2839 10.5019 5.89747 10.5 5.49544C10.4981 5.09342 10.3372 4.70847 10.0525 4.42472Z" fill="#9A9796"/>
</svg>
