<svg width="32" height="32" viewBox="0 0 32 32" fill="none" xmlns="http://www.w3.org/2000/svg">
<g clip-path="url(#clip0_600_57)">
<path d="M28.2735 15.788C28.2603 16.1563 28.155 16.551 27.9577 16.88L19.8664 31.0891C19.6427 31.4575 19.498 31.5759 18.9967 31.5759H12.6171C12.0395 31.5759 11.9593 31.4312 11.8014 31.1417L11.3672 30.3918L16.0918 22.09L19.6822 15.788H28.2735ZM15.4852 21.8137L10.9857 29.7208L3.4601 16.5247C3.34169 16.3142 3.28906 16.0511 3.28906 15.788H12.0514L15.4852 21.8137Z" fill="#607D8B"/>
<path d="M15.8681 9.02543L12.025 15.7485L12.0514 15.7879H3.28906C3.28906 15.459 3.39432 15.0906 3.55219 14.8275L11.6698 0.565734C11.8935 0.184192 12.1829 0 12.6434 0H18.9717C19.4322 0 19.7217 0.184192 19.9453 0.565734L20.3124 1.22356L15.8681 9.02543ZM19.6822 15.7879L19.7098 15.7485L16.2628 9.70957L20.6966 1.89455L28.0761 14.8275C28.234 15.1169 28.2998 15.4459 28.2735 15.7879H19.6822Z" fill="#ECEFF1"/>
<path d="M15.7878 22.6228L11.3672 30.3918L11.8014 31.1417C11.9593 31.4312 12.0395 31.5759 12.6171 31.5759H15.7878V22.6228ZM12.0514 15.788H3.28906C3.28906 16.0511 3.34169 16.3142 3.4601 16.5247L10.9857 29.7208L15.4852 21.8137L12.0514 15.788Z" fill="#546D79"/>
<path d="M15.7878 0H12.6434C12.1829 0 11.8935 0.184192 11.6698 0.565734L3.55219 14.8275C3.39432 15.0906 3.28906 15.459 3.28906 15.7879H12.0514L12.025 15.7485L15.7878 9.16489V0Z" fill="#CDD0D2"/>
</g>
<defs>
<clipPath id="clip0_600_57">
<rect width="31.5758" height="31.5758" fill="white"/>
</clipPath>
</defs>
</svg>
