<svg width="31" height="25" viewBox="0 0 31 25" fill="none" xmlns="http://www.w3.org/2000/svg">
<path d="M2.36523 8.54854C2.36523 13.155 8.15292 16.901 15.2654 16.901C22.3779 16.901 28.1656 13.155 28.1656 8.54854C28.1656 3.94204 22.3779 0.196045 15.2654 0.196045C8.15292 0.196045 2.36523 3.94204 2.36523 8.54854ZM2.49154 8.54854C2.49154 4.01759 8.2204 0.322353 15.2654 0.322353C22.3104 0.322353 28.0393 4.00952 28.0393 8.54854C28.0393 13.0795 22.3104 16.7747 15.2654 16.7747C8.2204 16.7747 2.49154 13.0876 2.49154 8.54854Z" fill="#808184"/>
<path d="M14.042 1.74004C11.0891 1.92576 8.8703 2.75224 8.5156 3.79039C8.48157 3.8919 8.46484 3.99283 8.46484 4.09434C8.46484 4.25467 8.50695 4.41501 8.5998 4.57534C9.00468 5.29225 10.2787 5.88284 12.1093 6.21216L12.1682 6.22081L12.1768 6.15333C12.4888 4.17047 13.1809 2.60113 14.0749 1.85885L14.2266 1.73254L14.042 1.74004ZM8.70996 4.50729C8.63383 4.37233 8.59173 4.22872 8.59173 4.09376C8.59173 4.00955 8.60845 3.92477 8.63383 3.84057C8.96316 2.8872 11.1058 2.09417 13.873 1.89173C13.0292 2.68476 12.3798 4.18662 12.0759 6.07663C10.3381 5.75595 9.08081 5.17343 8.70996 4.50729Z" fill="#808184"/>
<path d="M13.6122 6.32975L13.6035 6.39723L13.671 6.40588C14.1941 6.44799 14.7259 6.46471 15.2657 6.46471C15.8055 6.46471 16.3454 6.44799 16.8604 6.40588L16.9279 6.39723L16.9193 6.32975C16.6326 4.66756 15.9993 3.63806 15.2657 3.63806C14.5315 3.63806 13.8988 4.66756 13.6122 6.32975ZM15.2657 3.76495C15.9238 3.76495 16.5057 4.72697 16.7843 6.279C16.2866 6.31303 15.7802 6.33783 15.2657 6.33783C14.7512 6.33783 14.2449 6.3211 13.7471 6.279C14.0257 4.72639 14.6076 3.76495 15.2657 3.76495Z" fill="#808184"/>
<path d="M16.4461 1.85772C17.3406 2.60865 18.0321 4.16933 18.3442 6.1522L18.3528 6.21968L18.4116 6.21103C20.2422 5.89036 21.5249 5.29111 21.9212 4.57421C22.0648 4.32102 22.0901 4.05975 22.0054 3.78983C21.6512 2.75226 19.4319 1.9252 16.4789 1.73949L16.2852 1.73083L16.4461 1.85772ZM16.6572 1.8831C19.4244 2.08554 21.5676 2.87857 21.8964 3.83194C21.9217 3.91614 21.9385 4.00092 21.9385 4.08513C21.9385 4.22874 21.8964 4.3637 21.8202 4.49866C21.4488 5.16538 20.1921 5.73867 18.4537 6.05934C18.1504 4.18664 17.5009 2.68478 16.6572 1.8831Z" fill="#808184"/>
<path d="M6.54058 4.67565C5.19906 5.84011 4.49023 7.22373 4.49023 8.67484C4.49023 12.1088 8.54825 15.0197 13.9311 15.4413L14.1248 15.458L13.9812 15.3317C12.7579 14.2434 11.9984 11.6699 11.9984 8.63273L12.007 8.04214L11.9563 8.03349C8.98658 7.47692 6.95296 6.21096 6.64959 4.7264L6.62421 4.61682L6.54058 4.67565ZM4.62519 8.67484C4.62519 7.29121 5.29192 5.96642 6.55731 4.84464C6.94546 6.32977 8.96178 7.58651 11.8894 8.14365C11.8894 8.2365 11.8807 8.63273 11.8807 8.63273C11.8807 11.5943 12.6063 14.117 13.7707 15.2982C8.54017 14.8259 4.62519 12.0079 4.62519 8.67484Z" fill="#808184"/>
<path d="M13.4512 8.30405V8.38018C13.4512 11.0465 14.2529 13.1303 15.2651 13.1303C16.2859 13.1303 17.0789 11.0465 17.0789 8.38018V8.23657L17.0114 8.24522C16.4376 8.29598 15.8556 8.32135 15.2651 8.32135C14.6745 8.32135 14.0839 8.29598 13.5187 8.24522L13.4512 8.23657V8.30405ZM13.5775 8.37153C14.126 8.41363 14.6998 8.43901 15.2651 8.43901C15.8389 8.43901 16.4041 8.41363 16.9526 8.36288V8.37153C16.9526 10.9617 16.2103 12.9948 15.2651 12.9948C14.3203 12.9948 13.5775 10.9698 13.5775 8.37153Z" fill="#808184"/>
<path d="M23.8874 4.70966C23.5834 6.1948 21.5417 7.46884 18.5807 8.01675L18.5299 8.0254L18.5386 8.61599C18.5386 11.6618 17.779 14.2266 16.5557 15.3149L16.4121 15.4413L16.6059 15.4245C21.9887 15.0029 26.0467 12.1001 26.0467 8.6581C26.0467 7.20699 25.3379 5.82337 23.9964 4.65891L23.9202 4.59143L23.8874 4.70966ZM23.9802 4.84462C25.2375 5.97505 25.9123 7.2912 25.9123 8.67482C25.9123 12.0073 21.9893 14.8253 16.7668 15.2896C17.9393 14.1084 18.6568 11.5857 18.6568 8.62407C18.6568 8.62407 18.6482 8.22726 18.6482 8.13498C21.5677 7.57842 23.5921 6.32976 23.9802 4.84462Z" fill="#808184"/>
<path d="M23.887 3.60469C23.9038 3.65544 23.9211 3.71427 23.9378 3.76502C24.0139 4.07705 23.9966 4.38099 23.9038 4.68494C25.2032 5.79864 25.9708 7.18227 25.9708 8.67547C25.9708 12.4047 21.1786 15.4252 15.264 15.4252C9.34947 15.4252 4.55783 12.4042 4.55783 8.6749C4.55783 7.18169 5.32549 5.80614 6.6249 4.68436C6.5234 4.38907 6.51532 4.07705 6.59088 3.76445C6.6076 3.70562 6.6249 3.65486 6.6497 3.59546C4.8785 4.91218 3.79883 6.64185 3.79883 8.53186C3.79883 12.6574 8.92844 16.0071 15.2646 16.0071C21.5921 16.0071 26.7304 12.6574 26.7304 8.53186C26.7304 6.64185 25.6588 4.92083 23.887 3.60469Z" fill="url(#paint0_linear_583_9191)"/>
<path d="M13.6711 6.33787L13.3418 6.59107C13.6117 4.44786 14.3713 3.08154 15.2653 3.08154C16.1598 3.08154 16.9188 4.44844 17.1887 6.59107L16.8594 6.33787C16.5808 4.71778 15.9735 3.69694 15.2647 3.69694C14.557 3.69694 13.9497 4.71836 13.6711 6.33787Z" fill="url(#paint1_linear_583_9191)"/>
<path d="M17.291 7.79761L17.0211 8.30399C17.0211 8.32937 17.0211 8.35475 17.0211 8.38013C17.0211 11.0464 16.2367 13.0708 15.266 13.0708C14.2954 13.0708 13.511 11.0545 13.511 8.38013C13.511 8.35475 13.511 8.3213 13.511 8.29592L13.2411 7.80684C13.2324 7.99255 13.2324 8.18634 13.2324 8.38878C13.2324 11.4092 14.1437 13.6955 15.2655 13.6955C16.3872 13.6955 17.2985 11.4092 17.2985 8.38878C17.2991 8.17711 17.291 7.98332 17.291 7.79761Z" fill="url(#paint2_linear_583_9191)"/>
<path d="M16.8604 6.3379C16.354 6.38001 15.8228 6.39673 15.2657 6.39673C14.7091 6.39673 14.1774 6.37136 13.671 6.3379L13.3416 6.5911C13.949 6.64993 14.5903 6.6753 15.2651 6.6753C15.9399 6.6753 16.5812 6.64127 17.1886 6.5911L16.8604 6.3379ZM22.7156 3.72234C22.3107 2.33872 18.9949 1.31787 15.2657 1.31787C11.5364 1.31787 8.22068 2.33872 7.8158 3.72234C7.46975 4.92025 9.37648 6.03396 12.3802 6.48151L12.1189 6.15219C9.68908 5.72193 8.23798 4.80202 8.57538 3.82385C8.98026 2.63401 11.9165 1.7735 15.2657 1.7735C18.6149 1.7735 21.5511 2.63401 21.956 3.82385C22.2934 4.80259 20.8423 5.72193 18.4124 6.15219L18.1512 6.48151C21.1549 6.03453 23.0616 4.92083 22.7156 3.72234Z" fill="url(#paint3_linear_583_9191)"/>
<path d="M23.9046 4.68427C24.4023 5.11453 24.8245 5.57881 25.1532 6.07655C25.035 5.26679 24.7316 4.53259 24.276 3.90797C24.1497 3.80646 24.0228 3.70553 23.8965 3.61267C23.9132 3.66342 23.9305 3.72225 23.9472 3.77301C24.0141 4.07695 23.9974 4.38898 23.9046 4.68427Z" fill="#404041"/>
<path d="M6.62619 4.68436C6.52469 4.38907 6.51661 4.07705 6.59217 3.76445C6.60889 3.70562 6.62619 3.65486 6.65099 3.59546C6.51603 3.69697 6.38107 3.7979 6.25419 3.90748C5.80721 4.5321 5.49461 5.27438 5.37695 6.07606C5.71493 5.5789 6.12846 5.11462 6.62619 4.68436Z" fill="#404041"/>
<path d="M2.42383 8.54856C2.42383 3.96744 8.16941 0.26355 15.2652 0.26355C22.3523 0.26355 28.1065 3.97609 28.1065 8.54856C28.1065 13.1297 22.3609 16.8336 15.2652 16.8336C8.17806 16.8422 2.42383 13.1297 2.42383 8.54856ZM15.2652 16.0071C21.5927 16.0071 26.731 12.6573 26.731 8.53184C26.731 4.40634 21.6013 1.05658 15.2652 1.05658C8.92899 1.05658 3.79938 4.40577 3.79938 8.53184C3.79938 12.6573 8.92899 16.0071 15.2652 16.0071Z" fill="url(#paint4_linear_583_9191)"/>
<path d="M3.72266 8.53186C3.72266 12.7 8.90302 16.0832 15.2646 16.0832C21.6261 16.0832 26.8065 12.6914 26.8065 8.53186C26.8065 4.37234 21.6261 0.980469 15.2646 0.980469C8.90302 0.980469 3.72266 4.36368 3.72266 8.53186ZM3.87434 8.53186C3.87434 4.45654 8.98723 1.13273 15.2646 1.13273C21.5419 1.13273 26.6548 4.44847 26.6548 8.53186C26.6548 12.6072 21.5419 15.931 15.2646 15.931C8.98723 15.931 3.87434 12.6066 3.87434 8.53186Z" fill="white"/>
<path d="M12.2539 8.62463C12.2539 4.6341 13.6041 1.31836 15.2657 1.31836C16.9273 1.31836 18.2775 4.6341 18.2775 8.62463C18.2775 12.6573 16.9273 15.9309 15.2657 15.9309C13.6035 15.9309 12.2539 12.6573 12.2539 8.62463ZM15.2657 13.6868C16.3881 13.6868 17.2987 11.4005 17.2987 8.38009C17.2987 5.24141 16.3875 3.08148 15.2657 3.08148C14.1439 3.08148 13.2327 5.24141 13.2327 8.38009C13.2327 11.3919 14.1433 13.6868 15.2657 13.6868Z" fill="url(#paint5_linear_583_9191)"/>
<path d="M6.59243 3.7731C6.92175 2.40621 10.929 0.42334 15.2656 0.42334C19.6108 0.42334 23.4751 1.84099 23.9388 3.7731C24.4619 5.94168 20.6063 7.8986 15.2656 7.8986C9.92489 7.89052 6.06932 5.93303 6.59243 3.7731ZM15.2656 1.31788C11.5363 1.31788 8.22059 2.33873 7.81572 3.72235C7.36873 5.27496 10.6758 6.67531 15.2656 6.67531C19.8554 6.67531 23.1625 5.27496 22.7155 3.72235C22.3106 2.33873 18.9949 1.31788 15.2656 1.31788Z" fill="url(#paint6_linear_583_9191)"/>
<path d="M13.24 7.79758L13.5185 8.30397C14.0751 8.35472 14.6657 8.3801 15.2649 8.3801C15.8722 8.3801 16.4548 8.35472 17.02 8.30397L17.2899 7.79758C16.6485 7.86506 15.9651 7.89909 15.2649 7.89909C14.5648 7.89044 13.8813 7.85641 13.24 7.79758ZM23.9888 4.2373C23.9214 5.78992 21.6351 7.15624 18.26 7.67127L18.5893 8.0848C21.8877 7.46826 24.065 5.94968 23.9888 4.2373ZM6.541 4.2373C6.46487 5.95025 8.63345 7.46883 11.9405 8.0848L12.2699 7.67127C8.89472 7.15624 6.61714 5.78126 6.541 4.2373Z" fill="url(#paint7_linear_583_9191)"/>
<path d="M18.1508 6.47283L18.4121 6.14351C17.9565 3.25803 16.7245 1.31726 15.2734 1.31726C16.6236 1.31784 17.7627 3.51179 18.1508 6.47283Z" fill="url(#paint8_linear_583_9191)"/>
<path d="M12.3804 6.47286C12.7599 3.50318 13.9076 1.31787 15.2659 1.31787C13.8148 1.31787 12.5742 3.25864 12.1191 6.14412L12.3804 6.47286Z" fill="url(#paint9_linear_583_9191)"/>
<path d="M12.254 8.62475C12.254 8.30408 12.2627 7.98341 12.2794 7.67139L11.9501 8.08492C11.9414 8.26198 11.9414 8.43904 11.9414 8.62475C11.9414 12.8939 13.4012 15.931 15.2739 15.931C13.6036 15.931 12.254 12.6574 12.254 8.62475Z" fill="url(#paint10_linear_583_9191)"/>
<path d="M18.5892 8.08431L18.2598 7.67078C18.2766 7.9828 18.2852 8.30347 18.2852 8.62414C18.2852 12.6568 16.9351 15.9304 15.2734 15.9304C17.1381 15.9304 18.6059 12.9013 18.6059 8.62414C18.5972 8.43901 18.5892 8.26195 18.5892 8.08431Z" fill="url(#paint11_linear_583_9191)"/>
<path d="M15.2422 21.778C15.2422 20.3356 16.4147 19.1625 17.8577 19.1625C19.3008 19.1625 20.4733 20.335 20.4733 21.778C20.4733 23.2211 19.3008 24.3936 17.8577 24.3936C16.4147 24.3936 15.2422 23.2205 15.2422 21.778ZM17.8577 23.4316C18.6675 23.4316 19.3175 22.6893 19.3175 21.778C19.3175 20.8668 18.6681 20.1245 17.8577 20.1245C17.0561 20.1245 16.398 20.8668 16.398 21.778C16.398 22.6887 17.0561 23.4316 17.8577 23.4316Z" fill="white"/>
<path d="M23.4339 20.2509V24.2754H22.3369V20.2595H20.793V19.3483H24.9692V20.2595L23.4339 20.2509Z" fill="white"/>
<path d="M26.302 23.1617L25.8803 24.2668H24.5977L26.6307 19.3396H27.3141H27.9976L30.0312 24.2754H28.7485L28.3269 23.1704H27.3147H26.3025V23.1617H26.302ZM27.3147 22.3347H28.0068L27.3147 20.5289H27.3061L26.614 22.3347H27.3147Z" fill="white"/>
<path d="M3.14289 20.2509V24.2754H2.03726V20.2595H0.501953V19.3483H4.6782V20.2595L3.14289 20.2509Z" fill="white"/>
<path d="M4.95703 21.778C4.95703 20.3356 6.12956 19.1625 7.57259 19.1625C9.01562 19.1625 10.1882 20.335 10.1882 21.778C10.1882 23.2211 9.01562 24.3936 7.57259 24.3936C6.12956 24.3936 4.95703 23.2205 4.95703 21.778ZM7.57259 23.4316C8.37428 23.4316 9.03235 22.6893 9.03235 21.778C9.03235 20.8668 8.38293 20.1245 7.57259 20.1245C6.76226 20.1245 6.11284 20.8668 6.11284 21.778C6.11284 22.6893 6.76226 23.4316 7.57259 23.4316Z" fill="white"/>
<path d="M12.7111 24.2754H13.2677V22.4275V22.4021L15.1911 19.3477H13.9085L12.7186 21.4147L11.5288 19.3477H10.2461L12.1696 22.4021V22.4275V24.2754H12.7111Z" fill="white"/>
<defs>
<linearGradient id="paint0_linear_583_9191" x1="15.2646" y1="15.0834" x2="15.2646" y2="5.63989" gradientUnits="userSpaceOnUse">
<stop stop-color="#D0D2D3"/>
<stop offset="0.1575" stop-color="#F1F1F2"/>
<stop offset="0.1639" stop-color="#F0F0F1"/>
<stop offset="0.2592" stop-color="#E8E9EA"/>
<stop offset="0.44" stop-color="#E6E7E8"/>
<stop offset="0.5594" stop-color="#CFD0D1"/>
<stop offset="0.8087" stop-color="#949597"/>
<stop offset="1" stop-color="#626366"/>
</linearGradient>
<linearGradient id="paint1_linear_583_9191" x1="16.9329" y1="6.89692" x2="13.7976" y2="4.26608" gradientUnits="userSpaceOnUse">
<stop stop-color="#E6E7E8"/>
<stop offset="0.44" stop-color="#E6E7E8"/>
<stop offset="0.5594" stop-color="#CFD0D1"/>
<stop offset="0.8087" stop-color="#949597"/>
<stop offset="1" stop-color="#626366"/>
</linearGradient>
<linearGradient id="paint2_linear_583_9191" x1="17.2322" y1="11.3638" x2="12.6934" y2="8.74329" gradientUnits="userSpaceOnUse">
<stop stop-color="#E6E7E8"/>
<stop offset="0.44" stop-color="#E6E7E8"/>
<stop offset="0.5594" stop-color="#CFD0D1"/>
<stop offset="0.8087" stop-color="#949597"/>
<stop offset="1" stop-color="#626366"/>
</linearGradient>
<linearGradient id="paint3_linear_583_9191" x1="15.2657" y1="7.88727" x2="15.2657" y2="2.77016" gradientUnits="userSpaceOnUse">
<stop stop-color="#E6E7E8"/>
<stop offset="0.44" stop-color="#E6E7E8"/>
<stop offset="0.5594" stop-color="#CFD0D1"/>
<stop offset="0.8087" stop-color="#949597"/>
<stop offset="1" stop-color="#626366"/>
</linearGradient>
<linearGradient id="paint4_linear_583_9191" x1="15.2652" y1="0.263354" x2="15.2652" y2="16.8337" gradientUnits="userSpaceOnUse">
<stop stop-color="#C5C7C9"/>
<stop offset="0.0476" stop-color="#D4D5D7"/>
<stop offset="0.12" stop-color="#E6E7E8"/>
<stop offset="0.1242" stop-color="#E8E9EA"/>
<stop offset="0.1469" stop-color="#EFEFF0"/>
<stop offset="0.21" stop-color="#F1F1F2"/>
<stop offset="0.545" stop-color="#F1F1F2"/>
<stop offset="0.6115" stop-color="#CCCCCE"/>
<stop offset="0.692" stop-color="#A6A7A9"/>
<stop offset="0.7722" stop-color="#88898B"/>
<stop offset="0.851" stop-color="#737477"/>
<stop offset="0.9278" stop-color="#66676A"/>
<stop offset="1" stop-color="#626366"/>
</linearGradient>
<linearGradient id="paint5_linear_583_9191" x1="15.2657" y1="0.263166" x2="15.2657" y2="16.8388" gradientUnits="userSpaceOnUse">
<stop stop-color="#C5C7C9"/>
<stop offset="0.0476" stop-color="#D4D5D7"/>
<stop offset="0.12" stop-color="#E6E7E8"/>
<stop offset="0.1242" stop-color="#E8E9EA"/>
<stop offset="0.1469" stop-color="#EFEFF0"/>
<stop offset="0.21" stop-color="#F1F1F2"/>
<stop offset="0.545" stop-color="#F1F1F2"/>
<stop offset="0.6115" stop-color="#CCCCCE"/>
<stop offset="0.692" stop-color="#A6A7A9"/>
<stop offset="0.7722" stop-color="#88898B"/>
<stop offset="0.851" stop-color="#737477"/>
<stop offset="0.9278" stop-color="#66676A"/>
<stop offset="1" stop-color="#626366"/>
</linearGradient>
<linearGradient id="paint6_linear_583_9191" x1="15.2656" y1="0.264393" x2="15.2656" y2="16.8405" gradientUnits="userSpaceOnUse">
<stop stop-color="#C5C7C9"/>
<stop offset="0.0476" stop-color="#D4D5D7"/>
<stop offset="0.12" stop-color="#E6E7E8"/>
<stop offset="0.1242" stop-color="#E8E9EA"/>
<stop offset="0.1469" stop-color="#EFEFF0"/>
<stop offset="0.21" stop-color="#F1F1F2"/>
<stop offset="0.545" stop-color="#F1F1F2"/>
<stop offset="0.6115" stop-color="#CCCCCE"/>
<stop offset="0.692" stop-color="#A6A7A9"/>
<stop offset="0.7722" stop-color="#88898B"/>
<stop offset="0.851" stop-color="#737477"/>
<stop offset="0.9278" stop-color="#66676A"/>
<stop offset="1" stop-color="#626366"/>
</linearGradient>
<linearGradient id="paint7_linear_583_9191" x1="15.2649" y1="3.70088" x2="15.2649" y2="8.4253" gradientUnits="userSpaceOnUse">
<stop offset="0.005618" stop-color="#E6E7E8"/>
<stop offset="1" stop-color="#6D6E70"/>
</linearGradient>
<linearGradient id="paint8_linear_583_9191" x1="16.8431" y1="0.263694" x2="16.8431" y2="8.37876" gradientUnits="userSpaceOnUse">
<stop stop-color="#E6E7E8"/>
<stop offset="0.44" stop-color="#E6E7E8"/>
<stop offset="0.5594" stop-color="#CFD0D1"/>
<stop offset="0.8087" stop-color="#949597"/>
<stop offset="1" stop-color="#626366"/>
</linearGradient>
<linearGradient id="paint9_linear_583_9191" x1="13.6924" y1="0.263728" x2="13.6924" y2="8.37879" gradientUnits="userSpaceOnUse">
<stop stop-color="#E6E7E8"/>
<stop offset="0.44" stop-color="#E6E7E8"/>
<stop offset="0.5594" stop-color="#CFD0D1"/>
<stop offset="0.8087" stop-color="#949597"/>
<stop offset="1" stop-color="#626366"/>
</linearGradient>
<linearGradient id="paint10_linear_583_9191" x1="13.6079" y1="0.26373" x2="13.6079" y2="13.6842" gradientUnits="userSpaceOnUse">
<stop stop-color="#E6E7E8"/>
<stop offset="0.44" stop-color="#E6E7E8"/>
<stop offset="0.5594" stop-color="#CFD0D1"/>
<stop offset="0.8087" stop-color="#949597"/>
<stop offset="1" stop-color="#626366"/>
</linearGradient>
<linearGradient id="paint11_linear_583_9191" x1="16.9395" y1="0.263696" x2="16.9395" y2="13.6842" gradientUnits="userSpaceOnUse">
<stop stop-color="#E6E7E8"/>
<stop offset="0.44" stop-color="#E6E7E8"/>
<stop offset="0.5594" stop-color="#CFD0D1"/>
<stop offset="0.8087" stop-color="#949597"/>
<stop offset="1" stop-color="#626366"/>
</linearGradient>
</defs>
</svg>
