<svg width="21" height="11" viewBox="0 0 21 11" fill="none" xmlns="http://www.w3.org/2000/svg">
<path d="M1.3 0.5C0.85826 0.5 0.5 0.785159 0.5 1.13694V9.86306C0.5 10.2148 0.85844 10.5 1.3 10.5H19.7C20.1417 10.5 20.5 10.2148 20.5 9.86306V1.13694C20.5 0.785175 20.1416 0.5 19.7 0.5H1.3ZM12.445 3.48019C12.9318 3.48019 13.3219 3.5658 13.5706 3.6454L13.4006 4.49682L13.2881 4.45153C13.0564 4.37193 12.7587 4.29532 12.3481 4.30075C11.8566 4.30075 11.6294 4.47532 11.6294 4.63865C11.6265 4.82268 11.8949 4.94404 12.3337 5.1258C13.0581 5.40621 13.3929 5.74621 13.3881 6.19317C13.3784 7.00873 12.5217 7.53573 11.2019 7.53573C10.6388 7.5308 10.0964 7.43589 9.80312 7.32623L9.97938 6.44645L10.1413 6.50916C10.5536 6.65584 10.8206 6.71518 11.3231 6.71518C11.684 6.71518 12.0713 6.59487 12.0744 6.33151C12.0767 6.15954 11.9125 6.03693 11.4237 5.84435C10.9475 5.65639 10.3161 5.34153 10.3231 4.77697C10.3306 4.01326 11.2044 3.48019 12.445 3.48019ZM2.26874 3.6051H4.29562C4.56856 3.61331 4.78892 3.68328 4.865 3.91909L5.30188 5.71447C5.30194 5.71463 5.3018 5.71529 5.30188 5.71546L5.43312 6.25339L6.66374 3.6051H7.995L6.01624 7.4815L4.68624 7.48248L3.6275 4.35449C4.25746 4.62021 4.79378 4.92764 5.10438 5.35072C5.0243 5.21685 4.91878 5.06573 4.78376 4.9168C4.62652 4.74336 4.28694 4.51943 4.145 4.42416C3.6504 4.0922 2.9787 3.82409 2.25312 3.68223L2.26874 3.6051ZM8.52438 3.60957H9.82626L9.01186 7.48H7.71L8.52438 3.60957ZM15.8775 3.60957H16.8638L17.8963 7.48H16.7125C16.7125 7.48 16.5951 7.03535 16.5569 6.89978C16.3708 6.89978 15.0695 6.8983 14.9231 6.8983C14.8736 7.00307 14.6544 7.47998 14.6544 7.47998H13.315L15.2094 3.93104C15.3435 3.67884 15.5721 3.60957 15.8775 3.60957ZM15.9744 4.65057C15.9103 4.79454 15.7988 5.02702 15.8062 5.01682C15.8062 5.01682 15.4055 5.86777 15.3006 6.08868L16.3537 6.08817C16.2559 5.7191 16.158 5.35005 16.06 4.98102L15.9744 4.65061V4.65057Z" fill="#9A9796"/>
</svg>
