<svg width="48" height="48" viewBox="0 0 48 48" fill="none" xmlns="http://www.w3.org/2000/svg">
<path d="M24 4C18.6957 4 13.6086 6.10714 9.85786 9.85786C6.10714 13.6086 4 18.6957 4 24C4 29.3043 6.10714 34.3914 9.85786 38.1421C13.6086 41.8929 18.6957 44 24 44C29.3043 44 34.3914 41.8929 38.1421 38.1421C41.8929 34.3914 44 29.3043 44 24C44 18.6957 41.8929 13.6086 38.1421 9.85786C34.3914 6.10714 29.3043 4 24 4Z" fill="#1565C0"/>
<path d="M24 7C14.611 7 7 14.611 7 24C7 33.389 14.611 41 24 41C33.389 41 41 33.389 41 24C41 14.611 33.389 7 24 7ZM24 9C25.502 9 26.951 9.228 28.32 9.641L24 18.999L19.68 9.641C21.049 9.228 22.498 9 24 9ZM9 24C9 22.752 9.17 21.545 9.459 20.385L17.434 37.466C12.449 35.025 9 29.914 9 24ZM24 39C22.086 39 20.261 38.626 18.577 37.97L24 28.563L29.423 37.97C27.739 38.626 25.914 39 24 39ZM26.583 25H24H21.417L18.375 30.438L11.558 15.631C12.727 13.898 14.257 12.434 16.027 11.317L21.516 23H24H26.484L31.972 11.317C33.742 12.434 35.272 13.898 36.441 15.631L29.624 30.438L26.583 25ZM30.566 37.466L38.541 20.385C38.83 21.545 39 22.752 39 24C39 29.914 35.551 35.025 30.566 37.466Z" fill="white"/>
</svg>
